FiraCode-Retina.ufo
<glyph name="quotedbl" format="2">
  <advance width="1200.0"/>
  <unicode hex="0022"/>
  <outline>
    <contour>
      <point x="348.9583333333333" y="952.125" type="line"/>
      <point x="509.0208333333333" y="952.125" type="line"/>
      <point x="540.8541666666666" y="1478.1875" type="line"/>
      <point x="316.125" y="1478.1875" type="line"/>
    </contour>
    <contour>
      <point x="690.9166666666666" y="952.125" type="line"/>
      <point x="851.0416666666666" y="952.125" type="line"/>
      <point x="883.875" y="1478.1875" type="line"/>
      <point x="659.0833333333334" y="1478.1875" type="line"/>
    </contour>
  </outline>
</glyph>
<glyph name="numbersign" format="2">
  <advance width="1200.0"/>
  <unicode hex="0023"/>
  <outline>
    <contour>
      <point x="927.75" y="909.1458333333334" type="line"/>
      <point x="1100.0" y="909.1458333333334" type="line"/>
      <point x="1100.0" y="1052.9166666666667" type="line"/>
      <point x="946.0625" y="1052.9166666666667" type="line"/>
      <point x="991.8125" y="1378.25" type="line"/>
      <point x="828.9791666666666" y="1378.25" type="line"/>
      <point x="785.8125" y="1052.9166666666667" type="line"/>
      <point x="508.9166666666667" y="1052.9166666666667" type="line"/>
      <point x="555.0208333333334" y="1378.25" type="line"/>
      <point x="392.125" y="1378.25" type="line"/>
      <point x="349.0208333333333" y="1052.9166666666667" type="line"/>
      <point x="174.0625" y="1052.9166666666667" type="line"/>
      <point x="174.0625" y="909.1458333333334" type="line"/>
      <point x="330.0625" y="909.1458333333334" type="line"/>
      <point x="270.9583333333333" y="473.75" type="line"/>
      <point x="100.0625" y="473.75" type="line"/>
      <point x="100.0625" y="330.9791666666667" type="line"/>
      <point x="252.0" y="330.9791666666667" type="line"/>
      <point x="208.25" y="0.0" type="line"/>
      <point x="371.0833333333333" y="0.0" type="line"/>
      <point x="414.25" y="330.9791666666667" type="line"/>
      <point x="688.8541666666666" y="330.9791666666667" type="line"/>
      <point x="645.0416666666666" y="0.0" type="line"/>
      <point x="807.875" y="0.0" type="line"/>
      <point x="849.75" y="330.9791666666667" type="line"/>
      <point x="1026.0" y="330.9791666666667" type="line"/>
      <point x="1026.0" y="473.75" type="line"/>
      <point x="870.0" y="473.75" type="line"/>
    </contour>
    <contour>
      <point x="433.1458333333333" y="473.75" type="line"/>
      <point x="490.9583333333333" y="909.1458333333334" type="line"/>
      <point x="766.8541666666666" y="909.1458333333334" type="line"/>
      <point x="707.75" y="473.75" type="line"/>
    </contour>
  </outline>
</glyph>
<glyph name="dollar" format="2">
  <advance width="1200.0"/>
  <unicode hex="0024"/>
  <outline>
    <contour>
      <point x="692.1875" y="1699.0833333333333" type="line"/>
      <point x="553.1458333333334" y="1699.0833333333333" type="line"/>
      <point x="553.1458333333334" y="1399.1458333333333" type="line"/>
      <point x="307.0833333333333" y="1375.0833333333333"/>
      <point x="181.14583333333334" y="1218.9791666666667"/>
      <point x="181.14583333333334" y="1050.125" type="curve" smooth="yes"/>
      <point x="181.14583333333334" y="864.0"/>
      <point x="310.0" y="745.875"/>
      <point x="553.1458333333334" y="665.0833333333334" type="curve"/>
      <point x="553.1458333333334" y="134.125" type="line"/>
      <point x="423.8125" y="144.0625"/>
      <point x="322.125" y="203.04166666666666"/>
      <point x="237.9375" y="286.8541666666667" type="curve"/>
      <point x="128.85416666666666" y="165.75" type="line"/>
      <point x="219.75" y="76.91666666666667"/>
      <point x="362.25" y="-10.25"/>
      <point x="553.1458333333334" y="-22.958333333333336" type="curve"/>
      <point x="553.1458333333334" y="-309.1458333333333" type="line"/>
      <point x="692.1875" y="-309.1458333333333" type="line"/>
      <point x="692.1875" y="-16.958333333333336" type="line"/>
      <point x="948.9166666666666" y="17.041666666666664"/>
      <point x="1082.125" y="187.875"/>
      <point x="1082.125" y="383.75" type="curve" smooth="yes"/>
      <point x="1082.125" y="626.9791666666666"/>
      <point x="904.0" y="738.8541666666666"/>
      <point x="692.1875" y="808.1875" type="curve"/>
      <point x="692.1875" y="1246.9583333333333" type="line"/>
      <point x="789.0416666666666" y="1235.1458333333333"/>
      <point x="876.9166666666666" y="1193.8125"/>
      <point x="952.8541666666666" y="1124.125" type="curve"/>
      <point x="1063.875" y="1238.9166666666667" type="line"/>
      <point x="979.1458333333334" y="1315.75"/>
      <point x="852.9583333333334" y="1382.9166666666667"/>
      <point x="692.1875" y="1398.8541666666667" type="curve"/>
    </contour>
    <contour>
      <point x="692.1875" y="615.9375" type="line"/>
      <point x="835.75" y="554.9583333333334"/>
      <point x="882.0625" y="481.875"/>
      <point x="882.0625" y="375.8125" type="curve" smooth="yes"/>
      <point x="882.0625" y="244.1875"/>
      <point x="817.75" y="167.8125"/>
      <point x="692.1875" y="142.0625" type="curve"/>
    </contour>
    <contour>
      <point x="553.1458333333334" y="1243.0208333333333" type="curve"/>
      <point x="553.1458333333334" y="854.9791666666666" type="line"/>
      <point x="412.9166666666667" y="913.0208333333334"/>
      <point x="376.9583333333333" y="969.75"/>
      <point x="376.9583333333333" y="1058.0625" type="curve" smooth="yes"/>
      <point x="376.9583333333333" y="1163.0416666666667"/>
      <point x="448.25" y="1225.1458333333333"/>
    </contour>
  </outline>
</glyph>
<glyph name="percent" format="2">
  <advance width="1200.0"/>
  <unicode hex="0025"/>
  <outline>
    <contour>
      <point x="983.0416666666666" y="1417.1458333333333" type="line"/>
      <point x="81.8125" y="26.854166666666664" type="line"/>
      <point x="197.14583333333334" y="-43.145833333333336" type="line"/>
      <point x="1101.0208333333333" y="1347.1458333333333" type="line"/>
    </contour>
    <contour>
      <point x="877.9375" y="502.9166666666667" type="curve" smooth="yes"/>
      <point x="954.9166666666666" y="502.9166666666667"/>
      <point x="1007.0208333333334" y="447.0416666666667"/>
      <point x="1007.0208333333334" y="309.0416666666667" type="curve" smooth="yes"/>
      <point x="1007.0208333333334" y="173.875"/>
      <point x="954.9166666666666" y="112.0"/>
      <point x="877.9375" y="112.0" type="curve" smooth="yes"/>
      <point x="799.1458333333334" y="112.0"/>
      <point x="746.9166666666666" y="184.97916666666666"/>
      <point x="746.9166666666666" y="309.0416666666667" type="curve" smooth="yes"/>
      <point x="746.9166666666666" y="442.9166666666667"/>
      <point x="800.9583333333334" y="502.9166666666667"/>
    </contour>
    <contour>
      <point x="325.9375" y="1276.9791666666667" type="curve" smooth="yes"/>
      <point x="402.9166666666667" y="1276.9791666666667"/>
      <point x="455.0208333333333" y="1221.75"/>
      <point x="455.0208333333333" y="1083.75" type="curve" smooth="yes"/>
      <point x="455.0208333333333" y="947.9375"/>
      <point x="402.9166666666667" y="886.0625"/>
      <point x="325.9375" y="886.0625" type="curve" smooth="yes"/>
      <point x="247.14583333333334" y="886.0625"/>
      <point x="194.91666666666666" y="959.0416666666666"/>
      <point x="194.91666666666666" y="1083.75" type="curve" smooth="yes"/>
      <point x="194.91666666666666" y="1213.75"/>
      <point x="248.95833333333334" y="1276.9791666666667"/>
    </contour>
    <contour>
      <point x="325.9375" y="1402.9166666666667" type="curve" smooth="yes"/>
      <point x="140.125" y="1402.9166666666667"/>
      <point x="32.1875" y="1258.0"/>
      <point x="32.1875" y="1083.75" type="curve" smooth="yes"/>
      <point x="32.1875" y="910.25"/>
      <point x="140.125" y="762.0625"/>
      <point x="325.9375" y="762.0625" type="curve" smooth="yes"/>
      <point x="511.0416666666667" y="762.0625"/>
      <point x="617.0416666666666" y="910.25"/>
      <point x="617.0416666666666" y="1083.75" type="curve" smooth="yes"/>
      <point x="617.0416666666666" y="1258.25"/>
      <point x="511.0416666666667" y="1402.9166666666667"/>
    </contour>
    <contour>
      <point x="877.9375" y="628.8541666666666" type="curve" smooth="yes"/>
      <point x="692.125" y="628.8541666666666"/>
      <point x="584.1875" y="483.9375"/>
      <point x="584.1875" y="309.0416666666667" type="curve" smooth="yes"/>
      <point x="584.1875" y="136.1875"/>
      <point x="692.125" y="-12.0"/>
      <point x="877.9375" y="-12.0" type="curve" smooth="yes"/>
      <point x="1063.0416666666667" y="-12.0"/>
      <point x="1169.0416666666667" y="136.1875"/>
      <point x="1169.0416666666667" y="309.0416666666667" type="curve" smooth="yes"/>
      <point x="1169.0416666666667" y="484.1875"/>
      <point x="1063.0416666666667" y="628.8541666666666"/>
    </contour>
  </outline>
</glyph>
<glyph name="ampersand" format="2">
  <advance width="1200.0"/>
  <unicode hex="0026"/>
  <outline>
    <contour>
      <point x="558.0" y="1400.9166666666667" type="curve" smooth="yes"/>
      <point x="323.8125" y="1400.9166666666667"/>
      <point x="174.0" y="1249.8125"/>
      <point x="174.0" y="1071.1458333333333" type="curve" smooth="yes"/>
      <point x="174.0" y="940.8541666666666"/>
      <point x="236.85416666666666" y="822.1875"/>
      <point x="413.875" y="780.1875" type="curve"/>
      <point x="413.875" y="774.125" type="line"/>
      <point x="214.25" y="732.0"/>
      <point x="102.125" y="598.9166666666666"/>
      <point x="102.125" y="390.1875" type="curve" smooth="yes"/>
      <point x="102.125" y="178.125"/>
      <point x="242.125" y="-24.958333333333336"/>
      <point x="554.25" y="-24.958333333333336" type="curve" smooth="yes"/>
      <point x="787.0833333333334" y="-24.958333333333336"/>
      <point x="913.875" y="80.125"/>
      <point x="976.8541666666666" y="159.08333333333334" type="curve"/>
      <point x="976.8541666666666" y="699.8125" type="line"/>
      <point x="1148.25" y="699.8125" type="line"/>
      <point x="1148.25" y="843.0416666666666" type="line"/>
      <point x="598.125" y="843.0416666666666" type="line" smooth="yes"/>
      <point x="463.875" y="843.0416666666666"/>
      <point x="361.75" y="945.875"/>
      <point x="361.75" y="1065.0833333333333" type="curve" smooth="yes"/>
      <point x="361.75" y="1179.8125"/>
      <point x="428.9583333333333" y="1260.1875"/>
      <point x="562.0625" y="1260.1875" type="curve" smooth="yes"/>
      <point x="659.0833333333334" y="1260.1875"/>
      <point x="721.8125" y="1225.1458333333333"/>
      <point x="788.9166666666666" y="1149.875" type="curve"/>
      <point x="901.1458333333334" y="1251.0208333333333" type="line"/>
      <point x="790.8541666666666" y="1370.25"/>
      <point x="684.1875" y="1400.9166666666667"/>
    </contour>
    <contour>
      <point x="801.75" y="699.8125" type="line"/>
      <point x="801.75" y="223.875" type="line"/>
      <point x="751.0208333333334" y="161.8125"/>
      <point x="665.0833333333334" y="126.25"/>
      <point x="560.9166666666666" y="126.25" type="curve" smooth="yes"/>
      <point x="370.9166666666667" y="126.25"/>
      <point x="290.0" y="256.0"/>
      <point x="290.0" y="398.9791666666667" type="curve" smooth="yes"/>
      <point x="290.0" y="538.1875"/>
      <point x="374.9166666666667" y="699.8125"/>
      <point x="574.9583333333334" y="699.8125" type="curve" smooth="yes"/>
    </contour>
  </outline>
</glyph>
<glyph name="parenleft" format="2">
  <advance width="1200.0"/>
  <unicode hex="0028"/>
  <outline>
    <contour>
      <point x="440.9166666666667" y="700.0" type="curve" smooth="yes"/>
      <point x="440.9166666666667" y="1104.9166666666667"/>
      <point x="575.8125" y="1319.9375"/>
      <point x="860.9583333333334" y="1581.9375" type="curve"/>
      <point x="757.0416666666666" y="1685.9375" type="line"/>
      <point x="433.9375" y="1419.75"/>
      <point x="241.04166666666666" y="1152.8541666666667"/>
      <point x="241.04166666666666" y="700.0" type="curve" smooth="yes"/>
      <point x="241.04166666666666" y="247.14583333333334"/>
      <point x="433.9375" y="-19.75"/>
      <point x="757.0416666666666" y="-285.9375" type="curve"/>
      <point x="860.9583333333334" y="-181.9375" type="line"/>
      <point x="574.25" y="80.97916666666667"/>
      <point x="440.9166666666667" y="297.0208333333333"/>
    </contour>
  </outline>
</glyph>
<glyph name="parenright" format="2">
  <advance width="1200.0"/>
  <unicode hex="0029"/>
  <outline>
    <contour>
      <point x="759.0833333333334" y="700.0" type="curve" smooth="yes"/>
      <point x="759.0833333333334" y="297.0208333333333"/>
      <point x="625.75" y="80.97916666666667"/>
      <point x="339.0416666666667" y="-181.9375" type="curve"/>
      <point x="442.9583333333333" y="-285.9375" type="line"/>
      <point x="766.0625" y="-19.75"/>
      <point x="958.9583333333334" y="247.14583333333334"/>
      <point x="958.9583333333334" y="700.0" type="curve" smooth="yes"/>
      <point x="958.9583333333334" y="1152.8541666666667"/>
      <point x="766.0625" y="1419.75"/>
      <point x="442.9583333333333" y="1685.9375" type="curve"/>
      <point x="339.0416666666667" y="1581.9375" type="line"/>
      <point x="624.1875" y="1319.9375"/>
      <point x="759.0833333333334" y="1104.9166666666667"/>
    </contour>
  </outline>
</glyph>
<glyph name="asterisk" format="2">
  <advance width="1200.0"/>
  <unicode hex="002A"/>
  <outline>
    <contour>
      <point x="504.25" y="1161.75" type="line"/>
      <point x="695.75" y="1161.75" type="line"/>
      <point x="677.9375" y="760.8541666666666" type="line"/>
      <point x="1052.0" y="900.125" type="line"/>
      <point x="1110.125" y="721.0416666666666" type="line"/>
      <point x="724.8541666666666" y="613.75" type="line"/>
      <point x="973.75" y="299.8125" type="line"/>
      <point x="821.875" y="189.75" type="line"/>
      <point x="600.0" y="522.9166666666666" type="line"/>
      <point x="378.125" y="189.75" type="line"/>
      <point x="226.25" y="299.8125" type="line"/>
      <point x="475.1458333333333" y="613.75" type="line"/>
      <point x="89.875" y="721.0416666666666" type="line"/>
      <point x="148.0" y="900.125" type="line"/>
      <point x="522.0625" y="760.8541666666666" type="line"/>
    </contour>
  </outline>
</glyph>
<glyph name="plus" format="2">
  <advance width="1200.0"/>
  <unicode hex="002B"/>
  <outline>
    <contour>
      <point x="685.1458333333334" y="1101.8125" type="line"/>
      <point x="510.9166666666667" y="1101.8125" type="line"/>
      <point x="510.9166666666667" y="701.1458333333334" type="line"/>
      <point x="120.25" y="701.1458333333334" type="line"/>
      <point x="120.25" y="543.0416666666666" type="line"/>
      <point x="510.9166666666667" y="543.0416666666666" type="line"/>
      <point x="510.9166666666667" y="144.95833333333334" type="line"/>
      <point x="685.1458333333334" y="144.95833333333334" type="line"/>
      <point x="685.1458333333334" y="543.0416666666666" type="line"/>
      <point x="1079.75" y="543.0416666666666" type="line"/>
      <point x="1079.75" y="701.1458333333334" type="line"/>
      <point x="685.1458333333334" y="701.1458333333334" type="line"/>
    </contour>
  </outline>
</glyph>
<glyph name="comma" format="2">
  <advance width="1200.0"/>
  <unicode hex="002C"/>
  <outline>
    <contour>
      <point x="600.0" y="342.25" type="curve" smooth="yes"/>
      <point x="504.125" y="342.25"/>
      <point x="431.1458333333333" y="266.9791666666667"/>
      <point x="431.1458333333333" y="173.75" type="curve" smooth="yes"/>
      <point x="431.1458333333333" y="116.1875"/>
      <point x="457.0416666666667" y="63.75"/>
      <point x="500.9583333333333" y="32.854166666666664" type="curve"/>
      <point x="404.125" y="-366.9583333333333" type="line"/>
      <point x="565.0416666666666" y="-366.9583333333333" type="line"/>
      <point x="724.25" y="-3.1458333333333357" type="line" smooth="yes"/>
      <point x="758.0" y="71.02083333333333"/>
      <point x="770.8541666666666" y="119.875"/>
      <point x="770.8541666666666" y="173.04166666666666" type="curve" smooth="yes"/>
      <point x="770.8541666666666" y="266.9791666666667"/>
      <point x="697.875" y="342.25"/>
    </contour>
  </outline>
</glyph>
<glyph name="slash" format="2">
  <advance width="1200.0"/>
  <unicode hex="002F"/>
  <outline>
    <contour>
      <point x="251.04166666666666" y="-209.14583333333334" type="line"/>
      <point x="1102.9583333333333" y="1548.125" type="line"/>
      <point x="950.9583333333334" y="1621.0833333333333" type="line"/>
      <point x="97.04166666666666" y="-140.0625" type="line"/>
    </contour>
  </outline>
</glyph>
<glyph name="zero" format="2">
  <advance width="1200.0"/>
  <unicode hex="0030"/>
  <outline>
    <contour>
      <point x="600.0" y="1402.9166666666667" type="curve" smooth="yes"/>
      <point x="298.0" y="1402.9166666666667"/>
      <point x="140.97916666666666" y="1146.1875"/>
      <point x="140.97916666666666" y="690.1875" type="curve" smooth="yes"/>
      <point x="140.97916666666666" y="232.1875"/>
      <point x="298.0" y="-24.958333333333336"/>
      <point x="600.0" y="-24.958333333333336" type="curve" smooth="yes"/>
      <point x="901.9375" y="-24.958333333333336"/>
      <point x="1059.0208333333333" y="232.1875"/>
      <point x="1059.0208333333333" y="690.1875" type="curve" smooth="yes"/>
      <point x="1059.0208333333333" y="1146.1875"/>
      <point x="901.9375" y="1402.9166666666667"/>
    </contour>
    <contour>
      <point x="600.0" y="1252.0625" type="curve" smooth="yes"/>
      <point x="786.0625" y="1252.0625"/>
      <point x="862.0625" y="1102.0625"/>
      <point x="862.0625" y="690.1875" type="curve" smooth="yes"/>
      <point x="862.0625" y="288.1875"/>
      <point x="766.1875" y="126.1875"/>
      <point x="600.0" y="126.1875" type="curve" smooth="yes"/>
      <point x="415.8125" y="126.1875"/>
      <point x="337.875" y="276.125"/>
      <point x="337.875" y="690.1875" type="curve" smooth="yes"/>
      <point x="337.875" y="1089.875"/>
      <point x="435.75" y="1252.0625"/>
    </contour>
    <contour>
      <point x="795.75" y="1204.1875" type="line"/>
      <point x="351.8125" y="307.1458333333333" type="line"/>
      <point x="418.9166666666667" y="185.8125" type="line"/>
      <point x="845.75" y="1053.1458333333333" type="line"/>
    </contour>
  </outline>
</glyph>
<glyph name="one" format="2">
  <advance width="1200.0"/>
  <unicode hex="0031"/>
  <outline>
    <contour>
      <point x="762.9166666666666" y="1378.25" type="line"/>
      <point x="594.0" y="1378.25" type="line"/>
      <point x="178.0" y="1121.75" type="line"/>
      <point x="260.9791666666667" y="986.125" type="line"/>
      <point x="571.8125" y="1175.75" type="line"/>
      <point x="571.8125" y="40.0" type="line"/>
      <point x="762.9166666666666" y="40.0" type="line"/>
    </contour>
    <contour>
      <point x="1045.8125" y="153.75" type="line"/>
      <point x="233.9375" y="153.75" type="line"/>
      <point x="233.9375" y="0.0" type="line"/>
      <point x="1045.8125" y="0.0" type="line"/>
    </contour>
  </outline>
</glyph>
<glyph name="two" format="2">
  <advance width="1200.0"/>
  <unicode hex="0032"/>
  <outline>
    <contour>
      <point x="541.0208333333334" y="1402.9166666666667" type="curve" smooth="yes"/>
      <point x="349.0208333333333" y="1402.9166666666667"/>
      <point x="219.8125" y="1333.8125"/>
      <point x="111.9375" y="1198.8541666666667" type="curve"/>
      <point x="240.0625" y="1100.0" type="line"/>
      <point x="324.9791666666667" y="1201.875"/>
      <point x="398.9166666666667" y="1245.8125"/>
      <point x="529.75" y="1245.8125" type="curve" smooth="yes"/>
      <point x="677.8125" y="1245.8125"/>
      <point x="766.125" y="1155.1458333333333"/>
      <point x="766.125" y="1006.9791666666666" type="curve" smooth="yes"/>
      <point x="766.125" y="792.25"/>
      <point x="648.25" y="639.8125"/>
      <point x="139.9375" y="151.02083333333334" type="curve"/>
      <point x="139.9375" y="0.0" type="line"/>
      <point x="975.0416666666666" y="0.0" type="line"/>
      <point x="998.0625" y="158.97916666666669" type="line"/>
      <point x="358.9166666666667" y="158.97916666666669" type="line"/>
      <point x="807.0416666666666" y="566.9791666666666"/>
      <point x="966.0625" y="768.0"/>
      <point x="966.0625" y="1016.25" type="curve" smooth="yes"/>
      <point x="966.0625" y="1234.0625"/>
      <point x="809.875" y="1402.9166666666667"/>
    </contour>
  </outline>
</glyph>
<glyph name="three" format="2">
  <advance width="1200.0"/>
  <unicode hex="0033"/>
  <outline>
    <contour>
      <point x="538.1875" y="1402.9166666666667" type="curve" smooth="yes"/>
      <point x="389.8125" y="1402.9166666666667"/>
      <point x="252.1875" y="1352.125"/>
      <point x="133.9375" y="1239.8125" type="curve"/>
      <point x="237.8125" y="1126.0625" type="line"/>
      <point x="327.1458333333333" y="1209.75"/>
      <point x="408.9791666666667" y="1251.875"/>
      <point x="527.0833333333334" y="1251.875" type="curve" smooth="yes"/>
      <point x="667.0416666666666" y="1251.875"/>
      <point x="777.8125" y="1173.0208333333333"/>
      <point x="777.8125" y="1028.9791666666667" type="curve" smooth="yes"/>
      <point x="777.8125" y="871.8125"/>
      <point x="655.9375" y="798.25"/>
      <point x="524.25" y="798.25" type="curve" smooth="yes"/>
      <point x="442.0" y="798.25" type="line"/>
      <point x="418.9166666666667" y="651.9375" type="line"/>
      <point x="535.875" y="651.9375" type="line" smooth="yes"/>
      <point x="697.1458333333334" y="651.9375"/>
      <point x="812.8541666666666" y="588.0625"/>
      <point x="812.8541666666666" y="399.0833333333333" type="curve" smooth="yes"/>
      <point x="812.8541666666666" y="232.85416666666666"/>
      <point x="702.0" y="131.14583333333334"/>
      <point x="519.1458333333334" y="131.14583333333334" type="curve" smooth="yes"/>
      <point x="406.9166666666667" y="131.14583333333334"/>
      <point x="294.0" y="175.02083333333334"/>
      <point x="215.9375" y="267.0208333333333" type="curve"/>
      <point x="92.1875" y="163.02083333333334" type="line"/>
      <point x="199.14583333333334" y="34.25"/>
      <point x="362.8541666666667" y="-24.958333333333336"/>
      <point x="525.9375" y="-24.958333333333336" type="curve" smooth="yes"/>
      <point x="818.25" y="-24.958333333333336"/>
      <point x="1012.8541666666666" y="157.9375"/>
      <point x="1012.8541666666666" y="395.8125" type="curve" smooth="yes"/>
      <point x="1012.8541666666666" y="610.125"/>
      <point x="863.9375" y="718.9791666666666"/>
      <point x="698.125" y="734.0" type="curve"/>
      <point x="847.8125" y="764.9166666666666"/>
      <point x="968.8541666666666" y="888.0625"/>
      <point x="968.8541666666666" y="1056.9583333333333" type="curve" smooth="yes"/>
      <point x="968.8541666666666" y="1245.1458333333333"/>
      <point x="804.25" y="1402.9166666666667"/>
    </contour>
  </outline>
</glyph>
<glyph name="four" format="2">
  <advance width="1200.0"/>
  <unicode hex="0034"/>
  <outline>
    <contour>
      <point x="536.0" y="1402.9166666666667" type="line"/>
      <point x="134.85416666666666" y="464.1875" type="line"/>
      <point x="134.85416666666666" y="327.8125" type="line"/>
      <point x="1065.0208333333333" y="327.8125" type="line"/>
      <point x="1065.0208333333333" y="478.9166666666667" type="line"/>
      <point x="336.8541666666667" y="478.9166666666667" type="line"/>
      <point x="697.1458333333334" y="1336.8541666666667" type="line"/>
    </contour>
    <contour>
      <point x="893.0833333333334" y="860.0625" type="line"/>
      <point x="732.6458333333334" y="860.0625" type="line"/>
      <point x="706.8541666666666" y="446.9166666666667" type="line"/>
      <point x="708.2708333333334" y="0.0" type="line"/>
      <point x="893.0833333333334" y="0.0" type="line"/>
    </contour>
  </outline>
</glyph>
<glyph name="five" format="2">
  <advance width="1200.0"/>
  <unicode hex="0035"/>
  <outline>
    <contour>
      <point x="982.8541666666666" y="1378.25" type="line"/>
      <point x="235.08333333333334" y="1378.25" type="line"/>
      <point x="235.08333333333334" y="681.0416666666666" type="line"/>
      <point x="382.8541666666667" y="681.0416666666666" type="line"/>
      <point x="460.0" y="711.8125"/>
      <point x="514.125" y="727.0416666666666"/>
      <point x="590.9583333333334" y="727.0416666666666" type="curve" smooth="yes"/>
      <point x="724.9166666666666" y="727.0416666666666"/>
      <point x="828.9791666666666" y="655.875"/>
      <point x="828.9791666666666" y="442.25" type="curve" smooth="yes"/>
      <point x="828.9791666666666" y="240.125"/>
      <point x="723.9375" y="131.14583333333334"/>
      <point x="547.875" y="131.14583333333334" type="curve" smooth="yes"/>
      <point x="433.1458333333333" y="131.14583333333334"/>
      <point x="338.9166666666667" y="172.91666666666669"/>
      <point x="258.0625" y="258.9166666666667" type="curve"/>
      <point x="141.9375" y="147.8125" type="line"/>
      <point x="247.8125" y="40.25"/>
      <point x="378.9791666666667" y="-24.958333333333336"/>
      <point x="550.9166666666666" y="-24.958333333333336" type="curve" smooth="yes"/>
      <point x="841.0416666666666" y="-24.958333333333336"/>
      <point x="1029.0416666666667" y="163.02083333333334"/>
      <point x="1029.0416666666667" y="438.8541666666667" type="curve" smooth="yes"/>
      <point x="1029.0416666666667" y="714.9791666666666"/>
      <point x="874.0625" y="874.0"/>
      <point x="651.0208333333334" y="874.0" type="curve" smooth="yes"/>
      <point x="571.9375" y="874.0"/>
      <point x="499.8125" y="860.0625"/>
      <point x="418.25" y="817.0833333333334" type="curve"/>
      <point x="418.25" y="1229.75" type="line"/>
      <point x="956.25" y="1229.75" type="line"/>
    </contour>
  </outline>
</glyph>
<glyph name="six" format="2">
  <advance width="1200.0"/>
  <unicode hex="0036"/>
  <outline>
    <contour>
      <point x="675.8125" y="1402.9166666666667" type="curve"/>
      <point x="345.0833333333333" y="1402.9166666666667"/>
      <point x="149.08333333333334" y="1104.9791666666667"/>
      <point x="149.08333333333334" y="647.0208333333334" type="curve" smooth="yes"/>
      <point x="149.08333333333334" y="245.75"/>
      <point x="276.125" y="-24.958333333333336"/>
      <point x="616.0" y="-24.958333333333336" type="curve" smooth="yes"/>
      <point x="865.0416666666666" y="-24.958333333333336"/>
      <point x="1058.9166666666667" y="163.875"/>
      <point x="1058.9166666666667" y="464.1875" type="curve" smooth="yes"/>
      <point x="1058.9166666666667" y="758.1875"/>
      <point x="881.75" y="901.875"/>
      <point x="668.9791666666666" y="901.875" type="curve"/>
      <point x="528.9791666666666" y="901.875"/>
      <point x="412.8541666666667" y="840.9583333333334"/>
      <point x="322.9791666666667" y="694.9791666666666" type="curve"/>
      <point x="326.9166666666667" y="538.25" type="line"/>
      <point x="393.0833333333333" y="663.9375"/>
      <point x="499.75" y="751.0416666666666"/>
      <point x="634.125" y="751.0416666666666" type="curve"/>
      <point x="771.8125" y="751.0416666666666"/>
      <point x="863.0416666666666" y="677.8125"/>
      <point x="863.0416666666666" y="457.8125" type="curve" smooth="yes"/>
      <point x="863.0416666666666" y="255.04166666666666"/>
      <point x="780.9791666666666" y="126.125"/>
      <point x="616.125" y="126.125" type="curve" smooth="yes"/>
      <point x="420.9166666666667" y="126.125"/>
      <point x="344.9791666666667" y="278.1875"/>
      <point x="345.0416666666667" y="613.1458333333334" type="curve"/>
      <point x="343.0416666666667" y="683.0208333333334" type="line"/>
      <point x="341.875" y="1030.9583333333333"/>
      <point x="463.0416666666667" y="1252.1875"/>
      <point x="674.0625" y="1252.1875" type="curve"/>
      <point x="746.9166666666666" y="1252.1875"/>
      <point x="817.0208333333334" y="1232.25"/>
      <point x="878.125" y="1194.25" type="curve"/>
      <point x="952.9166666666666" y="1321.0208333333333" type="line"/>
      <point x="874.9166666666666" y="1373.0833333333333"/>
      <point x="784.25" y="1402.9166666666667"/>
    </contour>
  </outline>
</glyph>
<glyph name="seven" format="2">
  <advance width="1200.0"/>
  <unicode hex="0037"/>
  <outline>
    <contour>
      <point x="471.8125" y="-21.020833333333336" type="line"/>
      <point x="1019.1458333333334" y="1235.9375" type="line"/>
      <point x="1019.1458333333334" y="1378.25" type="line"/>
      <point x="185.08333333333334" y="1378.25" type="line"/>
      <point x="185.08333333333334" y="1222.9166666666667" type="line"/>
      <point x="825.0833333333334" y="1222.9166666666667" type="line"/>
      <point x="291.9375" y="33.875" type="line"/>
    </contour>
  </outline>
</glyph>
<glyph name="eight" format="2">
  <advance width="1200.0"/>
  <unicode hex="0038"/>
  <outline>
    <contour>
      <point x="1020.9583333333334" y="1050.125" type="curve" smooth="yes"/>
      <point x="1020.9583333333334" y="1290.9791666666667"/>
      <point x="811.9375" y="1402.9166666666667"/>
      <point x="600.0625" y="1402.9166666666667" type="curve" smooth="yes"/>
      <point x="405.8125" y="1402.9166666666667"/>
      <point x="179.04166666666666" y="1288.8541666666667"/>
      <point x="179.04166666666666" y="1039.9375" type="curve" smooth="yes"/>
      <point x="179.04166666666666" y="885.9375"/>
      <point x="250.95833333333334" y="796.25"/>
      <point x="396.1875" y="723.0416666666666" type="curve"/>
      <point x="231.14583333333334" y="647.9375"/>
      <point x="123.75" y="533.75"/>
      <point x="123.75" y="366.0625" type="curve" smooth="yes"/>
      <point x="123.75" y="148.1875"/>
      <point x="293.75" y="-24.958333333333336"/>
      <point x="595.9375" y="-24.958333333333336" type="curve" smooth="yes"/>
      <point x="895.0833333333334" y="-24.958333333333336"/>
      <point x="1076.25" y="147.14583333333334"/>
      <point x="1076.25" y="370.1875" type="curve" smooth="yes"/>
      <point x="1076.25" y="537.8125"/>
      <point x="966.125" y="663.875"/>
      <point x="785.9375" y="741.0833333333334" type="curve"/>
      <point x="937.8125" y="825.0833333333334"/>
      <point x="1020.9583333333334" y="916.25"/>
    </contour>
    <contour>
      <point x="877.1458333333334" y="368.9583333333333" type="curve" smooth="yes"/>
      <point x="877.1458333333334" y="230.85416666666666"/>
      <point x="779.0416666666666" y="126.125"/>
      <point x="596.1875" y="126.125" type="curve" smooth="yes"/>
      <point x="415.0416666666667" y="126.125"/>
      <point x="322.8541666666667" y="219.04166666666666"/>
      <point x="322.8541666666667" y="368.9166666666667" type="curve" smooth="yes"/>
      <point x="322.8541666666667" y="531.875"/>
      <point x="416.1875" y="617.0416666666666"/>
      <point x="524.9583333333334" y="669.0416666666666" type="curve"/>
      <point x="737.1458333333334" y="595.9375"/>
      <point x="877.1458333333334" y="546.0"/>
    </contour>
    <contour>
      <point x="367.0208333333333" y="1038.0" type="curve" smooth="yes"/>
      <point x="367.0208333333333" y="1178.0625"/>
      <point x="453.1458333333333" y="1258.9583333333333"/>
      <point x="600.0625" y="1258.9583333333333" type="curve" smooth="yes"/>
      <point x="748.9791666666666" y="1258.9583333333333"/>
      <point x="832.9791666666666" y="1173.75"/>
      <point x="832.9791666666666" y="1041.8125" type="curve" smooth="yes"/>
      <point x="832.9791666666666" y="924.125"/>
      <point x="774.9791666666666" y="860.1875"/>
      <point x="652.9791666666666" y="789.0208333333334" type="curve"/>
      <point x="473.9375" y="848.125"/>
      <point x="367.0208333333333" y="888.9791666666666"/>
    </contour>
  </outline>
</glyph>
<glyph name="nine" format="2">
  <advance width="1200.0"/>
  <unicode hex="0039"/>
  <outline>
    <contour>
      <point x="581.0208333333334" y="1400.9791666666667" type="curve" smooth="yes"/>
      <point x="326.9583333333333" y="1400.9791666666667"/>
      <point x="125.75" y="1236.8541666666667"/>
      <point x="125.75" y="941.0833333333334" type="curve"/>
      <point x="125.75" y="666.9166666666666"/>
      <point x="292.0" y="500.9583333333333"/>
      <point x="519.0416666666666" y="500.9583333333333" type="curve" smooth="yes"/>
      <point x="672.25" y="500.9583333333333"/>
      <point x="781.8125" y="580.9791666666666"/>
      <point x="866.5416666666666" y="695.8333333333334" type="curve"/>
      <point x="867.9583333333334" y="847.3541666666666" type="line"/>
      <point x="780.9791666666666" y="724.8541666666666"/>
      <point x="690.9583333333334" y="648.9791666666666"/>
      <point x="560.8541666666666" y="648.9791666666666" type="curve" smooth="yes"/>
      <point x="414.1875" y="648.9791666666666"/>
      <point x="322.9791666666667" y="733.875"/>
      <point x="322.9791666666667" y="937.8125" type="curve"/>
      <point x="322.9791666666667" y="1144.0"/>
      <point x="412.0625" y="1250.25"/>
      <point x="580.9583333333334" y="1250.25" type="curve" smooth="yes"/>
      <point x="764.625" y="1250.25"/>
      <point x="842.0" y="1121.8125"/>
      <point x="840.5833333333334" y="785.8333333333334" type="curve"/>
      <point x="838.0" y="688.5208333333334" type="line"/>
      <point x="822.0625" y="357.6041666666667"/>
      <point x="630.0208333333334" y="204.20833333333334"/>
      <point x="244.95833333333334" y="98.0625" type="curve"/>
      <point x="288.0" y="-45.145833333333336" type="line"/>
      <point x="813.8125" y="93.29166666666666"/>
      <point x="1040.0" y="286.9166666666667"/>
      <point x="1040.0" y="839.5833333333334" type="curve" smooth="yes"/>
      <point x="1040.0" y="1182.4375"/>
      <point x="887.0833333333334" y="1400.9791666666667"/>
    </contour>
  </outline>
</glyph>
<glyph name="colon" format="2">
  <advance width="1200.0"/>
  <unicode hex="003A"/>
  <outline>
    <contour>
      <point x="429.0416666666667" y="146.0" type="curve" smooth="yes"/>
      <point x="429.0416666666667" y="51.020833333333336"/>
      <point x="503.0208333333333" y="-24.958333333333336"/>
      <point x="598.0625" y="-24.958333333333336" type="curve" smooth="yes"/>
      <point x="695.0416666666666" y="-24.958333333333336"/>
      <point x="768.9583333333334" y="51.020833333333336"/>
      <point x="768.9583333333334" y="146.0" type="curve" smooth="yes"/>
      <point x="768.9583333333334" y="237.04166666666666"/>
      <point x="695.0416666666666" y="314.25"/>
      <point x="598.0625" y="314.25" type="curve" smooth="yes"/>
      <point x="503.0208333333333" y="314.25"/>
      <point x="429.0416666666667" y="237.04166666666666"/>
    </contour>
    <contour>
      <point x="429.0416666666667" y="862.1875" type="curve" smooth="yes"/>
      <point x="429.0416666666667" y="768.8541666666666"/>
      <point x="503.0208333333333" y="691.9375"/>
      <point x="598.0625" y="691.9375" type="curve" smooth="yes"/>
      <point x="695.0416666666666" y="691.9375"/>
      <point x="768.9583333333334" y="768.8541666666666"/>
      <point x="768.9583333333334" y="862.1875" type="curve" smooth="yes"/>
      <point x="768.9583333333334" y="955.8125"/>
      <point x="695.0416666666666" y="1030.8541666666667"/>
      <point x="598.0625" y="1030.8541666666667" type="curve" smooth="yes"/>
      <point x="503.0208333333333" y="1030.8541666666667"/>
      <point x="429.0416666666667" y="955.8125"/>
    </contour>
  </outline>
</glyph>
<glyph name="semicolon" format="2">
  <advance width="1200.0"/>
  <unicode hex="003B"/>
  <outline>
    <contour>
      <point x="598.0625" y="341.0416666666667" type="curve" smooth="yes"/>
      <point x="502.9583333333333" y="341.0416666666667"/>
      <point x="429.0416666666667" y="266.25"/>
      <point x="429.0416666666667" y="173.14583333333334" type="curve" smooth="yes"/>
      <point x="429.0416666666667" y="115.9375"/>
      <point x="455.9375" y="62.979166666666664"/>
      <point x="499.0833333333333" y="33.08333333333333" type="curve"/>
      <point x="403.0208333333333" y="-365.9375" type="line"/>
      <point x="563.75" y="-365.9375" type="line"/>
      <point x="722.125" y="-3.1458333333333357" type="line" smooth="yes"/>
      <point x="755.75" y="70.125"/>
      <point x="768.9583333333334" y="119.75"/>
      <point x="768.9583333333334" y="173.08333333333334" type="curve" smooth="yes"/>
      <point x="768.9583333333334" y="266.25"/>
      <point x="695.75" y="341.0416666666667"/>
    </contour>
    <contour>
      <point x="598.0625" y="1030.8541666666667" type="curve" smooth="yes"/>
      <point x="503.0208333333333" y="1030.8541666666667"/>
      <point x="429.0416666666667" y="955.8125"/>
      <point x="429.0416666666667" y="862.1875" type="curve" smooth="yes"/>
      <point x="429.0416666666667" y="768.8541666666666"/>
      <point x="503.0208333333333" y="691.9375"/>
      <point x="598.0625" y="691.9375" type="curve" smooth="yes"/>
      <point x="695.0416666666666" y="691.9375"/>
      <point x="768.9583333333334" y="768.8541666666666"/>
      <point x="768.9583333333334" y="862.1875" type="curve" smooth="yes"/>
      <point x="768.9583333333334" y="955.8125"/>
      <point x="695.0416666666666" y="1030.8541666666667"/>
    </contour>
  </outline>
</glyph>
<glyph name="less" format="2">
  <advance width="1200.0"/>
  <unicode hex="003C"/>
  <outline>
    <contour>
      <point x="941.0833333333334" y="1194.0" type="line"/>
      <point x="170.0" y="717.0416666666666" type="line"/>
      <point x="170.0" y="536.9583333333334" type="line"/>
      <point x="932.8541666666666" y="60.0625" type="line"/>
      <point x="1031.9375" y="199.8125" type="line"/>
      <point x="335.1458333333333" y="626.0625" type="line"/>
      <point x="1031.9375" y="1050.9166666666667" type="line"/>
    </contour>
  </outline>
</glyph>
<glyph name="equal" format="2">
  <advance width="1200.0"/>
  <unicode hex="003D"/>
  <outline>
    <contour>
      <point x="999.75" y="895.9375" type="line"/>
      <point x="200.25" y="895.9375" type="line"/>
      <point x="200.25" y="734.1875" type="line"/>
      <point x="999.75" y="734.1875" type="line"/>
    </contour>
    <contour>
      <point x="999.75" y="509.8125" type="line"/>
      <point x="200.25" y="509.8125" type="line"/>
      <point x="200.25" y="348.125" type="line"/>
      <point x="999.75" y="348.125" type="line"/>
    </contour>
  </outline>
</glyph>
<glyph name="greater" format="2">
  <advance width="1200.0"/>
  <unicode hex="003E"/>
  <outline>
    <contour>
      <point x="260.9166666666667" y="1194.0" type="line"/>
      <point x="170.0" y="1050.9583333333333" type="line"/>
      <point x="867.1458333333334" y="626.0625" type="line"/>
      <point x="170.0" y="198.85416666666666" type="line"/>
      <point x="269.0833333333333" y="60.0625" type="line"/>
      <point x="1031.9375" y="536.9583333333334" type="line"/>
      <point x="1031.9375" y="717.75" type="line"/>
    </contour>
  </outline>
</glyph>
<glyph name="question" format="2">
  <advance width="1200.0"/>
  <unicode hex="003F"/>
  <outline>
    <contour>
      <point x="597.8125" y="1402.9166666666667" type="curve" smooth="yes"/>
      <point x="428.8541666666667" y="1402.9166666666667"/>
      <point x="284.125" y="1338.0625"/>
      <point x="168.1875" y="1202.125" type="curve"/>
      <point x="301.0208333333333" y="1102.9583333333333" type="line"/>
      <point x="382.0625" y="1201.75"/>
      <point x="484.9166666666667" y="1244.9791666666667"/>
      <point x="579.1458333333334" y="1244.9791666666667" type="curve" smooth="yes"/>
      <point x="707.0208333333334" y="1244.9791666666667"/>
      <point x="803.0833333333334" y="1184.9583333333333"/>
      <point x="803.0833333333334" y="1077.0833333333333" type="curve" smooth="yes"/>
      <point x="803.0833333333334" y="867.1666666666666"/>
      <point x="452.0625" y="864.9583333333334"/>
      <point x="452.0625" y="537.75" type="curve" smooth="yes"/>
      <point x="452.0625" y="462.8541666666667" type="line"/>
      <point x="640.9583333333334" y="462.8541666666667" type="line"/>
      <point x="640.9583333333334" y="527.75" type="line" smooth="yes"/>
      <point x="640.9583333333334" y="797.9166666666666"/>
      <point x="1002.9166666666666" y="769.75"/>
      <point x="1002.9166666666666" y="1089.875" type="curve" smooth="yes"/>
      <point x="1002.9166666666666" y="1251.0833333333333"/>
      <point x="853.0833333333334" y="1402.9166666666667"/>
    </contour>
    <contour>
      <point x="550.9791666666666" y="258.25" type="curve" smooth="yes"/>
      <point x="471.9375" y="258.25"/>
      <point x="411.0208333333333" y="194.97916666666666"/>
      <point x="411.0208333333333" y="117.9375" type="curve" smooth="yes"/>
      <point x="411.0208333333333" y="38.958333333333336"/>
      <point x="471.9375" y="-24.958333333333336"/>
      <point x="550.9791666666666" y="-24.958333333333336" type="curve" smooth="yes"/>
      <point x="632.25" y="-24.958333333333336"/>
      <point x="693.875" y="38.958333333333336"/>
      <point x="693.875" y="117.9375" type="curve" smooth="yes"/>
      <point x="693.875" y="194.97916666666666"/>
      <point x="632.25" y="258.25"/>
    </contour>
  </outline>
</glyph>
<glyph name="at" format="2">
  <advance width="1200.0"/>
  <unicode hex="0040"/>
  <outline>
    <contour>
      <point x="568.1875" y="1402.9166666666667" type="curve" smooth="yes"/>
      <point x="384.125" y="1402.9166666666667"/>
      <point x="195.14583333333334" y="1339.0208333333333"/>
      <point x="15.083333333333332" y="1182.25" type="curve"/>
      <point x="116.1875" y="1064.9583333333333" type="line"/>
      <point x="283.75" y="1211.875"/>
      <point x="435.0208333333333" y="1248.9583333333333"/>
      <point x="567.0416666666666" y="1248.9583333333333" type="curve" smooth="yes"/>
      <point x="927.0833333333334" y="1248.9583333333333"/>
      <point x="991.8125" y="956.1875"/>
      <point x="991.8125" y="568.1875" type="curve" smooth="yes"/>
      <point x="991.8125" y="214.95833333333334"/>
      <point x="990.9791666666666" y="-36.854166666666664"/>
      <point x="873.9375" y="-36.854166666666664" type="curve" smooth="yes"/>
      <point x="798.9166666666666" y="-36.854166666666664"/>
      <point x="742.9166666666666" y="10.916666666666668"/>
      <point x="742.9166666666666" y="215.75" type="curve" smooth="yes"/>
      <point x="742.9166666666666" y="808.0" type="line"/>
      <point x="630.9791666666666" y="868.0"/>
      <point x="547.1458333333334" y="885.0208333333334"/>
      <point x="452.125" y="885.0208333333334" type="curve" smooth="yes"/>
      <point x="197.9375" y="885.0208333333334"/>
      <point x="54.25" y="710.25"/>
      <point x="54.25" y="365.75" type="curve" smooth="yes"/>
      <point x="54.25" y="101.9375"/>
      <point x="138.95833333333334" y="-92.1875"/>
      <point x="359.8125" y="-92.1875" type="curve" smooth="yes"/>
      <point x="517.0208333333334" y="-92.1875"/>
      <point x="595.8125" y="7.020833333333332"/>
      <point x="634.0" y="100.91666666666667" type="curve"/>
      <point x="642.0" y="100.91666666666667" type="line"/>
      <point x="642.8541666666666" y="-5.8125"/>
      <point x="712.8541666666666" y="-182.1875"/>
      <point x="878.125" y="-182.1875" type="curve" smooth="yes"/>
      <point x="1120.8541666666667" y="-182.1875"/>
      <point x="1175.0416666666667" y="68.91666666666667"/>
      <point x="1175.0416666666667" y="572.9166666666666" type="curve" smooth="yes"/>
      <point x="1175.0416666666667" y="996.0625"/>
      <point x="1078.0625" y="1402.9166666666667"/>
    </contour>
    <contour>
      <point x="457.75" y="749.0208333333334" type="curve" smooth="yes"/>
      <point x="502.9583333333333" y="749.0208333333334"/>
      <point x="537.8125" y="741.0833333333334"/>
      <point x="577.0208333333334" y="720.9791666666666" type="curve"/>
      <point x="577.0208333333334" y="215.8125" type="line"/>
      <point x="555.75" y="157.04166666666666"/>
      <point x="517.1458333333334" y="45.75"/>
      <point x="385.8125" y="45.75" type="curve" smooth="yes"/>
      <point x="272.0625" y="45.75"/>
      <point x="237.14583333333334" y="172.125"/>
      <point x="237.14583333333334" y="365.75" type="curve" smooth="yes"/>
      <point x="237.14583333333334" y="623.0416666666666"/>
      <point x="287.8125" y="749.0208333333334"/>
    </contour>
  </outline>
</glyph>
<glyph name="A" format="2">
  <advance width="1200.0"/>
  <unicode hex="0041"/>
  <anchor x="596.0625" y="0.0" name="bottom"/>
  <anchor x="1095.0416666666667" y="0.0" name="ogonek"/>
  <anchor x="600.0" y="1378.25" name="top"/>
  <anchor x="390.0625" y="1378.25" name="topleft"/>
  <outline>
    <contour>
      <point x="856.1875" y="342.9166666666667" type="line"/>
      <point x="960.1875" y="0.0" type="line"/>
      <point x="1169.75" y="0.0" type="line"/>
      <point x="725.0833333333334" y="1378.25" type="line"/>
      <point x="474.9791666666667" y="1378.25" type="line"/>
      <point x="30.958333333333332" y="0.0" type="line"/>
      <point x="229.9375" y="0.0" type="line"/>
      <point x="333.9375" y="342.9166666666667" type="line"/>
    </contour>
    <contour>
      <point x="380.125" y="502.125" type="line"/>
      <point x="596.0" y="1217.8125" type="line"/>
      <point x="809.9375" y="502.125" type="line"/>
    </contour>
  </outline>
</glyph>
<glyph name="B" format="2">
  <advance width="1200.0"/>
  <unicode hex="0042"/>
  <anchor x="600.0" y="0.0" name="bottom"/>
  <anchor x="600.0" y="1378.25" name="top"/>
  <outline>
    <contour>
      <point x="880.8541666666666" y="391.875" type="curve" smooth="yes"/>
      <point x="880.8541666666666" y="196.95833333333334"/>
      <point x="721.9375" y="158.91666666666669"/>
      <point x="588.125" y="158.91666666666669" type="curve" smooth="yes"/>
      <point x="378.0" y="158.91666666666669" type="line"/>
      <point x="378.0" y="642.0625" type="line"/>
      <point x="596.9583333333334" y="642.0625" type="line" smooth="yes"/>
      <point x="753.0416666666666" y="642.0625"/>
      <point x="880.8541666666666" y="590.1875"/>
    </contour>
    <contour>
      <point x="826.9166666666666" y="1017.0833333333334" type="curve" smooth="yes"/>
      <point x="826.9166666666666" y="862.9166666666666"/>
      <point x="741.0833333333334" y="798.125"/>
      <point x="582.0" y="798.125" type="curve" smooth="yes"/>
      <point x="378.0" y="798.125" type="line"/>
      <point x="378.0" y="1223.75" type="line"/>
      <point x="566.1875" y="1223.75" type="line" smooth="yes"/>
      <point x="728.9166666666666" y="1223.75"/>
      <point x="826.9166666666666" y="1166.125"/>
    </contour>
    <contour>
      <point x="1089.0416666666667" y="395.0208333333333" type="curve" smooth="yes"/>
      <point x="1089.0416666666667" y="626.0625"/>
      <point x="924.9791666666666" y="704.1875"/>
      <point x="773.75" y="730.125" type="curve"/>
      <point x="905.875" y="760.25"/>
      <point x="1029.0416666666667" y="855.0208333333334"/>
      <point x="1029.0416666666667" y="1030.0625" type="curve" smooth="yes"/>
      <point x="1029.0416666666667" y="1300.0625"/>
      <point x="783.0416666666666" y="1378.25"/>
      <point x="534.8541666666666" y="1378.25" type="curve" smooth="yes"/>
      <point x="179.8125" y="1378.25" type="line"/>
      <point x="179.8125" y="0.0" type="line"/>
      <point x="564.25" y="0.0" type="line" smooth="yes"/>
      <point x="824.8541666666666" y="0.0"/>
      <point x="1089.0416666666667" y="91.8125"/>
    </contour>
  </outline>
</glyph>
<glyph name="C" format="2">
  <advance width="1200.0"/>
  <unicode hex="0043"/>
  <anchor x="700.125" y="0.0" name="bottom"/>
  <anchor x="729.75" y="1378.25" name="top"/>
  <outline>
    <contour>
      <point x="716.0" y="1402.9166666666667" type="curve" smooth="yes"/>
      <point x="389.0416666666667" y="1402.9166666666667"/>
      <point x="117.08333333333333" y="1154.1875"/>
      <point x="117.08333333333333" y="690.1875" type="curve" smooth="yes"/>
      <point x="117.08333333333333" y="225.8125"/>
      <point x="378.9166666666667" y="-24.958333333333336"/>
      <point x="721.0416666666666" y="-24.958333333333336" type="curve" smooth="yes"/>
      <point x="920.1875" y="-24.958333333333336"/>
      <point x="1054.9791666666667" y="46.125"/>
      <point x="1142.1875" y="131.04166666666666" type="curve"/>
      <point x="1042.9166666666667" y="257.75" type="line"/>
      <point x="969.1458333333334" y="197.04166666666669"/>
      <point x="877.0416666666666" y="140.85416666666669"/>
      <point x="726.125" y="140.85416666666669" type="curve" smooth="yes"/>
      <point x="499.0208333333333" y="140.85416666666669"/>
      <point x="323.0416666666667" y="292.25"/>
      <point x="323.0416666666667" y="690.1875" type="curve" smooth="yes"/>
      <point x="323.0416666666667" y="1098.0"/>
      <point x="510.25" y="1241.9375"/>
      <point x="727.875" y="1241.9375" type="curve" smooth="yes"/>
      <point x="833.9375" y="1241.9375"/>
      <point x="929.8125" y="1210.9791666666667"/>
      <point x="1014.8541666666666" y="1139.9375" type="curve"/>
      <point x="1122.25" y="1266.125" type="line"/>
      <point x="1012.0625" y="1355.0208333333333"/>
      <point x="898.8541666666666" y="1402.9166666666667"/>
    </contour>
  </outline>
</glyph>
<glyph name="D" format="2">
  <advance width="1200.0"/>
  <unicode hex="0044"/>
  <anchor x="600.0" y="0.0" name="bottom"/>
  <anchor x="600.0" y="690.125" name="center"/>
  <anchor x="568.1875" y="1378.25" name="top"/>
  <outline>
    <contour>
      <point x="902.0" y="696.125" type="curve" smooth="yes"/>
      <point x="902.0" y="254.91666666666669"/>
      <point x="698.8541666666666" y="154.97916666666669"/>
      <point x="503.9375" y="154.97916666666669" type="curve" smooth="yes"/>
      <point x="355.1458333333333" y="154.97916666666669" type="line"/>
      <point x="355.1458333333333" y="1220.9791666666667" type="line"/>
      <point x="502.0" y="1220.9791666666667" type="line" smooth="yes"/>
      <point x="688.9166666666666" y="1220.9791666666667"/>
      <point x="902.0" y="1158.25"/>
    </contour>
    <contour>
      <point x="1112.1875" y="696.125" type="curve" smooth="yes"/>
      <point x="1112.1875" y="1268.125"/>
      <point x="787.0416666666666" y="1378.25"/>
      <point x="459.8125" y="1378.25" type="curve" smooth="yes"/>
      <point x="156.95833333333334" y="1378.25" type="line"/>
      <point x="156.95833333333334" y="0.0" type="line"/>
      <point x="481.875" y="0.0" type="line" smooth="yes"/>
      <point x="777.1458333333334" y="0.0"/>
      <point x="1112.1875" y="121.14583333333333"/>
    </contour>
  </outline>
</glyph>
<glyph name="E" format="2">
  <advance width="1200.0"/>
  <unicode hex="0045"/>
  <anchor x="649.0416666666666" y="0.0" name="bottom"/>
  <anchor x="955.9375" y="0.0" name="ogonek"/>
  <anchor x="641.9375" y="1378.25" name="top"/>
  <anchor x="220.25" y="1378.25" name="topleft"/>
  <outline>
    <contour>
      <point x="439.0833333333333" y="1221.75" type="line"/>
      <point x="1020.25" y="1221.75" type="line"/>
      <point x="1042.9166666666667" y="1378.25" type="line"/>
      <point x="240.25" y="1378.25" type="line"/>
      <point x="240.25" y="0.0" type="line"/>
      <point x="1058.125" y="0.0" type="line"/>
      <point x="1058.125" y="154.91666666666669" type="line"/>
      <point x="439.0833333333333" y="154.91666666666669" type="line"/>
      <point x="439.0833333333333" y="621.9375" type="line"/>
      <point x="944.9166666666666" y="621.9375" type="line"/>
      <point x="944.9166666666666" y="778.9583333333334" type="line"/>
      <point x="439.0833333333333" y="778.9583333333334" type="line"/>
    </contour>
  </outline>
</glyph>
<glyph name="F" format="2">
  <advance width="1200.0"/>
  <unicode hex="0046"/>
  <anchor x="600.0" y="0.0" name="bottom"/>
  <anchor x="600.0" y="1378.25" name="top"/>
  <outline>
    <contour>
      <point x="464.9166666666667" y="1221.75" type="line"/>
      <point x="1071.0416666666667" y="1221.75" type="line"/>
      <point x="1094.0625" y="1378.25" type="line"/>
      <point x="267.0208333333333" y="1378.25" type="line"/>
      <point x="267.0208333333333" y="0.0" type="line"/>
      <point x="464.9166666666667" y="0.0" type="line"/>
      <point x="464.9166666666667" y="602.9583333333334" type="line"/>
      <point x="996.125" y="602.9583333333334" type="line"/>
      <point x="996.125" y="757.875" type="line"/>
      <point x="464.9166666666667" y="757.875" type="line"/>
    </contour>
  </outline>
</glyph>
<glyph name="G" format="2">
  <advance width="1200.0"/>
  <unicode hex="0047"/>
  <anchor x="659.8125" y="0.0" name="bottom"/>
  <anchor x="660.0" y="1378.25" name="top"/>
  <outline>
    <contour>
      <point x="630.9791666666666" y="-24.958333333333336" type="curve" smooth="yes"/>
      <point x="825.1458333333334" y="-24.958333333333336"/>
      <point x="960.1875" y="27.75"/>
      <point x="1086.9166666666667" y="98.25" type="curve"/>
      <point x="1086.9166666666667" y="760.125" type="line"/>
      <point x="614.1875" y="760.125" type="line"/>
      <point x="637.1458333333334" y="601.8125" type="line"/>
      <point x="891.875" y="601.8125" type="line"/>
      <point x="891.875" y="198.91666666666666" type="line"/>
      <point x="817.0416666666666" y="158.0625"/>
      <point x="735.1458333333334" y="136.25"/>
      <point x="644.9583333333334" y="136.25" type="curve" smooth="yes"/>
      <point x="413.8125" y="136.25"/>
      <point x="293.875" y="296.125"/>
      <point x="293.875" y="690.125" type="curve" smooth="yes"/>
      <point x="293.875" y="1102.0625"/>
      <point x="477.0208333333333" y="1242.0625"/>
      <point x="674.0" y="1242.0625" type="curve" smooth="yes"/>
      <point x="784.9166666666666" y="1242.0625"/>
      <point x="872.0625" y="1206.0625"/>
      <point x="956.0625" y="1128.1875" type="curve"/>
      <point x="1071.875" y="1248.0625" type="line"/>
      <point x="963.875" y="1348.125"/>
      <point x="854.1875" y="1402.9166666666667"/>
      <point x="670.9166666666666" y="1402.9166666666667" type="curve" smooth="yes"/>
      <point x="363.875" y="1402.9166666666667"/>
      <point x="83.75" y="1164.125"/>
      <point x="83.75" y="690.1875" type="curve" smooth="yes"/>
      <point x="83.75" y="214.1875"/>
      <point x="293.8125" y="-24.958333333333336"/>
    </contour>
  </outline>
</glyph>
<glyph name="H" format="2">
  <advance width="1200.0"/>
  <unicode hex="0048"/>
  <anchor x="600.0" y="0.0" name="bottom"/>
  <anchor x="1063.0416666666667" y="0.0" name="bottomright"/>
  <anchor x="600.0" y="690.125" name="center"/>
  <anchor x="600.0" y="1378.25" name="top"/>
  <anchor x="136.95833333333334" y="1378.25" name="topleft"/>
  <outline>
    <contour>
      <point x="844.8541666666666" y="0.0" type="line"/>
      <point x="1043.0416666666667" y="0.0" type="line"/>
      <point x="1043.0416666666667" y="1378.25" type="line"/>
      <point x="844.8541666666666" y="1378.25" type="line"/>
      <point x="844.8541666666666" y="804.9166666666666" type="line"/>
      <point x="355.1458333333333" y="804.9166666666666" type="line"/>
      <point x="355.1458333333333" y="1378.25" type="line"/>
      <point x="156.95833333333334" y="1378.25" type="line"/>
      <point x="156.95833333333334" y="0.0" type="line"/>
      <point x="355.1458333333333" y="0.0" type="line"/>
      <point x="355.1458333333333" y="642.125" type="line"/>
      <point x="844.8541666666666" y="642.125" type="line"/>
    </contour>
  </outline>
</glyph>
<glyph name="I" format="2">
  <advance width="1200.0"/>
  <unicode hex="0049"/>
  <anchor x="600.0" y="0.0" name="bottom"/>
  <anchor x="720.0625" y="0.0" name="ogonek"/>
  <anchor x="600.0" y="1378.25" name="top"/>
  <anchor x="177.14583333333334" y="1378.25" name="topleft"/>
  <outline>
    <contour>
      <point x="1002.8541666666666" y="1378.25" type="line"/>
      <point x="197.14583333333334" y="1378.25" type="line"/>
      <point x="197.14583333333334" y="1222.8541666666667" type="line"/>
      <point x="499.9375" y="1222.8541666666667" type="line"/>
      <point x="499.9375" y="155.75" type="line"/>
      <point x="197.14583333333334" y="155.75" type="line"/>
      <point x="197.14583333333334" y="0.0" type="line"/>
      <point x="1002.8541666666666" y="0.0" type="line"/>
      <point x="1002.8541666666666" y="155.75" type="line"/>
      <point x="700.0625" y="155.75" type="line"/>
      <point x="700.0625" y="1222.8541666666667" type="line"/>
      <point x="1002.8541666666666" y="1222.8541666666667" type="line"/>
    </contour>
  </outline>
</glyph>
<glyph name="J" format="2">
  <advance width="1200.0"/>
  <unicode hex="004A"/>
  <anchor x="600.0" y="0.0" name="bottom"/>
  <anchor x="700.125" y="1378.25" name="top"/>
  <outline>
    <contour>
      <point x="1002.9791666666666" y="1378.25" type="line"/>
      <point x="394.0" y="1378.25" type="line"/>
      <point x="394.0" y="1220.9166666666667" type="line"/>
      <point x="805.1458333333334" y="1220.9166666666667" type="line"/>
      <point x="805.1458333333334" y="471.75" type="line" smooth="yes"/>
      <point x="805.1458333333334" y="261.0208333333333"/>
      <point x="697.1458333333334" y="137.14583333333334"/>
      <point x="513.8125" y="137.14583333333334" type="curve" smooth="yes"/>
      <point x="428.1875" y="137.14583333333334"/>
      <point x="333.8125" y="156.91666666666669"/>
      <point x="219.14583333333334" y="230.95833333333334" type="curve"/>
      <point x="134.1875" y="101.9375" type="line"/>
      <point x="245.14583333333334" y="19.9375"/>
      <point x="376.125" y="-24.1875"/>
      <point x="518.9583333333334" y="-24.1875" type="curve" smooth="yes"/>
      <point x="880.0625" y="-24.1875"/>
      <point x="1002.9791666666666" y="218.91666666666666"/>
      <point x="1002.9791666666666" y="464.125" type="curve" smooth="yes"/>
    </contour>
  </outline>
</glyph>
<glyph name="K" format="2">
  <advance width="1200.0"/>
  <unicode hex="004B"/>
  <anchor x="637.8125" y="0.0" name="bottom"/>
  <anchor x="644.9166666666666" y="1378.25" name="top"/>
  <outline>
    <contour>
      <point x="393.0416666666667" y="0.0" type="line"/>
      <point x="393.0416666666667" y="1378.25" type="line"/>
      <point x="194.85416666666666" y="1378.25" type="line"/>
      <point x="194.85416666666666" y="0.0" type="line"/>
    </contour>
    <contour>
      <point x="403.0416666666667" y="736.125" type="line"/>
      <point x="937.75" y="0.0" type="line"/>
      <point x="1180.1875" y="0.0" type="line"/>
      <point x="628.125" y="749.1458333333334" type="line"/>
      <point x="1142.1875" y="1378.25" type="line"/>
      <point x="918.9583333333334" y="1378.25" type="line"/>
    </contour>
  </outline>
</glyph>
<glyph name="L" format="2">
  <advance width="1200.0"/>
  <unicode hex="004C"/>
  <anchor x="658.25" y="0.0" name="bottom"/>
  <anchor x="941.0416666666666" y="760.9583333333334" name="center"/>
  <anchor x="357.75" y="1378.25" name="top"/>
  <anchor x="555.875" y="1378.25" name="topright"/>
  <outline>
    <contour>
      <point x="257.0416666666667" y="0.0" type="line"/>
      <point x="1057.75" y="0.0" type="line"/>
      <point x="1080.125" y="171.8125" type="line"/>
      <point x="455.875" y="171.8125" type="line"/>
      <point x="455.875" y="1378.25" type="line"/>
      <point x="257.0416666666667" y="1378.25" type="line"/>
    </contour>
  </outline>
</glyph>
<glyph name="M" format="2">
  <advance width="1200.0"/>
  <unicode hex="004D"/>
  <anchor x="600.0" y="0.0" name="bottom"/>
  <anchor x="1139.9375" y="0.0" name="bottomright"/>
  <anchor x="600.0" y="1378.25" name="top"/>
  <outline>
    <contour>
      <point x="1065.0416666666667" y="1378.25" type="line"/>
      <point x="806.1875" y="1378.25" type="line"/>
      <point x="604.0" y="442.8541666666667" type="line"/>
      <point x="391.875" y="1378.25" type="line"/>
      <point x="134.95833333333334" y="1378.25" type="line"/>
      <point x="56.95833333333333" y="0.0" type="line"/>
      <point x="239.14583333333334" y="0.0" type="line"/>
      <point x="271.75" y="699.0833333333334" type="line" smooth="yes"/>
      <point x="278.9791666666667" y="879.75"/>
      <point x="275.2083333333333" y="1107.0208333333333"/>
      <point x="270.1875" y="1200.0" type="curve"/>
      <point x="506.0" y="245.04166666666666" type="line"/>
      <point x="692.0" y="245.04166666666666" type="line"/>
      <point x="911.9375" y="1200.0" type="line"/>
      <point x="908.2708333333334" y="1103.4791666666667"/>
      <point x="908.3125" y="895.0208333333334"/>
      <point x="918.1875" y="698.9166666666666" type="curve" smooth="yes"/>
      <point x="957.1458333333334" y="0.0" type="line"/>
      <point x="1143.0416666666667" y="0.0" type="line"/>
    </contour>
  </outline>
</glyph>
<glyph name="N" format="2">
  <advance width="1200.0"/>
  <unicode hex="004E"/>
  <anchor x="600.0" y="0.0" name="bottom"/>
  <anchor x="600.9166666666666" y="1378.25" name="top"/>
  <outline>
    <contour>
      <point x="774.8541666666666" y="0.0" type="line"/>
      <point x="1043.0416666666667" y="0.0" type="line"/>
      <point x="1043.0416666666667" y="1378.25" type="line"/>
      <point x="862.8541666666666" y="1378.25" type="line"/>
      <point x="862.8541666666666" y="714.8541666666666" type="line" smooth="yes"/>
      <point x="862.8541666666666" y="467.14583333333337"/>
      <point x="885.0416666666666" y="248.0"/>
      <point x="890.25" y="180.125" type="curve"/>
      <point x="420.0" y="1378.25" type="line"/>
      <point x="156.95833333333334" y="1378.25" type="line"/>
      <point x="156.95833333333334" y="0.0" type="line"/>
      <point x="337.1458333333333" y="0.0" type="line"/>
      <point x="337.1458333333333" y="663.1458333333334" type="line" smooth="yes"/>
      <point x="337.1458333333333" y="880.9583333333334"/>
      <point x="314.1875" y="1125.8125"/>
      <point x="309.75" y="1195.0833333333333" type="curve"/>
    </contour>
  </outline>
</glyph>
<glyph name="O" format="2">
  <advance width="1200.0"/>
  <unicode hex="004F"/>
  <anchor x="600.0" y="0.0" name="bottom"/>
  <anchor x="600.0" y="1378.25" name="top"/>
  <anchor x="207.08333333333334" y="1378.25" name="topleft"/>
  <outline>
    <contour>
      <point x="1114.9583333333333" y="688.1875" type="curve" smooth="yes"/>
      <point x="1114.9583333333333" y="1117.8125"/>
      <point x="939.75" y="1402.9166666666667"/>
      <point x="600.0" y="1402.9166666666667" type="curve" smooth="yes"/>
      <point x="260.25" y="1402.9166666666667"/>
      <point x="85.04166666666666" y="1107.8125"/>
      <point x="85.04166666666666" y="686.25" type="curve" smooth="yes"/>
      <point x="85.04166666666666" y="256.9166666666667"/>
      <point x="260.25" y="-24.958333333333336"/>
      <point x="600.0" y="-24.958333333333336" type="curve" smooth="yes"/>
      <point x="939.75" y="-24.958333333333336"/>
      <point x="1114.9583333333333" y="266.9166666666667"/>
    </contour>
    <contour>
      <point x="908.125" y="688.1875" type="curve" smooth="yes"/>
      <point x="908.125" y="326.0"/>
      <point x="820.0625" y="136.25"/>
      <point x="600.0" y="136.25" type="curve" smooth="yes"/>
      <point x="385.9375" y="136.25"/>
      <point x="291.875" y="323.9375"/>
      <point x="291.875" y="686.25" type="curve" smooth="yes"/>
      <point x="291.875" y="1048.8541666666667"/>
      <point x="380.0625" y="1242.0625"/>
      <point x="600.0" y="1242.0625" type="curve" smooth="yes"/>
      <point x="819.9375" y="1242.0625"/>
      <point x="908.125" y="1051.1458333333333"/>
    </contour>
  </outline>
</glyph>
<glyph name="P" format="2">
  <advance width="1200.0"/>
  <unicode hex="0050"/>
  <anchor x="600.0" y="0.0" name="bottom"/>
  <anchor x="600.0" y="1378.25" name="top"/>
  <anchor x="194.125" y="1378.25" name="topleft"/>
  <outline>
    <contour>
      <point x="909.9375" y="948.8541666666666" type="curve" smooth="yes"/>
      <point x="909.9375" y="725.1458333333334"/>
      <point x="779.0208333333334" y="658.9583333333334"/>
      <point x="594.9166666666666" y="658.9583333333334" type="curve" smooth="yes"/>
      <point x="412.9583333333333" y="658.9583333333334" type="line"/>
      <point x="412.9583333333333" y="1224.9791666666667" type="line"/>
      <point x="597.9375" y="1224.9791666666667" type="line" smooth="yes"/>
      <point x="781.0833333333334" y="1224.9791666666667"/>
      <point x="909.9375" y="1151.75"/>
    </contour>
    <contour>
      <point x="1120.0625" y="951.1458333333334" type="curve" smooth="yes"/>
      <point x="1120.0625" y="1241.875"/>
      <point x="915.0416666666666" y="1378.25"/>
      <point x="579.0833333333334" y="1378.25" type="curve" smooth="yes"/>
      <point x="214.125" y="1378.25" type="line"/>
      <point x="214.125" y="0.0" type="line"/>
      <point x="412.9583333333333" y="0.0" type="line"/>
      <point x="412.9583333333333" y="502.9791666666667" type="line"/>
      <point x="584.9166666666666" y="502.9791666666667" type="line" smooth="yes"/>
      <point x="898.0625" y="502.9791666666667"/>
      <point x="1120.0625" y="629.1458333333334"/>
    </contour>
  </outline>
</glyph>
<glyph name="Q" format="2">
  <advance width="1200.0"/>
  <unicode hex="0051"/>
  <anchor x="600.0" y="0.0" name="bottom"/>
  <anchor x="600.0" y="1378.25" name="top"/>
  <outline>
    <contour>
      <point x="1114.125" y="688.1875" type="curve" smooth="yes"/>
      <point x="1114.125" y="1117.8125"/>
      <point x="939.9375" y="1402.9166666666667"/>
      <point x="600.1875" y="1402.9166666666667" type="curve" smooth="yes"/>
      <point x="261.0833333333333" y="1402.9166666666667"/>
      <point x="86.95833333333333" y="1107.8125"/>
      <point x="86.95833333333333" y="686.25" type="curve" smooth="yes"/>
      <point x="86.95833333333333" y="256.9166666666667"/>
      <point x="258.1875" y="-20.25"/>
      <point x="580.0" y="-20.25" type="curve" smooth="yes"/>
      <point x="818.125" y="-20.25"/>
      <point x="917.8125" y="-134.125"/>
      <point x="1001.9375" y="-346.0" type="curve"/>
      <point x="1198.25" y="-271.1458333333333" type="line"/>
      <point x="1130.0" y="-65.875"/>
      <point x="1024.9166666666667" y="19.75"/>
      <point x="827.9375" y="57.04166666666667" type="curve"/>
      <point x="1040.1875" y="172.91666666666666"/>
      <point x="1114.125" y="399.0416666666667"/>
    </contour>
    <contour>
      <point x="907.75" y="688.1875" type="curve" smooth="yes"/>
      <point x="907.75" y="326.0"/>
      <point x="820.25" y="136.25"/>
      <point x="600.1875" y="136.25" type="curve" smooth="yes"/>
      <point x="386.125" y="136.25"/>
      <point x="292.9166666666667" y="324.0"/>
      <point x="292.9166666666667" y="686.25" type="curve" smooth="yes"/>
      <point x="292.9166666666667" y="1049.0833333333333"/>
      <point x="380.25" y="1242.0"/>
      <point x="600.1875" y="1242.0" type="curve" smooth="yes"/>
      <point x="820.1875" y="1242.0"/>
      <point x="907.75" y="1051.0833333333333"/>
    </contour>
  </outline>
</glyph>
<glyph name="R" format="2">
  <advance width="1200.0"/>
  <unicode hex="0052"/>
  <anchor x="600.9166666666666" y="0.0" name="bottom"/>
  <anchor x="600.0" y="1378.25" name="top"/>
  <outline>
    <contour>
      <point x="1082.9583333333333" y="986.9583333333334" type="curve" smooth="yes"/>
      <point x="1082.9583333333333" y="1246.1875"/>
      <point x="901.875" y="1378.25"/>
      <point x="555.875" y="1378.25" type="curve" smooth="yes"/>
      <point x="188.97916666666666" y="1378.25" type="line"/>
      <point x="188.97916666666666" y="0.0" type="line"/>
      <point x="387.8125" y="0.0" type="line"/>
      <point x="387.8125" y="581.0208333333334" type="line"/>
      <point x="558.9583333333334" y="581.0208333333334" type="line"/>
      <point x="922.25" y="0.0" type="line"/>
      <point x="1156.9791666666667" y="0.0" type="line"/>
      <point x="755.875" y="606.9583333333334" type="line"/>
      <point x="939.9375" y="655.0416666666666"/>
      <point x="1082.9583333333333" y="780.8541666666666"/>
    </contour>
    <contour>
      <point x="872.1875" y="986.9583333333334" type="curve" smooth="yes"/>
      <point x="872.1875" y="803.1458333333334"/>
      <point x="764.1875" y="731.75"/>
      <point x="575.0416666666666" y="731.75" type="curve" smooth="yes"/>
      <point x="387.8125" y="731.75" type="line"/>
      <point x="387.8125" y="1225.75" type="line"/>
      <point x="573.0208333333334" y="1225.75" type="line" smooth="yes"/>
      <point x="775.75" y="1225.75"/>
      <point x="872.1875" y="1156.125"/>
    </contour>
  </outline>
</glyph>
<glyph name="S" format="2">
  <advance width="1200.0"/>
  <unicode hex="0053"/>
  <anchor x="594.1875" y="0.0" name="bottom"/>
  <anchor x="612.25" y="1378.25" name="top"/>
  <outline>
    <contour>
      <point x="1083.0416666666667" y="384.9791666666667" type="curve" smooth="yes"/>
      <point x="1083.0416666666667" y="647.0833333333334"/>
      <point x="900.9166666666666" y="740.0"/>
      <point x="678.9583333333334" y="804.8541666666666" type="curve" smooth="yes"/>
      <point x="423.0833333333333" y="880.9583333333334"/>
      <point x="342.0" y="934.9791666666666"/>
      <point x="342.0" y="1049.8125" type="curve" smooth="yes"/>
      <point x="342.0" y="1178.8541666666667"/>
      <point x="459.875" y="1242.0"/>
      <point x="606.1875" y="1242.0" type="curve" smooth="yes"/>
      <point x="722.0625" y="1242.0"/>
      <point x="837.875" y="1204.0"/>
      <point x="935.75" y="1118.25" type="curve"/>
      <point x="1046.1875" y="1242.0" type="line"/>
      <point x="930.0625" y="1345.0208333333333"/>
      <point x="790.9583333333334" y="1402.9166666666667"/>
      <point x="596.9791666666666" y="1402.9166666666667" type="curve" smooth="yes"/>
      <point x="330.0" y="1402.9166666666667"/>
      <point x="138.91666666666666" y="1254.9166666666667"/>
      <point x="138.91666666666666" y="1040.9583333333333" type="curve" smooth="yes"/>
      <point x="138.91666666666666" y="822.8541666666666"/>
      <point x="302.9583333333333" y="719.875"/>
      <point x="583.0416666666666" y="637.0208333333334" type="curve" smooth="yes"/>
      <point x="812.8541666666666" y="568.9791666666666"/>
      <point x="877.0208333333334" y="506.1875"/>
      <point x="877.0208333333334" y="378.0625" type="curve" smooth="yes"/>
      <point x="877.0208333333334" y="215.8125"/>
      <point x="733.9375" y="137.02083333333334"/>
      <point x="571.75" y="137.02083333333334" type="curve" smooth="yes"/>
      <point x="406.9583333333333" y="137.02083333333334"/>
      <point x="286.1875" y="192.1875"/>
      <point x="190.0" y="282.1875" type="curve"/>
      <point x="76.95833333333333" y="155.02083333333334" type="line"/>
      <point x="192.95833333333334" y="42.958333333333336"/>
      <point x="359.0833333333333" y="-24.958333333333336"/>
      <point x="570.0625" y="-24.958333333333336" type="curve" smooth="yes"/>
      <point x="895.9375" y="-24.958333333333336"/>
      <point x="1083.0416666666667" y="144.0625"/>
    </contour>
  </outline>
</glyph>
<glyph name="T" format="2">
  <advance width="1200.0"/>
  <unicode hex="0054"/>
  <anchor x="598.0" y="0.0" name="bottom"/>
  <anchor x="716.125" y="0.0" name="bottomright"/>
  <anchor x="600.0" y="690.125" name="center"/>
  <anchor x="598.0" y="1378.25" name="top"/>
  <outline>
    <contour>
      <point x="696.125" y="1213.1458333333333" type="line"/>
      <point x="1105.875" y="1213.1458333333333" type="line"/>
      <point x="1126.9583333333333" y="1378.25" type="line"/>
      <point x="74.0625" y="1378.25" type="line"/>
      <point x="74.0625" y="1213.1458333333333" type="line"/>
      <point x="497.9375" y="1213.1458333333333" type="line"/>
      <point x="497.9375" y="0.0" type="line"/>
      <point x="696.125" y="0.0" type="line"/>
    </contour>
  </outline>
</glyph>
<glyph name="U" format="2">
  <advance width="1200.0"/>
  <unicode hex="0055"/>
  <anchor x="600.0" y="0.0" name="bottom"/>
  <anchor x="780.9166666666666" y="0.0" name="ogonek"/>
  <anchor x="600.0" y="1378.25" name="top"/>
  <outline>
    <contour>
      <point x="1064.9791666666667" y="1378.25" type="line"/>
      <point x="865.1458333333334" y="1378.25" type="line"/>
      <point x="865.1458333333334" y="463.9375" type="line" smooth="yes"/>
      <point x="865.1458333333334" y="247.875"/>
      <point x="775.1458333333334" y="140.25"/>
      <point x="598.0625" y="140.25" type="curve" smooth="yes"/>
      <point x="422.9166666666667" y="140.25"/>
      <point x="332.9166666666667" y="247.875"/>
      <point x="332.9166666666667" y="463.9375" type="curve" smooth="yes"/>
      <point x="332.9166666666667" y="1378.25" type="line"/>
      <point x="135.02083333333334" y="1378.25" type="line"/>
      <point x="135.02083333333334" y="449.1458333333333" type="line" smooth="yes"/>
      <point x="135.02083333333334" y="168.0"/>
      <point x="305.0208333333333" y="-24.958333333333336"/>
      <point x="598.0625" y="-24.958333333333336" type="curve" smooth="yes"/>
      <point x="887.8125" y="-24.958333333333336"/>
      <point x="1064.9791666666667" y="169.02083333333334"/>
      <point x="1064.9791666666667" y="449.1458333333333" type="curve" smooth="yes"/>
    </contour>
  </outline>
</glyph>
<glyph name="V" format="2">
  <advance width="1200.0"/>
  <unicode hex="0056"/>
  <anchor x="600.0" y="0.0" name="bottom"/>
  <anchor x="600.0" y="1378.25" name="top"/>
  <outline>
    <contour>
      <point x="604.0625" y="206.91666666666666" type="line"/>
      <point x="254.0" y="1378.25" type="line"/>
      <point x="40.979166666666664" y="1378.25" type="line"/>
      <point x="491.9375" y="0.0" type="line"/>
      <point x="708.0625" y="0.0" type="line"/>
      <point x="1159.0833333333333" y="1378.25" type="line"/>
      <point x="958.0625" y="1378.25" type="line"/>
    </contour>
  </outline>
</glyph>
<glyph name="W" format="2">
  <advance width="1200.0"/>
  <unicode hex="0057"/>
  <anchor x="600.0" y="0.0" name="bottom"/>
  <anchor x="600.0" y="1378.25" name="top"/>
  <outline>
    <contour>
      <point x="1193.0833333333333" y="1378.25" type="line"/>
      <point x="1012.0625" y="1378.25" type="line"/>
      <point x="862.9791666666666" y="205.08333333333334" type="line"/>
      <point x="714.0" y="1218.25" type="line"/>
      <point x="490.125" y="1218.25" type="line"/>
      <point x="333.1458333333333" y="205.08333333333334" type="line"/>
      <point x="202.1875" y="1378.25" type="line"/>
      <point x="6.916666666666666" y="1378.25" type="line"/>
      <point x="193.08333333333334" y="0.0" type="line"/>
      <point x="445.1458333333333" y="0.0" type="line"/>
      <point x="596.1875" y="1031.0416666666667" type="line"/>
      <point x="744.9791666666666" y="0.0" type="line"/>
      <point x="991.0416666666666" y="0.0" type="line"/>
    </contour>
  </outline>
</glyph>
<glyph name="X" format="2">
  <advance width="1200.0"/>
  <unicode hex="0058"/>
  <anchor x="600.0" y="0.0" name="bottom"/>
  <anchor x="1057.9375" y="0.0" name="bottomright"/>
  <anchor x="600.0" y="1378.25" name="top"/>
  <outline>
    <contour>
      <point x="89.02083333333333" y="1378.25" type="line"/>
      <point x="479.1458333333333" y="734.0625" type="line"/>
      <point x="52.854166666666664" y="0.0" type="line"/>
      <point x="265.875" y="0.0" type="line"/>
      <point x="596.0" y="607.1458333333334" type="line"/>
      <point x="923.0208333333334" y="0.0" type="line"/>
      <point x="1146.8541666666667" y="0.0" type="line"/>
      <point x="715.1458333333334" y="744.1875" type="line"/>
      <point x="1101.875" y="1378.25" type="line"/>
      <point x="888.9166666666666" y="1378.25" type="line"/>
      <point x="600.0" y="862.8541666666666" type="line"/>
      <point x="312.8541666666667" y="1378.25" type="line"/>
    </contour>
  </outline>
</glyph>
<glyph name="Y" format="2">
  <advance width="1200.0"/>
  <unicode hex="0059"/>
  <anchor x="600.0" y="0.0" name="bottom"/>
  <anchor x="605.8125" y="1378.25" name="top"/>
  <anchor x="36.95833333333333" y="1378.25" name="topleft"/>
  <outline>
    <contour>
      <point x="700.0625" y="529.0416666666666" type="line"/>
      <point x="1163.0416666666667" y="1378.25" type="line"/>
      <point x="956.25" y="1378.25" type="line"/>
      <point x="604.0625" y="703.75" type="line"/>
      <point x="255.8125" y="1378.25" type="line"/>
      <point x="36.95833333333333" y="1378.25" type="line"/>
      <point x="499.9375" y="527.0416666666666" type="line"/>
      <point x="499.9375" y="0.0" type="line"/>
      <point x="700.0625" y="0.0" type="line"/>
    </contour>
  </outline>
</glyph>
<glyph name="Z" format="2">
  <advance width="1200.0"/>
  <unicode hex="005A"/>
  <anchor x="600.0" y="0.0" name="bottom"/>
  <anchor x="635.0416666666666" y="1378.25" name="top"/>
  <outline>
    <contour>
      <point x="354.8541666666667" y="168.0" type="line"/>
      <point x="1065.0833333333333" y="1219.0833333333333" type="line"/>
      <point x="1065.0833333333333" y="1378.25" type="line"/>
      <point x="204.25" y="1378.25" type="line"/>
      <point x="204.25" y="1213.0833333333333" type="line"/>
      <point x="849.0208333333334" y="1213.0833333333333" type="line"/>
      <point x="132.25" y="157.8125" type="line"/>
      <point x="132.25" y="0.0" type="line"/>
      <point x="1042.8541666666667" y="0.0" type="line"/>
      <point x="1065.875" y="168.0" type="line"/>
    </contour>
  </outline>
</glyph>
<glyph name="bracketleft" format="2">
  <advance width="1200.0"/>
  <unicode hex="005B"/>
  <outline>
    <contour>
      <point x="359.1458333333333" y="-233.08333333333334" type="line"/>
      <point x="878.9166666666666" y="-233.08333333333334" type="line"/>
      <point x="878.9166666666666" y="-75.9375" type="line"/>
      <point x="540.25" y="-75.9375" type="line"/>
      <point x="540.25" y="1473.9375" type="line"/>
      <point x="878.9166666666666" y="1473.9375" type="line"/>
      <point x="878.9166666666666" y="1633.0833333333333" type="line"/>
      <point x="359.1458333333333" y="1633.0833333333333" type="line"/>
    </contour>
  </outline>
</glyph>
<glyph name="backslash" format="2">
  <advance width="1200.0"/>
  <unicode hex="005C"/>
  <outline>
    <contour>
      <point x="97.04166666666666" y="1548.125" type="line"/>
      <point x="948.9583333333334" y="-209.14583333333334" type="line"/>
      <point x="1102.9583333333333" y="-140.0625" type="line"/>
      <point x="249.75" y="1621.0833333333333" type="line"/>
    </contour>
  </outline>
</glyph>
<glyph name="bracketright" format="2">
  <advance width="1200.0"/>
  <unicode hex="005D"/>
  <outline>
    <contour>
      <point x="840.8541666666666" y="1633.0833333333333" type="line"/>
      <point x="321.0833333333333" y="1633.0833333333333" type="line"/>
      <point x="321.0833333333333" y="1473.9375" type="line"/>
      <point x="659.75" y="1473.9375" type="line"/>
      <point x="659.75" y="-75.875" type="line"/>
      <point x="321.0833333333333" y="-75.875" type="line"/>
      <point x="321.0833333333333" y="-233.08333333333334" type="line"/>
      <point x="840.8541666666666" y="-233.08333333333334" type="line"/>
    </contour>
  </outline>
</glyph>
<glyph name="asciicircum" format="2">
  <advance width="1200.0"/>
  <unicode hex="005E"/>
  <outline>
    <contour>
      <point x="685.875" y="1680.25" type="line"/>
      <point x="514.125" y="1680.25" type="line"/>
      <point x="136.125" y="1054.0" type="line"/>
      <point x="337.0416666666667" y="1054.0" type="line"/>
      <point x="598.0" y="1515.9375" type="line"/>
      <point x="861.1458333333334" y="1054.0" type="line"/>
      <point x="1063.875" y="1054.0" type="line"/>
    </contour>
  </outline>
</glyph>
<glyph name="grave" format="2">
  <advance width="1200.0"/>
  <unicode hex="0060"/>
  <anchor x="600.0" y="1054.25" name="_top"/>
  <outline>
    <contour>
      <point x="776.9791666666666" y="1244.0" type="line"/>
      <point x="836.8541666666666" y="1347.8125" type="line"/>
      <point x="457.0416666666667" y="1588.9166666666667" type="line"/>
      <point x="361.8125" y="1430.0625" type="line"/>
    </contour>
  </outline>
</glyph>
<glyph name="a" format="2">
  <advance width="1200.0"/>
  <unicode hex="0061"/>
  <anchor x="600.0" y="0.0" name="bottom"/>
  <anchor x="1026.0625" y="-24.1875" name="ogonek"/>
  <anchor x="584.0625" y="1054.25" name="top"/>
  <outline>
    <contour>
      <point x="968.125" y="242.0625" type="curve" smooth="yes"/>
      <point x="968.125" y="732.9791666666666" type="line" smooth="yes"/>
      <point x="968.125" y="946.9166666666666"/>
      <point x="833.0416666666666" y="1078.9166666666667"/>
      <point x="562.25" y="1078.9166666666667" type="curve" smooth="yes"/>
      <point x="457.8125" y="1078.9166666666667"/>
      <point x="336.9166666666667" y="1059.0208333333333"/>
      <point x="207.02083333333334" y="1010.25" type="curve"/>
      <point x="256.125" y="870.0" type="line"/>
      <point x="364.0625" y="907.9375"/>
      <point x="462.9791666666667" y="924.0625"/>
      <point x="532.9166666666666" y="924.0625" type="curve" smooth="yes"/>
      <point x="686.0625" y="924.0625"/>
      <point x="777.1458333333334" y="868.1875"/>
      <point x="777.1458333333334" y="722.9583333333334" type="curve" smooth="yes"/>
      <point x="777.1458333333334" y="642.9166666666666" type="line"/>
      <point x="623.8125" y="642.9166666666666" type="line" smooth="yes"/>
      <point x="302.9166666666667" y="642.9166666666666"/>
      <point x="126.1875" y="520.9583333333334"/>
      <point x="126.1875" y="301.9375" type="curve" smooth="yes"/>
      <point x="126.1875" y="105.9375"/>
      <point x="257.1458333333333" y="-24.958333333333336"/>
      <point x="469.0416666666667" y="-24.958333333333336" type="curve" smooth="yes"/>
      <point x="604.9166666666666" y="-24.958333333333336"/>
      <point x="726.0625" y="24.916666666666664"/>
      <point x="802.25" y="122.91666666666667" type="curve"/>
      <point x="835.75" y="29.75"/>
      <point x="910.125" y="-12.1875"/>
      <point x="1006.0625" y="-24.1875" type="curve"/>
      <point x="1051.0416666666667" y="108.25" type="line"/>
      <point x="993.9375" y="126.25"/>
      <point x="968.125" y="158.1875"/>
    </contour>
    <contour>
      <point x="523.1458333333334" y="119.02083333333334" type="curve" smooth="yes"/>
      <point x="393.75" y="119.02083333333334"/>
      <point x="330.125" y="183.8125"/>
      <point x="330.125" y="307.1458333333333" type="curve" smooth="yes"/>
      <point x="330.125" y="436.9791666666667"/>
      <point x="414.0" y="517.8125"/>
      <point x="637.1458333333334" y="517.8125" type="curve" smooth="yes"/>
      <point x="777.1458333333334" y="517.8125" type="line"/>
      <point x="777.1458333333334" y="263.1458333333333" type="line"/>
      <point x="718.125" y="172.0"/>
      <point x="620.8541666666666" y="119.02083333333334"/>
    </contour>
  </outline>
</glyph>
<glyph name="b" format="2">
  <advance width="1200.0"/>
  <unicode hex="0062"/>
  <anchor x="600.0" y="0.0" name="bottom"/>
  <anchor x="600.0" y="1478.1875" name="top"/>
  <outline>
    <contour>
      <point x="383.0208333333333" y="922.0" type="curve"/>
      <point x="383.0208333333333" y="1500.8541666666667" type="line"/>
      <point x="191.02083333333334" y="1478.1875" type="line"/>
      <point x="191.02083333333334" y="0.0" type="line"/>
      <point x="359.9375" y="0.0" type="line"/>
      <point x="371.9375" y="106.97916666666667" type="line"/>
      <point x="441.0416666666667" y="17.8125"/>
      <point x="535.0416666666666" y="-24.958333333333336"/>
      <point x="654.9583333333334" y="-24.958333333333336" type="curve" smooth="yes"/>
      <point x="927.0833333333334" y="-24.958333333333336"/>
      <point x="1072.8541666666667" y="207.9375"/>
      <point x="1072.8541666666667" y="528.1875" type="curve" smooth="yes"/>
      <point x="1072.8541666666667" y="860.9166666666666"/>
      <point x="959.0208333333334" y="1078.9166666666667"/>
      <point x="678.9166666666666" y="1078.9166666666667" type="curve" smooth="yes"/>
      <point x="559.9375" y="1078.9166666666667"/>
      <point x="458.0625" y="1020.9791666666666"/>
    </contour>
    <contour>
      <point x="608.125" y="126.25" type="curve" smooth="yes"/>
      <point x="515.875" y="126.25"/>
      <point x="435.9375" y="175.75"/>
      <point x="383.0208333333333" y="256.1875" type="curve"/>
      <point x="383.0208333333333" y="766.1875" type="line"/>
      <point x="438.0625" y="849.9375"/>
      <point x="522.125" y="927.9375"/>
      <point x="631.875" y="927.9375" type="curve" smooth="yes"/>
      <point x="784.1875" y="927.9375"/>
      <point x="866.9791666666666" y="801.75"/>
      <point x="866.9791666666666" y="528.0625" type="curve" smooth="yes"/>
      <point x="866.9791666666666" y="254.1875"/>
      <point x="773.0833333333334" y="126.25"/>
    </contour>
  </outline>
</glyph>
<glyph name="c" format="2">
  <advance width="1200.0"/>
  <unicode hex="0063"/>
  <anchor x="678.0" y="0.0" name="bottom"/>
  <anchor x="678.0" y="0.0" name="bottomAttach"/>
  <anchor x="688.0" y="1036.0" name="top"/>
  <outline>
    <contour>
      <point x="681.0416666666666" y="136.85416666666669" type="curve" smooth="yes"/>
      <point x="507.9375" y="136.85416666666669"/>
      <point x="381.75" y="248.95833333333334"/>
      <point x="381.75" y="522.0625" type="curve" smooth="yes"/>
      <point x="381.75" y="794.0"/>
      <point x="505.8125" y="921.8125"/>
      <point x="681.75" y="921.8125" type="curve" smooth="yes"/>
      <point x="772.9166666666666" y="921.8125"/>
      <point x="861.0208333333334" y="889.875"/>
      <point x="947.875" y="830.1875" type="curve"/>
      <point x="1039.0208333333333" y="954.9583333333334" type="line"/>
      <point x="938.1875" y="1037.1458333333333"/>
      <point x="820.0625" y="1078.9166666666667"/>
      <point x="681.0208333333334" y="1078.9166666666667" type="curve" smooth="yes"/>
      <point x="360.9791666666667" y="1078.9166666666667"/>
      <point x="175.75" y="841.1458333333334"/>
      <point x="175.75" y="522.0625" type="curve" smooth="yes"/>
      <point x="175.75" y="192.0"/>
      <point x="359.1458333333333" y="-24.958333333333336"/>
      <point x="678.25" y="-24.958333333333336" type="curve" smooth="yes"/>
      <point x="809.0208333333334" y="-24.958333333333336"/>
      <point x="948.25" y="26.0"/>
      <point x="1040.9583333333333" y="104.0625" type="curve"/>
      <point x="949.0416666666666" y="229.14583333333334" type="line"/>
      <point x="871.75" y="174.85416666666669"/>
      <point x="784.1875" y="136.85416666666669"/>
    </contour>
  </outline>
</glyph>
<glyph name="d" format="2">
  <advance width="1200.0"/>
  <unicode hex="0064"/>
  <anchor x="600.0" y="0.0" name="bottom"/>
  <anchor x="600.0" y="528.125" name="center"/>
  <anchor x="600.0" y="1478.1875" name="top"/>
  <anchor x="1068.0625" y="1478.1875" name="topright"/>
  <outline>
    <contour>
      <point x="816.9791666666666" y="1500.8541666666667" type="line"/>
      <point x="816.9791666666666" y="958.9583333333334" type="line"/>
      <point x="747.8125" y="1037.8125"/>
      <point x="658.0625" y="1078.9166666666667"/>
      <point x="541.75" y="1078.9166666666667" type="curve" smooth="yes"/>
      <point x="281.0416666666667" y="1078.9166666666667"/>
      <point x="127.14583333333333" y="844.8541666666666"/>
      <point x="127.14583333333333" y="526.25" type="curve" smooth="yes"/>
      <point x="127.14583333333333" y="197.8125"/>
      <point x="253.14583333333334" y="-24.958333333333336"/>
      <point x="526.1875" y="-24.958333333333336" type="curve" smooth="yes"/>
      <point x="645.8125" y="-24.958333333333336"/>
      <point x="748.9166666666666" y="28.1875"/>
      <point x="824.0625" y="135.08333333333334" type="curve"/>
      <point x="840.0625" y="0.0" type="line"/>
      <point x="1008.9791666666666" y="0.0" type="line"/>
      <point x="1008.9791666666666" y="1478.1875" type="line"/>
    </contour>
    <contour>
      <point x="591.875" y="928.0" type="curve" smooth="yes"/>
      <point x="684.0" y="928.0"/>
      <point x="762.0" y="881.1458333333334"/>
      <point x="816.9791666666666" y="800.9583333333334" type="curve"/>
      <point x="816.9791666666666" y="286.125" type="line"/>
      <point x="761.9375" y="201.08333333333334"/>
      <point x="682.9791666666666" y="126.95833333333334"/>
      <point x="571.9375" y="126.95833333333334" type="curve" smooth="yes"/>
      <point x="417.8125" y="126.95833333333334"/>
      <point x="333.0208333333333" y="255.14583333333334"/>
      <point x="333.0208333333333" y="526.1875" type="curve" smooth="yes"/>
      <point x="333.0208333333333" y="798.125"/>
      <point x="426.9791666666667" y="928.0"/>
    </contour>
  </outline>
</glyph>
<glyph name="e" format="2">
  <advance width="1200.0"/>
  <unicode hex="0065"/>
  <anchor x="600.0" y="0.0" name="bottom"/>
  <anchor x="829.9375" y="0.0" name="ogonek"/>
  <anchor x="619.8125" y="1054.25" name="top"/>
  <outline>
    <contour>
      <point x="346.1875" y="462.25" type="curve"/>
      <point x="1050.9791666666667" y="462.25" type="line"/>
      <point x="1053.0416666666667" y="487.1458333333333"/>
      <point x="1055.0416666666667" y="521.8125"/>
      <point x="1055.0416666666667" y="557.8125" type="curve" smooth="yes"/>
      <point x="1055.0416666666667" y="881.0833333333334"/>
      <point x="887.8125" y="1078.9166666666667"/>
      <point x="615.8125" y="1078.9166666666667" type="curve" smooth="yes"/>
      <point x="327.0208333333333" y="1078.9166666666667"/>
      <point x="146.25" y="844.0"/>
      <point x="146.25" y="526.125" type="curve" smooth="yes"/>
      <point x="146.25" y="198.0625"/>
      <point x="322.9166666666667" y="-24.958333333333336"/>
      <point x="640.125" y="-24.958333333333336" type="curve" smooth="yes"/>
      <point x="779.1458333333334" y="-24.958333333333336"/>
      <point x="913.75" y="24.0625"/>
      <point x="1011.8125" y="102.95833333333333" type="curve"/>
      <point x="924.8541666666666" y="223.9375" type="line"/>
      <point x="833.75" y="162.1875"/>
      <point x="751.1458333333334" y="130.125"/>
      <point x="645.75" y="130.125" type="curve" smooth="yes"/>
      <point x="486.8541666666667" y="130.125"/>
      <point x="356.8541666666667" y="230.125"/>
    </contour>
    <contour>
      <point x="617.75" y="928.9166666666666" type="curve" smooth="yes"/>
      <point x="772.125" y="928.9166666666666"/>
      <point x="865.8125" y="815.9375"/>
      <point x="869.75" y="601.875" type="curve"/>
      <point x="346.0625" y="601.875" type="line"/>
      <point x="360.0625" y="825.0833333333334"/>
      <point x="467.9375" y="928.9166666666666"/>
    </contour>
  </outline>
</glyph>
<glyph name="f" format="2">
  <advance width="1200.0"/>
  <unicode hex="0066"/>
  <anchor x="524.9583333333334" y="0.0" name="bottom"/>
  <anchor x="740.0" y="1478.1875" name="top"/>
  <outline>
    <contour>
      <point x="821.8125" y="1500.8541666666667" type="curve" smooth="yes"/>
      <point x="591.9375" y="1500.8541666666667"/>
      <point x="428.9583333333333" y="1372.8541666666667"/>
      <point x="428.9583333333333" y="1176.125" type="curve" smooth="yes"/>
      <point x="428.9583333333333" y="974.9791666666666" type="line"/>
      <point x="182.0625" y="974.9791666666666" type="line"/>
      <point x="182.0625" y="828.9583333333334" type="line"/>
      <point x="428.9583333333333" y="828.9583333333334" type="line"/>
      <point x="428.9583333333333" y="0.0" type="line"/>
      <point x="620.25" y="0.0" type="line"/>
      <point x="620.25" y="828.9583333333334" type="line"/>
      <point x="955.1458333333334" y="828.9583333333334" type="line"/>
      <point x="975.9375" y="974.9791666666666" type="line"/>
      <point x="620.25" y="974.9791666666666" type="line"/>
      <point x="620.25" y="1177.0416666666667" type="line" smooth="yes"/>
      <point x="620.25" y="1293.0208333333333"/>
      <point x="690.9166666666666" y="1347.9375"/>
      <point x="834.0" y="1347.9375" type="curve" smooth="yes"/>
      <point x="913.875" y="1347.9375"/>
      <point x="991.875" y="1334.0"/>
      <point x="1060.0625" y="1304.0625" type="curve"/>
      <point x="1119.9375" y="1442.25" type="line"/>
      <point x="1034.9791666666667" y="1479.0208333333333"/>
      <point x="941.9375" y="1500.8541666666667"/>
    </contour>
  </outline>
</glyph>
<glyph name="g" format="2">
  <advance width="1200.0"/>
  <unicode hex="0067"/>
  <anchor x="600.0" y="-406.1875" name="bottom "/>
  <anchor x="589.0833333333334" y="1054.25" name="top"/>
  <outline>
    <contour>
      <point x="1061.0416666666667" y="1175.8125" type="line"/>
      <point x="936.9166666666666" y="1118.25"/>
      <point x="839.0833333333334" y="1079.0208333333333"/>
      <point x="578.1875" y="1078.8541666666667" type="curve" smooth="yes"/>
      <point x="325.0833333333333" y="1078.8541666666667"/>
      <point x="149.04166666666666" y="926.9791666666666"/>
      <point x="149.04166666666666" y="709.9375" type="curve" smooth="yes"/>
      <point x="149.04166666666666" y="573.875"/>
      <point x="204.97916666666666" y="481.8125"/>
      <point x="328.0625" y="416.9166666666667" type="curve"/>
      <point x="252.0625" y="366.9791666666667"/>
      <point x="211.9375" y="299.0833333333333"/>
      <point x="211.9375" y="230.125" type="curve" smooth="yes"/>
      <point x="211.9375" y="123.875"/>
      <point x="297.0208333333333" y="29.75"/>
      <point x="486.9791666666667" y="29.75" type="curve" smooth="yes"/>
      <point x="672.125" y="29.75" type="line" smooth="yes"/>
      <point x="803.0208333333334" y="29.75"/>
      <point x="895.875" y="-20.0"/>
      <point x="895.875" y="-114.0" type="curve" smooth="yes"/>
      <point x="895.875" y="-221.75"/>
      <point x="803.0833333333334" y="-278.9166666666667"/>
      <point x="576.25" y="-278.9166666666667" type="curve" smooth="yes"/>
      <point x="346.1875" y="-278.9166666666667"/>
      <point x="292.9166666666667" y="-224.0625"/>
      <point x="292.9166666666667" y="-105.875" type="curve"/>
      <point x="120.125" y="-105.875" type="line"/>
      <point x="120.125" y="-319.75"/>
      <point x="228.0625" y="-426.8541666666667"/>
      <point x="576.0" y="-426.8541666666667" type="curve" smooth="yes"/>
      <point x="904.8541666666666" y="-426.8541666666667"/>
      <point x="1089.75" y="-310.0"/>
      <point x="1089.75" y="-101.04166666666667" type="curve" smooth="yes"/>
      <point x="1089.75" y="63.04166666666667"/>
      <point x="929.8125" y="187.875"/>
      <point x="711.875" y="187.875" type="curve" smooth="yes"/>
      <point x="524.9583333333334" y="187.875" type="line" smooth="yes"/>
      <point x="417.1458333333333" y="187.875"/>
      <point x="387.9375" y="225.04166666666666"/>
      <point x="387.9375" y="272.25" type="curve" smooth="yes"/>
      <point x="387.9375" y="309.8125"/>
      <point x="408.9791666666667" y="347.0833333333333"/>
      <point x="439.0833333333333" y="368.125" type="curve"/>
      <point x="482.25" y="354.9583333333333"/>
      <point x="524.1875" y="349.0208333333333"/>
      <point x="591.1458333333334" y="349.0208333333333" type="curve" smooth="yes"/>
      <point x="844.1875" y="349.0208333333333"/>
      <point x="995.9375" y="499.0208333333333"/>
      <point x="995.9375" y="706.9583333333334" type="curve" smooth="yes"/>
      <point x="995.9375" y="829.75"/>
      <point x="932.9791666666666" y="917.1458333333334"/>
      <point x="809.0208333333334" y="972.8541666666666" type="curve"/>
      <point x="929.75" y="972.8541666666666"/>
      <point x="1029.0416666666667" y="977.75"/>
      <point x="1116.9583333333333" y="1005.8125" type="curve"/>
    </contour>
    <contour>
      <point x="579.0833333333334" y="942.9583333333334" type="curve" smooth="yes"/>
      <point x="726.125" y="942.9583333333334"/>
      <point x="801.1458333333334" y="864.0625"/>
      <point x="801.1458333333334" y="712.125" type="curve" smooth="yes"/>
      <point x="801.1458333333334" y="562.0"/>
      <point x="724.125" y="475.75"/>
      <point x="582.9583333333334" y="475.75" type="curve" smooth="yes"/>
      <point x="422.9583333333333" y="475.75"/>
      <point x="345.0416666666667" y="571.75"/>
      <point x="345.0416666666667" y="710.0625" type="curve" smooth="yes"/>
      <point x="345.0416666666667" y="846.25"/>
      <point x="420.9583333333333" y="942.9583333333334"/>
    </contour>
  </outline>
</glyph>
<glyph name="h" format="2">
  <advance width="1200.0"/>
  <unicode hex="0068"/>
  <anchor x="600.0" y="0.0" name="bottom"/>
  <anchor x="600.0" y="528.125" name="center"/>
  <anchor x="600.0" y="1478.1875" name="top"/>
  <outline>
    <contour>
      <point x="383.0208333333333" y="1496.9166666666667" type="line"/>
      <point x="191.02083333333334" y="1476.25" type="line"/>
      <point x="191.02083333333334" y="0.0" type="line"/>
      <point x="383.0208333333333" y="0.0" type="line"/>
      <point x="383.0208333333333" y="762.125" type="line"/>
      <point x="439.1458333333333" y="844.0625"/>
      <point x="538.1875" y="929.875"/>
      <point x="649.75" y="929.875" type="curve" smooth="yes"/>
      <point x="767.1458333333334" y="929.875"/>
      <point x="818.9166666666666" y="876.1875"/>
      <point x="818.9166666666666" y="750.125" type="curve" smooth="yes"/>
      <point x="818.9166666666666" y="0.0" type="line"/>
      <point x="1010.9166666666666" y="0.0" type="line"/>
      <point x="1010.9166666666666" y="767.0833333333334" type="line" smooth="yes"/>
      <point x="1010.9166666666666" y="962.9166666666666"/>
      <point x="918.25" y="1078.9166666666667"/>
      <point x="715.0416666666666" y="1078.9166666666667" type="curve" smooth="yes"/>
      <point x="591.875" y="1078.9166666666667"/>
      <point x="466.8541666666667" y="1023.875"/>
      <point x="383.0208333333333" y="916.9583333333334" type="curve"/>
    </contour>
  </outline>
</glyph>
<glyph name="i" format="2">
  <advance width="1200.0"/>
  <unicode hex="0069"/>
  <anchor x="600.0" y="0.0" name="bottom"/>
  <outline>
    <contour>
      <point x="743.1458333333334" y="1054.25" type="line"/>
      <point x="240.125" y="1054.25" type="line"/>
      <point x="240.125" y="908.0" type="line"/>
      <point x="551.1458333333334" y="908.0" type="line"/>
      <point x="551.1458333333334" y="146.25" type="line"/>
      <point x="230.125" y="146.25" type="line"/>
      <point x="230.125" y="0.0" type="line"/>
      <point x="1035.75" y="0.0" type="line"/>
      <point x="1035.75" y="146.25" type="line"/>
      <point x="743.1458333333334" y="146.25" type="line"/>
    </contour>
    <contour>
      <point x="599.9375" y="1557.9375" type="curve" smooth="yes"/>
      <point x="521.875" y="1557.9375"/>
      <point x="468.125" y="1502.25"/>
      <point x="468.125" y="1430.9583333333333" type="curve" smooth="yes"/>
      <point x="468.125" y="1357.0833333333333"/>
      <point x="521.875" y="1301.0416666666667"/>
      <point x="599.9375" y="1301.0416666666667" type="curve" smooth="yes"/>
      <point x="679.875" y="1301.0416666666667"/>
      <point x="732.9791666666666" y="1357.0833333333333"/>
      <point x="732.9791666666666" y="1430.9583333333333" type="curve" smooth="yes"/>
      <point x="732.9791666666666" y="1502.25"/>
      <point x="679.875" y="1557.9375"/>
    </contour>
  </outline>
</glyph>
<glyph name="j" format="2">
  <advance width="1200.0"/>
  <unicode hex="006A"/>
  <anchor x="600.0" y="-406.1875" name="bottom "/>
  <anchor x="736.125" y="1054.25" name="top"/>
  <outline>
    <contour>
      <point x="899.1458333333334" y="1054.25" type="line"/>
      <point x="278.0" y="1054.25" type="line"/>
      <point x="278.0" y="908.0" type="line"/>
      <point x="707.1458333333334" y="908.0" type="line"/>
      <point x="707.1458333333334" y="178.85416666666669" type="line" smooth="yes"/>
      <point x="707.1458333333334" y="-108.1875"/>
      <point x="495.875" y="-223.9375"/>
      <point x="182.91666666666666" y="-278.8541666666667" type="curve"/>
      <point x="214.1875" y="-426.8541666666667" type="line"/>
      <point x="650.125" y="-351.8125"/>
      <point x="899.1458333333334" y="-178.1875"/>
      <point x="899.1458333333334" y="191.75" type="curve" smooth="yes"/>
    </contour>
    <contour>
      <point x="734.1875" y="1557.9375" type="curve" smooth="yes"/>
      <point x="656.125" y="1557.9375"/>
      <point x="603.0208333333334" y="1502.25"/>
      <point x="603.0208333333334" y="1430.9583333333333" type="curve" smooth="yes"/>
      <point x="603.0208333333334" y="1357.0833333333333"/>
      <point x="656.125" y="1301.0416666666667"/>
      <point x="734.1875" y="1301.0416666666667" type="curve" smooth="yes"/>
      <point x="814.125" y="1301.0416666666667"/>
      <point x="867.875" y="1357.0833333333333"/>
      <point x="867.875" y="1430.9583333333333" type="curve" smooth="yes"/>
      <point x="867.875" y="1502.25"/>
      <point x="814.125" y="1557.9375"/>
    </contour>
  </outline>
</glyph>
<glyph name="k" format="2">
  <advance width="1200.0"/>
  <unicode hex="006B"/>
  <anchor x="609.0416666666666" y="0.0" name="bottom"/>
  <anchor x="600.0" y="1478.1875" name="top"/>
  <outline>
    <contour>
      <point x="1093.75" y="1054.25" type="line"/>
      <point x="857.0416666666666" y="1054.25" type="line"/>
      <point x="409.875" y="576.1875" type="line"/>
      <point x="900.9583333333334" y="0.0" type="line"/>
      <point x="1144.0625" y="0.0" type="line"/>
      <point x="640.125" y="581.0208333333334" type="line"/>
    </contour>
    <contour>
      <point x="392.0625" y="1500.8541666666667" type="line"/>
      <point x="200.0625" y="1478.1875" type="line"/>
      <point x="200.0625" y="0.0" type="line"/>
      <point x="392.0625" y="0.0" type="line"/>
    </contour>
  </outline>
</glyph>
<glyph name="l" format="2">
  <advance width="1200.0"/>
  <unicode hex="006C"/>
  <anchor x="719.0416666666666" y="0.0" name="bottom"/>
  <anchor x="1123.0833333333333" y="766.0" name="center"/>
  <anchor x="526.8541666666666" y="1478.1875" name="top"/>
  <anchor x="702.9791666666666" y="1478.1875" name="topright"/>
  <outline>
    <contour>
      <point x="624.25" y="1478.1875" type="line"/>
      <point x="110.85416666666666" y="1478.1875" type="line"/>
      <point x="110.85416666666666" y="1331.9375" type="line"/>
      <point x="432.25" y="1331.9375" type="line"/>
      <point x="432.25" y="285.8125" type="line" smooth="yes"/>
      <point x="432.25" y="92.0625"/>
      <point x="557.9375" y="-24.958333333333336"/>
      <point x="755.8125" y="-24.958333333333336" type="curve" smooth="yes"/>
      <point x="866.9166666666666" y="-24.958333333333336"/>
      <point x="955.9375" y="1.875"/>
      <point x="1015.0208333333334" y="32.125" type="curve"/>
      <point x="964.8541666666666" y="168.85416666666669" type="line"/>
      <point x="909.875" y="146.97916666666669"/>
      <point x="854.0" y="132.97916666666669"/>
      <point x="792.25" y="132.97916666666669" type="curve" smooth="yes"/>
      <point x="693.0416666666666" y="132.97916666666669"/>
      <point x="624.25" y="171.14583333333334"/>
      <point x="624.25" y="272.0" type="curve" smooth="yes"/>
    </contour>
  </outline>
</glyph>
<glyph name="m" format="2">
  <advance width="1200.0"/>
  <unicode hex="006D"/>
  <anchor x="600.0" y="0.0" name="bottom"/>
  <anchor x="600.0" y="1054.25" name="top"/>
  <outline>
    <contour>
      <point x="899.8125" y="1078.9166666666667" type="curve" smooth="yes"/>
      <point x="794.1875" y="1078.9166666666667"/>
      <point x="725.9375" y="1023.0416666666666"/>
      <point x="667.75" y="941.9375" type="curve"/>
      <point x="636.0" y="1047.0208333333333"/>
      <point x="560.8541666666666" y="1078.9166666666667"/>
      <point x="480.8541666666667" y="1078.9166666666667" type="curve" smooth="yes"/>
      <point x="377.8125" y="1078.9166666666667"/>
      <point x="311.9375" y="1018.0"/>
      <point x="253.04166666666666" y="935.75" type="curve"/>
      <point x="241.08333333333334" y="1054.25" type="line"/>
      <point x="93.04166666666666" y="1054.25" type="line"/>
      <point x="93.04166666666666" y="0.0" type="line"/>
      <point x="267.9375" y="0.0" type="line"/>
      <point x="267.9375" y="812.0625" type="line"/>
      <point x="322.8541666666667" y="896.0625"/>
      <point x="379.8125" y="928.8541666666666"/>
      <point x="439.9375" y="928.8541666666666" type="curve" smooth="yes"/>
      <point x="510.0625" y="928.8541666666666"/>
      <point x="516.1875" y="878.25"/>
      <point x="516.1875" y="755.8125" type="curve" smooth="yes"/>
      <point x="516.1875" y="0.0" type="line"/>
      <point x="683.9375" y="0.0" type="line"/>
      <point x="683.9375" y="812.0625" type="line"/>
      <point x="738.8541666666666" y="896.0625"/>
      <point x="797.75" y="928.8541666666666"/>
      <point x="855.9375" y="928.8541666666666" type="curve" smooth="yes"/>
      <point x="926.0625" y="928.8541666666666"/>
      <point x="932.1875" y="878.25"/>
      <point x="932.1875" y="755.8125" type="curve" smooth="yes"/>
      <point x="932.1875" y="0.0" type="line"/>
      <point x="1106.9583333333333" y="0.0" type="line"/>
      <point x="1106.9583333333333" y="784.0625" type="line" smooth="yes"/>
      <point x="1106.9583333333333" y="1023.0833333333334"/>
      <point x="1008.1875" y="1078.9166666666667"/>
    </contour>
  </outline>
</glyph>
<glyph name="n" format="2">
  <advance width="1200.0"/>
  <unicode hex="006E"/>
  <anchor x="602.0" y="0.0" name="bottom"/>
  <anchor x="600.0625" y="1054.25" name="top"/>
  <outline>
    <contour>
      <point x="191.02083333333334" y="0.0" type="line"/>
      <point x="383.0208333333333" y="0.0" type="line"/>
      <point x="383.0208333333333" y="763.0208333333334" type="line"/>
      <point x="439.1458333333333" y="844.1875"/>
      <point x="536.25" y="929.875"/>
      <point x="651.0416666666666" y="929.875" type="curve" smooth="yes"/>
      <point x="796.8541666666666" y="929.875"/>
      <point x="818.9166666666666" y="850.0"/>
      <point x="818.9166666666666" y="648.9583333333334" type="curve" smooth="yes"/>
      <point x="818.9166666666666" y="0.0" type="line"/>
      <point x="1010.9166666666666" y="0.0" type="line"/>
      <point x="1010.9166666666666" y="767.0833333333334" type="line" smooth="yes"/>
      <point x="1010.9166666666666" y="962.9166666666666"/>
      <point x="918.0" y="1078.9166666666667"/>
      <point x="715.0416666666666" y="1078.9166666666667" type="curve" smooth="yes"/>
      <point x="591.0208333333334" y="1078.9166666666667"/>
      <point x="457.0833333333333" y="1019.8125"/>
      <point x="370.1875" y="911.875" type="curve"/>
      <point x="355.9375" y="1054.25" type="line"/>
      <point x="191.02083333333334" y="1054.25" type="line"/>
    </contour>
  </outline>
</glyph>
<glyph name="o" format="2">
  <advance width="1200.0"/>
  <unicode hex="006F"/>
  <anchor x="600.0" y="0.0" name="bottom"/>
  <anchor x="600.0" y="1054.25" name="top"/>
  <outline>
    <contour>
      <point x="601.9375" y="1078.9166666666667" type="curve" smooth="yes"/>
      <point x="300.1875" y="1078.9166666666667"/>
      <point x="136.95833333333334" y="852.8541666666666"/>
      <point x="136.95833333333334" y="526.1875" type="curve" smooth="yes"/>
      <point x="136.95833333333334" y="191.14583333333334"/>
      <point x="298.25" y="-24.958333333333336"/>
      <point x="600.0" y="-24.958333333333336" type="curve" smooth="yes"/>
      <point x="899.8125" y="-24.958333333333336"/>
      <point x="1063.0416666666667" y="200.95833333333334"/>
      <point x="1063.0416666666667" y="528.1875" type="curve" smooth="yes"/>
      <point x="1063.0416666666667" y="863.0208333333334"/>
      <point x="903.75" y="1078.9166666666667"/>
    </contour>
    <contour>
      <point x="601.9375" y="926.0" type="curve" smooth="yes"/>
      <point x="772.9166666666666" y="926.0"/>
      <point x="859.75" y="799.8125"/>
      <point x="859.75" y="528.1875" type="curve" smooth="yes"/>
      <point x="859.75" y="255.02083333333334"/>
      <point x="772.9166666666666" y="128.25"/>
      <point x="600.0" y="128.25" type="curve" smooth="yes"/>
      <point x="427.0833333333333" y="128.25"/>
      <point x="340.25" y="255.02083333333334"/>
      <point x="340.25" y="526.1875" type="curve" smooth="yes"/>
      <point x="340.25" y="799.8125"/>
      <point x="429.0208333333333" y="926.0"/>
    </contour>
  </outline>
</glyph>
<glyph name="p" format="2">
  <advance width="1200.0"/>
  <unicode hex="0070"/>
  <anchor x="600.0" y="0.0" name="bottom"/>
  <anchor x="600.0" y="-406.1875" name="bottom "/>
  <anchor x="600.0" y="1054.25" name="top"/>
  <outline>
    <contour>
      <point x="680.8541666666666" y="1078.9166666666667" type="curve" smooth="yes"/>
      <point x="558.25" y="1078.9166666666667"/>
      <point x="448.9583333333333" y="1020.0625"/>
      <point x="370.0625" y="912.0" type="curve"/>
      <point x="356.0625" y="1054.25" type="line"/>
      <point x="191.02083333333334" y="1054.25" type="line"/>
      <point x="191.02083333333334" y="-426.8541666666667" type="line"/>
      <point x="383.0208333333333" y="-404.1875" type="line"/>
      <point x="383.0208333333333" y="95.08333333333333" type="line"/>
      <point x="452.1875" y="14.979166666666666"/>
      <point x="543.9375" y="-24.958333333333336"/>
      <point x="656.9791666666666" y="-24.958333333333336" type="curve" smooth="yes"/>
      <point x="928.25" y="-24.958333333333336"/>
      <point x="1063.0416666666667" y="207.9375"/>
      <point x="1063.0416666666667" y="528.1875" type="curve" smooth="yes"/>
      <point x="1063.0416666666667" y="860.9166666666666"/>
      <point x="961.0833333333334" y="1078.9166666666667"/>
    </contour>
    <contour>
      <point x="631.9375" y="927.9375" type="curve" smooth="yes"/>
      <point x="786.1875" y="927.9375"/>
      <point x="859.75" y="801.75"/>
      <point x="859.75" y="528.0625" type="curve" smooth="yes"/>
      <point x="859.75" y="254.1875"/>
      <point x="775.0208333333334" y="130.1875"/>
      <point x="610.0625" y="130.1875" type="curve" smooth="yes"/>
      <point x="515.9375" y="130.1875"/>
      <point x="436.0625" y="176.97916666666666"/>
      <point x="383.0208333333333" y="256.1875" type="curve"/>
      <point x="383.0208333333333" y="766.1875" type="line"/>
      <point x="438.0625" y="849.9375"/>
      <point x="522.125" y="927.9375"/>
    </contour>
  </outline>
</glyph>
<glyph name="q" format="2">
  <advance width="1200.0"/>
  <unicode hex="0071"/>
  <anchor x="600.0" y="0.0" name="bottom"/>
  <anchor x="600.0" y="-406.1875" name="bottom "/>
  <anchor x="600.0" y="1054.25" name="top"/>
  <outline>
    <contour>
      <point x="541.9375" y="1078.9166666666667" type="curve" smooth="yes"/>
      <point x="278.9791666666667" y="1078.9166666666667"/>
      <point x="136.95833333333334" y="844.8541666666666"/>
      <point x="136.95833333333334" y="526.25" type="curve" smooth="yes"/>
      <point x="136.95833333333334" y="193.875"/>
      <point x="242.91666666666666" y="-24.958333333333336"/>
      <point x="524.9583333333334" y="-24.958333333333336" type="curve" smooth="yes"/>
      <point x="640.9166666666666" y="-24.958333333333336"/>
      <point x="742.0625" y="23.75"/>
      <point x="816.9791666666666" y="125.8125" type="curve"/>
      <point x="816.9791666666666" y="-404.1875" type="line"/>
      <point x="1008.9791666666666" y="-426.8541666666667" type="line"/>
      <point x="1008.9791666666666" y="1054.25" type="line"/>
      <point x="844.0625" y="1054.25" type="line"/>
      <point x="830.0625" y="944.0625" type="line"/>
      <point x="760.25" y="1031.75"/>
      <point x="665.0208333333334" y="1078.9166666666667"/>
    </contour>
    <contour>
      <point x="590.0625" y="928.0" type="curve" smooth="yes"/>
      <point x="684.125" y="928.0"/>
      <point x="764.0" y="881.1458333333334"/>
      <point x="816.9791666666666" y="800.9583333333334" type="curve"/>
      <point x="816.9791666666666" y="286.125" type="line"/>
      <point x="762.0" y="201.08333333333334"/>
      <point x="679.875" y="130.25"/>
      <point x="570.0625" y="130.25" type="curve" smooth="yes"/>
      <point x="417.8125" y="130.25"/>
      <point x="340.25" y="255.14583333333334"/>
      <point x="340.25" y="526.1875" type="curve" smooth="yes"/>
      <point x="340.25" y="798.125"/>
      <point x="424.9791666666667" y="928.0"/>
    </contour>
  </outline>
</glyph>
<glyph name="r" format="2">
  <advance width="1200.0"/>
  <unicode hex="0072"/>
  <anchor x="457.0416666666667" y="0.0" name="bottom"/>
  <anchor x="659.0416666666666" y="1054.25" name="top"/>
  <outline>
    <contour>
      <point x="201.02083333333334" y="0.0" type="line"/>
      <point x="766.9166666666666" y="0.0" type="line"/>
      <point x="766.9166666666666" y="142.25" type="line"/>
      <point x="553.0416666666666" y="142.25" type="line"/>
      <point x="553.0416666666666" y="565.0833333333334" type="line"/>
      <point x="620.9583333333334" y="787.875"/>
      <point x="734.125" y="904.1875"/>
      <point x="893.1458333333334" y="904.1875" type="curve" smooth="yes"/>
      <point x="938.8541666666666" y="904.1875"/>
      <point x="970.9791666666666" y="898.1875"/>
      <point x="1015.1458333333334" y="886.25" type="curve"/>
      <point x="1071.75" y="1054.25" type="line"/>
      <point x="1023.0416666666666" y="1069.0833333333333"/>
      <point x="979.0833333333334" y="1079.1458333333333"/>
      <point x="918.0625" y="1079.1458333333333" type="curve" smooth="yes"/>
      <point x="730.9166666666666" y="1079.1458333333333"/>
      <point x="623.0208333333334" y="981.75"/>
      <point x="543.1458333333334" y="806.8541666666666" type="curve"/>
      <point x="507.75" y="1054.25" type="line"/>
      <point x="201.02083333333334" y="1054.25" type="line"/>
      <point x="201.02083333333334" y="912.0625" type="line"/>
      <point x="361.0416666666667" y="912.0625" type="line"/>
      <point x="361.0416666666667" y="142.25" type="line"/>
      <point x="201.02083333333334" y="142.25" type="line"/>
    </contour>
    <contour>
      <point x="894.1875" y="683.875" type="line"/>
      <point x="1041.8125" y="683.875" type="line"/>
      <point x="1071.75" y="1054.25" type="line"/>
      <point x="916.0" y="1054.25" type="line"/>
      <point x="894.1875" y="926.0625" type="line"/>
    </contour>
  </outline>
</glyph>
<glyph name="s" format="2">
  <advance width="1200.0"/>
  <unicode hex="0073"/>
  <anchor x="594.25" y="0.0" name="bottom"/>
  <anchor x="616.9583333333334" y="1054.25" name="top"/>
  <outline>
    <contour>
      <point x="560.1875" y="128.0625" type="curve" smooth="yes"/>
      <point x="436.1875" y="128.0625"/>
      <point x="326.9583333333333" y="174.125"/>
      <point x="244.95833333333334" y="242.0" type="curve"/>
      <point x="138.91666666666666" y="120.1875" type="line"/>
      <point x="232.125" y="39.041666666666664"/>
      <point x="367.8125" y="-24.958333333333336"/>
      <point x="560.25" y="-24.958333333333336" type="curve" smooth="yes"/>
      <point x="793.1458333333334" y="-24.958333333333336"/>
      <point x="1013.8125" y="69.14583333333333"/>
      <point x="1013.8125" y="295.0416666666667" type="curve" smooth="yes"/>
      <point x="1013.8125" y="494.0"/>
      <point x="877.875" y="565.9375"/>
      <point x="671.875" y="622.0" type="curve" smooth="yes"/>
      <point x="460.0" y="680.0625"/>
      <point x="396.9791666666667" y="711.75"/>
      <point x="396.9791666666667" y="799.0416666666666" type="curve" smooth="yes"/>
      <point x="396.9791666666667" y="876.0"/>
      <point x="456.9583333333333" y="928.1875"/>
      <point x="612.9166666666666" y="928.1875" type="curve" smooth="yes"/>
      <point x="743.0416666666666" y="928.1875"/>
      <point x="836.0625" y="888.9583333333334"/>
      <point x="916.9583333333334" y="834.9583333333334" type="curve"/>
      <point x="999.0416666666666" y="960.25" type="line"/>
      <point x="908.9583333333334" y="1026.8541666666667"/>
      <point x="781.9375" y="1078.9166666666667"/>
      <point x="609.0833333333334" y="1078.9166666666667" type="curve" smooth="yes"/>
      <point x="361.75" y="1078.9166666666667"/>
      <point x="199.75" y="963.8125"/>
      <point x="199.75" y="785.1458333333334" type="curve" smooth="yes"/>
      <point x="199.75" y="601.0208333333334"/>
      <point x="338.9166666666667" y="531.8125"/>
      <point x="553.9375" y="477.875" type="curve" smooth="yes"/>
      <point x="774.9791666666666" y="421.8125"/>
      <point x="807.875" y="374.8541666666667"/>
      <point x="807.875" y="284.25" type="curve" smooth="yes"/>
      <point x="807.875" y="188.1875"/>
      <point x="712.9791666666666" y="128.0625"/>
    </contour>
  </outline>
</glyph>
<glyph name="t" format="2">
  <advance width="1200.0"/>
  <unicode hex="0074"/>
  <anchor x="739.0833333333334" y="0.0" name="bottom"/>
  <anchor x="600.0" y="528.125" name="center"/>
  <anchor x="486.9583333333333" y="1304.0" name="top"/>
  <anchor x="665.0833333333334" y="1524.125" name="topright"/>
  <outline>
    <contour>
      <point x="1046.9166666666667" y="54.25" type="curve"/>
      <point x="974.8541666666666" y="182.91666666666669" type="line"/>
      <point x="919.0416666666666" y="152.97916666666669"/>
      <point x="853.8125" y="132.97916666666669"/>
      <point x="775.9375" y="132.97916666666669" type="curve" smooth="yes"/>
      <point x="638.0" y="132.97916666666669"/>
      <point x="582.9583333333334" y="192.0625"/>
      <point x="582.9583333333334" y="307.75" type="curve" smooth="yes"/>
      <point x="582.9583333333334" y="909.875" type="line"/>
      <point x="921.0833333333334" y="909.875" type="line"/>
      <point x="943.0416666666666" y="1054.25" type="line"/>
      <point x="582.9583333333334" y="1054.25" type="line"/>
      <point x="582.9583333333334" y="1315.1458333333333" type="line"/>
      <point x="390.9583333333333" y="1292.0" type="line"/>
      <point x="390.9583333333333" y="1054.25" type="line"/>
      <point x="151.8125" y="1054.25" type="line"/>
      <point x="151.8125" y="909.875" type="line"/>
      <point x="390.9583333333333" y="909.875" type="line"/>
      <point x="390.9583333333333" y="305.8125" type="line" smooth="yes"/>
      <point x="390.9583333333333" y="110.25"/>
      <point x="519.0833333333334" y="-24.958333333333336"/>
      <point x="753.8125" y="-24.958333333333336" type="curve" smooth="yes"/>
      <point x="860.125" y="-24.958333333333336"/>
      <point x="972.9583333333334" y="6.0625"/>
    </contour>
  </outline>
</glyph>
<glyph name="u" format="2">
  <advance width="1200.0"/>
  <unicode hex="0075"/>
  <anchor x="1028.9791666666667" y="0.0" name="ogonek"/>
  <anchor x="600.0" y="1054.25" name="top"/>
  <outline>
    <contour>
      <point x="383.0208333333333" y="1054.25" type="line"/>
      <point x="191.02083333333334" y="1054.25" type="line"/>
      <point x="191.02083333333334" y="288.25" type="line" smooth="yes"/>
      <point x="191.02083333333334" y="92.0625"/>
      <point x="290.9583333333333" y="-24.958333333333336"/>
      <point x="495.0208333333333" y="-24.958333333333336" type="curve" smooth="yes"/>
      <point x="619.1458333333334" y="-24.958333333333336"/>
      <point x="749.0208333333334" y="32.916666666666664"/>
      <point x="830.0625" y="138.85416666666666" type="curve"/>
      <point x="844.0625" y="0.0" type="line"/>
      <point x="1008.9791666666666" y="0.0" type="line"/>
      <point x="1008.9791666666666" y="1054.25" type="line"/>
      <point x="816.9791666666666" y="1054.25" type="line"/>
      <point x="816.9791666666666" y="284.0" type="line"/>
      <point x="762.0" y="196.85416666666666"/>
      <point x="656.125" y="125.08333333333334"/>
      <point x="549.1458333333334" y="125.08333333333334" type="curve" smooth="yes"/>
      <point x="435.9375" y="125.08333333333334"/>
      <point x="383.0208333333333" y="179.04166666666666"/>
      <point x="383.0208333333333" y="311.75" type="curve" smooth="yes"/>
    </contour>
  </outline>
</glyph>
<glyph name="v" format="2">
  <advance width="1200.0"/>
  <unicode hex="0076"/>
  <anchor x="600.0" y="0.0" name="bottom"/>
  <anchor x="600.0" y="1054.25" name="top"/>
  <outline>
    <contour>
      <point x="1089.0416666666667" y="1054.25" type="line"/>
      <point x="891.75" y="1054.25" type="line"/>
      <point x="604.0625" y="167.08333333333334" type="line"/>
      <point x="315.0416666666667" y="1054.25" type="line"/>
      <point x="110.95833333333333" y="1054.25" type="line"/>
      <point x="487.0416666666667" y="0.0" type="line"/>
      <point x="711.1458333333334" y="0.0" type="line"/>
    </contour>
  </outline>
</glyph>
<glyph name="w" format="2">
  <advance width="1200.0"/>
  <unicode hex="0077"/>
  <anchor x="600.0" y="0.0" name="bottom"/>
  <anchor x="600.0" y="1054.25" name="top"/>
  <outline>
    <contour>
      <point x="990.9791666666666" y="0.0" type="line"/>
      <point x="1169.75" y="1054.25" type="line"/>
      <point x="986.9791666666666" y="1054.25" type="line"/>
      <point x="863.0208333333334" y="118.85416666666667" type="line"/>
      <point x="713.9375" y="920.25" type="line"/>
      <point x="504.125" y="920.25" type="line"/>
      <point x="344.9791666666667" y="118.85416666666667" type="line"/>
      <point x="221.08333333333334" y="1054.25" type="line"/>
      <point x="30.25" y="1054.25" type="line"/>
      <point x="216.95833333333334" y="0.0" type="line"/>
      <point x="466.9583333333333" y="0.0" type="line"/>
      <point x="605.875" y="763.0833333333334" type="line"/>
      <point x="734.9791666666666" y="0.0" type="line"/>
    </contour>
  </outline>
</glyph>
<glyph name="x" format="2">
  <advance width="1200.0"/>
  <unicode hex="0078"/>
  <anchor x="600.0" y="0.0" name="bottom"/>
  <anchor x="988.8541666666666" y="0.0" name="bottomright"/>
  <anchor x="600.0" y="1054.25" name="top"/>
  <outline>
    <contour>
      <point x="316.25" y="0.0" type="line"/>
      <point x="593.8125" y="442.8541666666667" type="line"/>
      <point x="869.0416666666666" y="0.0" type="line"/>
      <point x="1099.8125" y="0.0" type="line"/>
      <point x="715.0833333333334" y="564.1875" type="line"/>
      <point x="1050.9791666666667" y="1054.25" type="line"/>
      <point x="835.75" y="1054.25" type="line"/>
      <point x="602.0" y="670.9791666666666" type="line"/>
      <point x="370.0" y="1054.25" type="line"/>
      <point x="145.8125" y="1054.25" type="line"/>
      <point x="484.8541666666667" y="556.0625" type="line"/>
      <point x="100.1875" y="0.0" type="line"/>
    </contour>
  </outline>
</glyph>
<glyph name="y" format="2">
  <advance width="1200.0"/>
  <unicode hex="0079"/>
  <anchor x="600.0" y="-406.1875" name="bottom "/>
  <anchor x="600.0" y="1054.25" name="top"/>
  <outline>
    <contour>
      <point x="1087.8125" y="1054.25" type="line"/>
      <point x="889.75" y="1054.25" type="line"/>
      <point x="603.75" y="140.0" type="line"/>
      <point x="317.0208333333333" y="1054.25" type="line"/>
      <point x="112.1875" y="1054.25" type="line"/>
      <point x="475.0208333333333" y="0.0" type="line"/>
      <point x="539.75" y="0.0" type="line"/>
      <point x="483.0416666666667" y="-158.95833333333334"/>
      <point x="419.0208333333333" y="-243.14583333333334"/>
      <point x="202.91666666666666" y="-278.1875" type="curve"/>
      <point x="229.875" y="-426.9166666666667" type="line"/>
      <point x="516.0625" y="-399.875"/>
      <point x="643.0416666666666" y="-230.97916666666666"/>
      <point x="720.25" y="-5.8125" type="curve" smooth="yes"/>
    </contour>
  </outline>
</glyph>
<glyph name="z" format="2">
  <advance width="1200.0"/>
  <unicode hex="007A"/>
  <anchor x="600.0" y="0.0" name="bottom"/>
  <anchor x="619.8125" y="1054.25" name="top"/>
  <outline>
    <contour>
      <point x="427.875" y="158.91666666666669" type="line"/>
      <point x="998.9583333333334" y="909.75" type="line"/>
      <point x="998.9583333333334" y="1054.25" type="line"/>
      <point x="240.95833333333334" y="1054.25" type="line"/>
      <point x="240.95833333333334" y="893.75" type="line"/>
      <point x="769.8125" y="893.75" type="line"/>
      <point x="195.02083333333334" y="142.91666666666669" type="line"/>
      <point x="195.02083333333334" y="0.0" type="line"/>
      <point x="982.1875" y="0.0" type="line"/>
      <point x="1005.0833333333334" y="158.91666666666669" type="line"/>
    </contour>
  </outline>
</glyph>
<glyph name="braceleft" format="2">
  <advance width="1200.0"/>
  <unicode hex="007B"/>
  <outline>
    <contour>
      <point x="907.8125" y="1672.25" type="line"/>
      <point x="659.9375" y="1672.25"/>
      <point x="463.1041666666667" y="1601.0833333333333"/>
      <point x="489.875" y="1350.9791666666667" type="curve" smooth="yes"/>
      <point x="528.9166666666666" y="984.9583333333334" type="line" smooth="yes"/>
      <point x="543.625" y="845.875"/>
      <point x="482.9791666666667" y="776.9791666666666"/>
      <point x="231.02083333333334" y="776.9791666666666" type="curve"/>
      <point x="231.02083333333334" y="623.0208333333334" type="line"/>
      <point x="483.0416666666667" y="623.0208333333334"/>
      <point x="543.625" y="552.1875"/>
      <point x="528.9166666666666" y="413.75" type="curve" smooth="yes"/>
      <point x="489.875" y="48.958333333333336" type="line" smooth="yes"/>
      <point x="463.1666666666667" y="-201.02083333333334"/>
      <point x="659.9375" y="-272.25"/>
      <point x="907.8125" y="-272.25" type="curve"/>
      <point x="907.8125" y="-125.875" type="line"/>
      <point x="764.8541666666666" y="-125.875"/>
      <point x="654.9791666666666" y="-92.125"/>
      <point x="666.9166666666666" y="28.25" type="curve" smooth="yes"/>
      <point x="706.9583333333334" y="420.125" type="line" smooth="yes"/>
      <point x="725.7916666666666" y="605.1458333333334"/>
      <point x="651.9375" y="673.8125"/>
      <point x="499.9375" y="700.0" type="curve"/>
      <point x="647.0416666666666" y="726.125"/>
      <point x="725.1458333333334" y="803.0208333333334"/>
      <point x="706.9583333333334" y="979.875" type="curve" smooth="yes"/>
      <point x="666.9166666666666" y="1371.75" type="line" smooth="yes"/>
      <point x="654.9791666666666" y="1490.1875"/>
      <point x="765.1458333333334" y="1525.875"/>
      <point x="907.8125" y="1525.875" type="curve"/>
    </contour>
  </outline>
</glyph>
<glyph name="bar" format="2">
  <advance width="1200.0"/>
  <unicode hex="007C"/>
  <outline>
    <contour>
      <point x="685.9375" y="1614.1875" type="line"/>
      <point x="512.0625" y="1614.1875" type="line"/>
      <point x="512.0625" y="-204.1875" type="line"/>
      <point x="685.9375" y="-204.1875" type="line"/>
    </contour>
  </outline>
</glyph>
<glyph name="braceright" format="2">
  <advance width="1200.0"/>
  <unicode hex="007D"/>
  <outline>
    <contour>
      <point x="292.1875" y="1672.25" type="curve"/>
      <point x="292.1875" y="1525.875" type="line"/>
      <point x="435.1458333333333" y="1525.875"/>
      <point x="545.0208333333334" y="1490.1875"/>
      <point x="533.0833333333334" y="1371.75" type="curve" smooth="yes"/>
      <point x="493.0416666666667" y="979.875" type="line" smooth="yes"/>
      <point x="474.8541666666667" y="802.9583333333334"/>
      <point x="551.9375" y="726.1875"/>
      <point x="719.1458333333334" y="698.0625" type="curve"/>
      <point x="549.0833333333334" y="673.875"/>
      <point x="474.2083333333333" y="605.0833333333334"/>
      <point x="493.0416666666667" y="420.125" type="curve" smooth="yes"/>
      <point x="533.0833333333334" y="28.25" type="line" smooth="yes"/>
      <point x="545.0208333333334" y="-92.125"/>
      <point x="434.8541666666667" y="-125.875"/>
      <point x="292.1875" y="-125.875" type="curve"/>
      <point x="292.1875" y="-272.25" type="line"/>
      <point x="540.0625" y="-272.25"/>
      <point x="736.8958333333334" y="-201.08333333333334"/>
      <point x="710.125" y="49.020833333333336" type="curve" smooth="yes"/>
      <point x="671.0833333333334" y="413.75" type="line" smooth="yes"/>
      <point x="656.375" y="552.1875"/>
      <point x="735.75" y="623.0208333333334"/>
      <point x="968.9791666666666" y="623.0208333333334" type="curve"/>
      <point x="968.9791666666666" y="776.9791666666666" type="line"/>
      <point x="735.0416666666666" y="776.9791666666666"/>
      <point x="656.375" y="845.875"/>
      <point x="671.0833333333334" y="984.9583333333334" type="curve" smooth="yes"/>
      <point x="710.125" y="1351.0416666666667" type="line" smooth="yes"/>
      <point x="736.8333333333334" y="1601.0208333333333"/>
      <point x="540.0625" y="1672.25"/>
    </contour>
  </outline>
</glyph>
<glyph name="asciitilde" format="2">
  <advance width="1200.0"/>
  <unicode hex="007E"/>
  <outline>
    <contour>
      <point x="409.875" y="810.9166666666666" type="curve" smooth="yes"/>
      <point x="231.8125" y="810.9166666666666"/>
      <point x="143.08333333333334" y="670.9583333333334"/>
      <point x="79.8125" y="545.9375" type="curve"/>
      <point x="209.02083333333334" y="483.0833333333333" type="line"/>
      <point x="261.0208333333333" y="579.0833333333334"/>
      <point x="318.0625" y="650.0625"/>
      <point x="403.8125" y="650.0625" type="curve" smooth="yes"/>
      <point x="528.9791666666666" y="650.0625"/>
      <point x="602.0" y="450.0625"/>
      <point x="790.125" y="450.0625" type="curve" smooth="yes"/>
      <point x="966.1875" y="450.0625"/>
      <point x="1057.1458333333333" y="587.8125"/>
      <point x="1120.1875" y="713.75" type="curve"/>
      <point x="990.9791666666666" y="778.25" type="line"/>
      <point x="938.9166666666666" y="682.0625"/>
      <point x="878.0" y="610.9166666666666"/>
      <point x="796.1875" y="610.9166666666666" type="curve" smooth="yes"/>
      <point x="674.25" y="610.9166666666666"/>
      <point x="609.75" y="810.9166666666666"/>
    </contour>
  </outline>
</glyph>
<glyph name="exclamdown" format="2">
  <advance width="1200.0"/>
  <unicode hex="00A1"/>
  <outline>
    <contour>
      <point x="678.8541666666666" y="513.875" type="line"/>
      <point x="516.9166666666666" y="513.875" type="line"/>
      <point x="490.125" y="-397.0833333333333" type="line"/>
      <point x="708.0" y="-397.0833333333333" type="line"/>
    </contour>
    <contour>
      <point x="598.0625" y="1001.0416666666666" type="curve" smooth="yes"/>
      <point x="519.0833333333334" y="1001.0416666666666"/>
      <point x="457.75" y="938.0625"/>
      <point x="457.75" y="859.0833333333334" type="curve" smooth="yes"/>
      <point x="457.75" y="781.75"/>
      <point x="519.0833333333334" y="718.1875"/>
      <point x="598.0625" y="718.1875" type="curve" smooth="yes"/>
      <point x="677.75" y="718.1875"/>
      <point x="740.9583333333334" y="781.75"/>
      <point x="740.9583333333334" y="859.0833333333334" type="curve" smooth="yes"/>
      <point x="740.9583333333334" y="938.0625"/>
      <point x="677.75" y="1001.0416666666666"/>
    </contour>
  </outline>
</glyph>
<glyph name="cent" format="2">
  <advance width="1200.0"/>
  <unicode hex="00A2"/>
  <anchor x="662.1875" y="0.0" name="bottomAttach"/>
  <outline>
    <contour>
      <point x="752.0625" y="1369.1458333333333" type="line"/>
      <point x="591.9375" y="1369.1458333333333" type="line"/>
      <point x="591.9375" y="1067.1458333333333" type="line"/>
      <point x="336.0" y="1028.0625"/>
      <point x="202.85416666666666" y="810.0625"/>
      <point x="202.85416666666666" y="522.0625" type="curve" smooth="yes"/>
      <point x="202.85416666666666" y="223.14583333333334"/>
      <point x="335.875" y="22.958333333333336"/>
      <point x="589.9375" y="-12.1875" type="curve"/>
      <point x="589.9375" y="-309.0833333333333" type="line"/>
      <point x="752.0625" y="-309.0833333333333" type="line"/>
      <point x="752.0625" y="-14.958333333333334" type="line"/>
      <point x="839.0208333333334" y="-2.1875"/>
      <point x="921.0833333333334" y="28.0625"/>
      <point x="997.1458333333334" y="92.0" type="curve"/>
      <point x="905.8125" y="224.25" type="line"/>
      <point x="820.125" y="158.85416666666669"/>
      <point x="754.8541666666666" y="136.85416666666669"/>
      <point x="677.75" y="136.85416666666669" type="curve" smooth="yes"/>
      <point x="511.9375" y="136.85416666666669"/>
      <point x="408.8541666666667" y="248.25"/>
      <point x="408.8541666666667" y="522.0625" type="curve" smooth="yes"/>
      <point x="408.8541666666667" y="794.0"/>
      <point x="509.8125" y="921.8125"/>
      <point x="677.8125" y="921.8125" type="curve" smooth="yes"/>
      <point x="752.9166666666666" y="921.8125"/>
      <point x="819.1458333333334" y="903.75"/>
      <point x="904.0625" y="839.9375" type="curve"/>
      <point x="997.1458333333334" y="964.0625" type="line"/>
      <point x="921.1458333333334" y="1026.125"/>
      <point x="839.0208333333334" y="1059.0208333333333"/>
      <point x="752.0625" y="1068.8541666666667" type="curve"/>
    </contour>
  </outline>
</glyph>
<glyph name="sterling" format="2">
  <advance width="1200.0"/>
  <unicode hex="00A3"/>
  <outline>
    <contour>
      <point x="695.0208333333334" y="1402.9166666666667" type="curve" smooth="yes"/>
      <point x="447.75" y="1402.9166666666667"/>
      <point x="302.9583333333333" y="1242.0625"/>
      <point x="302.9583333333333" y="1026.9583333333333" type="curve"/>
      <point x="302.9583333333333" y="779.75" type="line"/>
      <point x="141.75" y="779.75" type="line"/>
      <point x="141.75" y="655.1458333333334" type="line"/>
      <point x="302.9583333333333" y="655.1458333333334" type="line"/>
      <point x="302.9583333333333" y="416.8541666666667" type="line" smooth="yes"/>
      <point x="302.9583333333333" y="289.8125"/>
      <point x="296.0625" y="201.08333333333334"/>
      <point x="138.25" y="151.14583333333334" type="curve"/>
      <point x="138.25" y="0.0" type="line"/>
      <point x="1019.875" y="0.0" type="line"/>
      <point x="1043.0208333333333" y="158.91666666666669" type="line"/>
      <point x="370.0625" y="158.91666666666669" type="line"/>
      <point x="474.0625" y="216.91666666666669"/>
      <point x="494.1875" y="314.25"/>
      <point x="494.1875" y="422.0625" type="curve" smooth="yes"/>
      <point x="494.1875" y="655.1458333333334" type="line"/>
      <point x="899.875" y="655.1458333333334" type="line"/>
      <point x="899.875" y="779.75" type="line"/>
      <point x="494.1875" y="779.75" type="line"/>
      <point x="494.1875" y="1013.1458333333334" type="line" smooth="yes"/>
      <point x="494.1875" y="1167.0416666666667"/>
      <point x="567.8125" y="1246.0"/>
      <point x="703.875" y="1246.0" type="curve" smooth="yes"/>
      <point x="799.0833333333334" y="1246.0"/>
      <point x="869.9375" y="1212.1875"/>
      <point x="934.9166666666666" y="1130.9583333333333" type="curve"/>
      <point x="1061.75" y="1225.75" type="line"/>
      <point x="970.8541666666666" y="1350.1875"/>
      <point x="845.0208333333334" y="1402.9166666666667"/>
    </contour>
  </outline>
</glyph>
<glyph name="currency" format="2">
  <advance width="1200.0"/>
  <unicode hex="00A4"/>
  <outline>
    <contour>
      <point x="181.04166666666666" y="1220.125" type="line"/>
      <point x="67.8125" y="1106.25" type="line"/>
      <point x="241.02083333333334" y="929.75" type="line"/>
      <point x="199.08333333333334" y="863.75"/>
      <point x="172.91666666666666" y="779.8125"/>
      <point x="172.91666666666666" y="684.0" type="curve" smooth="yes"/>
      <point x="172.91666666666666" y="586.125"/>
      <point x="199.14583333333334" y="502.25"/>
      <point x="243.02083333333334" y="435.0208333333333" type="curve"/>
      <point x="67.8125" y="259.75" type="line"/>
      <point x="181.04166666666666" y="145.875" type="line"/>
      <point x="356.25" y="321.0833333333333" type="line"/>
      <point x="424.25" y="278.8541666666667"/>
      <point x="508.1875" y="256.9791666666667"/>
      <point x="602.0" y="256.9791666666667" type="curve" smooth="yes"/>
      <point x="693.8125" y="256.9791666666667"/>
      <point x="775.8125" y="278.8541666666667"/>
      <point x="841.8125" y="321.0833333333333" type="curve"/>
      <point x="1018.9583333333334" y="147.9375" type="line"/>
      <point x="1132.1875" y="261.75" type="line"/>
      <point x="958.9791666666666" y="433.0208333333333" type="line"/>
      <point x="1002.8541666666666" y="500.25"/>
      <point x="1033.0833333333333" y="584.1875"/>
      <point x="1033.0833333333333" y="684.0" type="curve" smooth="yes"/>
      <point x="1033.0833333333333" y="779.875"/>
      <point x="1004.8541666666666" y="865.0416666666666"/>
      <point x="960.9791666666666" y="931.0416666666666" type="curve"/>
      <point x="1132.1875" y="1104.25" type="line"/>
      <point x="1018.9583333333334" y="1218.125" type="line"/>
      <point x="843.75" y="1042.9166666666667" type="line"/>
      <point x="777.0416666666666" y="1087.1458333333333"/>
      <point x="693.8125" y="1109.0208333333333"/>
      <point x="602.0" y="1109.0208333333333" type="curve" smooth="yes"/>
      <point x="508.125" y="1109.0208333333333"/>
      <point x="424.25" y="1084.8541666666667"/>
      <point x="356.9583333333333" y="1042.9166666666667" type="curve"/>
    </contour>
    <contour>
      <point x="602.0" y="960.25" type="curve" smooth="yes"/>
      <point x="763.9375" y="960.25"/>
      <point x="847.0208333333334" y="855.9375"/>
      <point x="847.0208333333334" y="684.0" type="curve" smooth="yes"/>
      <point x="847.0208333333334" y="510.0625"/>
      <point x="763.9375" y="407.0416666666667"/>
      <point x="602.0" y="407.0416666666667" type="curve" smooth="yes"/>
      <point x="440.0" y="407.0416666666667"/>
      <point x="354.9166666666667" y="510.0625"/>
      <point x="354.9166666666667" y="684.0" type="curve" smooth="yes"/>
      <point x="354.9166666666667" y="855.9375"/>
      <point x="440.0" y="960.25"/>
    </contour>
  </outline>
</glyph>
<glyph name="yen" format="2">
  <advance width="1200.0"/>
  <unicode hex="00A5"/>
  <outline>
    <contour>
      <point x="1131.0416666666667" y="1378.25" type="line"/>
      <point x="929.0416666666666" y="1378.25" type="line"/>
      <point x="610.0625" y="755.9375" type="line"/>
      <point x="602.0625" y="755.9375" type="line"/>
      <point x="282.25" y="1378.25" type="line"/>
      <point x="68.95833333333333" y="1378.25" type="line"/>
      <point x="448.8541666666667" y="693.0208333333334" type="line"/>
      <point x="222.91666666666666" y="693.0208333333334" type="line"/>
      <point x="222.91666666666666" y="568.125" type="line"/>
      <point x="500.1875" y="568.125" type="line"/>
      <point x="500.1875" y="402.0625" type="line"/>
      <point x="222.91666666666666" y="402.0625" type="line"/>
      <point x="222.91666666666666" y="277.75" type="line"/>
      <point x="500.1875" y="277.75" type="line"/>
      <point x="500.1875" y="0.0" type="line"/>
      <point x="699.9375" y="0.0" type="line"/>
      <point x="699.9375" y="277.75" type="line"/>
      <point x="980.8541666666666" y="277.75" type="line"/>
      <point x="980.8541666666666" y="402.0625" type="line"/>
      <point x="699.9375" y="402.0625" type="line"/>
      <point x="699.9375" y="568.125" type="line"/>
      <point x="980.8541666666666" y="568.125" type="line"/>
      <point x="980.8541666666666" y="693.0208333333334" type="line"/>
      <point x="748.9166666666666" y="693.0208333333334" type="line"/>
    </contour>
  </outline>
</glyph>
<glyph name="brokenbar" format="2">
  <advance width="1200.0"/>
  <unicode hex="00A6"/>
  <outline>
    <contour>
      <point x="685.9375" y="1614.1875" type="line"/>
      <point x="512.0625" y="1614.1875" type="line"/>
      <point x="512.0625" y="901.0416666666666" type="line"/>
      <point x="685.9375" y="901.0416666666666" type="line"/>
    </contour>
    <contour>
      <point x="685.9375" y="508.9583333333333" type="line"/>
      <point x="512.0625" y="508.9583333333333" type="line"/>
      <point x="512.0625" y="-204.1875" type="line"/>
      <point x="685.9375" y="-204.1875" type="line"/>
    </contour>
  </outline>
</glyph>
<glyph name="section" format="2">
  <advance width="1200.0"/>
  <unicode hex="00A7"/>
  <outline>
    <contour>
      <point x="634.125" y="1402.9166666666667" type="curve" smooth="yes"/>
      <point x="416.9166666666667" y="1402.9166666666667"/>
      <point x="246.91666666666666" y="1287.875"/>
      <point x="246.91666666666666" y="1105.0416666666667" type="curve" smooth="yes"/>
      <point x="246.91666666666666" y="1014.9791666666666"/>
      <point x="291.1458333333333" y="942.8541666666666"/>
      <point x="364.8541666666667" y="887.0833333333334" type="curve"/>
      <point x="277.1458333333333" y="833.0208333333334"/>
      <point x="203.14583333333334" y="745.1458333333334"/>
      <point x="203.14583333333334" y="636.9583333333334" type="curve" smooth="yes"/>
      <point x="203.14583333333334" y="475.9375"/>
      <point x="298.0" y="399.8125"/>
      <point x="510.9583333333333" y="328.25" type="curve" smooth="yes"/>
      <point x="712.9166666666666" y="262.25"/>
      <point x="756.0625" y="227.08333333333334"/>
      <point x="756.0625" y="140.1875" type="curve" smooth="yes"/>
      <point x="756.0625" y="58.0625"/>
      <point x="673.8125" y="7.145833333333336"/>
      <point x="562.25" y="7.145833333333336" type="curve" smooth="yes"/>
      <point x="453.0416666666667" y="7.145833333333336"/>
      <point x="372.9166666666667" y="36.85416666666667"/>
      <point x="293.0833333333333" y="93.14583333333334" type="curve"/>
      <point x="207.04166666666666" y="-33.04166666666667" type="line"/>
      <point x="296.0" y="-99.75"/>
      <point x="408.8541666666667" y="-143.75"/>
      <point x="557.875" y="-143.75" type="curve" smooth="yes"/>
      <point x="790.125" y="-143.75"/>
      <point x="953.1458333333334" y="-30.125"/>
      <point x="953.1458333333334" y="152.125" type="curve" smooth="yes"/>
      <point x="953.1458333333334" y="246.25"/>
      <point x="906.9791666666666" y="317.0208333333333"/>
      <point x="834.9791666666666" y="371.0833333333333" type="curve"/>
      <point x="922.9791666666666" y="425.1458333333333"/>
      <point x="994.9166666666666" y="513.0833333333334"/>
      <point x="994.9166666666666" y="622.9166666666666" type="curve" smooth="yes"/>
      <point x="994.9166666666666" y="782.0625"/>
      <point x="901.9375" y="860.125"/>
      <point x="688.9791666666666" y="929.75" type="curve" smooth="yes"/>
      <point x="486.9791666666667" y="996.9166666666666"/>
      <point x="444.0625" y="1033.0208333333333"/>
      <point x="444.0625" y="1118.9791666666667" type="curve" smooth="yes"/>
      <point x="444.0625" y="1199.8125"/>
      <point x="516.9583333333334" y="1253.0208333333333"/>
      <point x="627.75" y="1253.0208333333333" type="curve" smooth="yes"/>
      <point x="736.1875" y="1253.0208333333333"/>
      <point x="810.8541666666666" y="1222.8541666666667"/>
      <point x="890.9791666666666" y="1168.9166666666667" type="curve"/>
      <point x="977.1458333333334" y="1295.1458333333333" type="line"/>
      <point x="886.0625" y="1358.9166666666667"/>
      <point x="780.125" y="1402.9166666666667"/>
    </contour>
    <contour>
      <point x="478.1875" y="825.75" type="curve"/>
      <point x="748.0" y="727.0833333333334"/>
      <point x="810.9166666666666" y="704.25"/>
      <point x="810.9166666666666" y="598.0625" type="curve" smooth="yes"/>
      <point x="810.9166666666666" y="542.9166666666666"/>
      <point x="778.0625" y="482.0"/>
      <point x="721.75" y="432.1875" type="curve"/>
      <point x="452.0" y="528.9166666666666"/>
      <point x="389.0833333333333" y="549.75"/>
      <point x="389.0833333333333" y="661.9375" type="curve" smooth="yes"/>
      <point x="389.0833333333333" y="715.1458333333334"/>
      <point x="419.875" y="776.0"/>
    </contour>
  </outline>
</glyph>
<glyph name="dieresis" format="2">
  <advance width="1200.0"/>
  <unicode hex="00A8"/>
  <anchor x="600.0" y="1054.25" name="_top"/>
  <anchor x="600.0" y="1405.9375" name="top"/>
  <outline>
    <contour>
      <point x="389.0208333333333" y="1293.0833333333333" type="curve" smooth="yes"/>
      <point x="454.25" y="1293.0833333333333"/>
      <point x="505.875" y="1342.0625"/>
      <point x="505.875" y="1407.875" type="curve" smooth="yes"/>
      <point x="505.875" y="1474.9166666666667"/>
      <point x="454.25" y="1524.25"/>
      <point x="389.0208333333333" y="1524.25" type="curve" smooth="yes"/>
      <point x="320.9166666666667" y="1524.25"/>
      <point x="269.875" y="1474.9166666666667"/>
      <point x="269.875" y="1407.875" type="curve" smooth="yes"/>
      <point x="269.875" y="1342.0625"/>
      <point x="320.9166666666667" y="1293.0833333333333"/>
    </contour>
    <contour>
      <point x="809.0416666666666" y="1293.0833333333333" type="curve" smooth="yes"/>
      <point x="876.8541666666666" y="1293.0833333333333"/>
      <point x="928.1875" y="1342.0625"/>
      <point x="928.1875" y="1407.875" type="curve" smooth="yes"/>
      <point x="928.1875" y="1474.9166666666667"/>
      <point x="876.8541666666666" y="1524.25"/>
      <point x="809.0416666666666" y="1524.25" type="curve" smooth="yes"/>
      <point x="743.9375" y="1524.25"/>
      <point x="692.1875" y="1474.9166666666667"/>
      <point x="692.1875" y="1407.875" type="curve" smooth="yes"/>
      <point x="692.1875" y="1342.0625"/>
      <point x="743.9375" y="1293.0833333333333"/>
    </contour>
  </outline>
</glyph>
<glyph name="copyright" format="2">
  <advance width="1200.0"/>
  <unicode hex="00A9"/>
  <outline>
    <contour>
      <point x="602.0" y="1496.9791666666667" type="curve" smooth="yes"/>
      <point x="253.02083333333334" y="1496.9791666666667"/>
      <point x="51.875" y="1216.1875"/>
      <point x="51.875" y="867.0833333333334" type="curve" smooth="yes"/>
      <point x="51.875" y="518.9791666666666"/>
      <point x="252.0" y="238.25"/>
      <point x="602.0" y="238.25" type="curve" smooth="yes"/>
      <point x="949.0416666666666" y="238.25"/>
      <point x="1148.125" y="518.9791666666666"/>
      <point x="1148.125" y="867.0833333333334" type="curve" smooth="yes"/>
      <point x="1148.125" y="1216.1875"/>
      <point x="949.0416666666666" y="1496.9791666666667"/>
    </contour>
    <contour>
      <point x="610.9583333333334" y="1249.8125" type="curve" smooth="yes"/>
      <point x="432.9791666666667" y="1249.8125"/>
      <point x="283.9375" y="1117.0208333333333"/>
      <point x="283.9375" y="869.0833333333334" type="curve" smooth="yes"/>
      <point x="283.9375" y="622.1875"/>
      <point x="419.75" y="487.9375"/>
      <point x="612.9583333333334" y="487.9375" type="curve" smooth="yes"/>
      <point x="722.0" y="487.9375"/>
      <point x="798.0625" y="531.875"/>
      <point x="854.25" y="582.125" type="curve"/>
      <point x="784.9166666666666" y="684.0625" type="line"/>
      <point x="739.9375" y="643.0833333333334"/>
      <point x="688.25" y="617.1458333333334"/>
      <point x="619.0416666666666" y="617.1458333333334" type="curve" smooth="yes"/>
      <point x="512.8541666666666" y="617.1458333333334"/>
      <point x="440.1875" y="695.875"/>
      <point x="440.1875" y="869.0833333333334" type="curve" smooth="yes"/>
      <point x="440.1875" y="1052.9791666666667"/>
      <point x="519.1458333333334" y="1126.25"/>
      <point x="619.0416666666666" y="1126.25" type="curve" smooth="yes"/>
      <point x="671.1458333333334" y="1126.25"/>
      <point x="719.9375" y="1108.9583333333333"/>
      <point x="768.8541666666666" y="1068.9791666666667" type="curve"/>
      <point x="844.25" y="1169.0208333333333" type="line"/>
      <point x="775.0833333333334" y="1223.0416666666667"/>
      <point x="712.1875" y="1249.8125"/>
    </contour>
    <contour>
      <point x="602.0" y="1390.9166666666667" type="curve" smooth="yes"/>
      <point x="890.0625" y="1390.9166666666667"/>
      <point x="1028.9791666666667" y="1157.1458333333333"/>
      <point x="1028.9791666666667" y="867.0833333333334" type="curve" smooth="yes"/>
      <point x="1028.9791666666667" y="579.0208333333334"/>
      <point x="890.0" y="346.25"/>
      <point x="602.0" y="346.25" type="curve" smooth="yes"/>
      <point x="312.0" y="346.25"/>
      <point x="173.02083333333334" y="579.0208333333334"/>
      <point x="173.02083333333334" y="867.0833333333334" type="curve" smooth="yes"/>
      <point x="173.02083333333334" y="1157.1458333333333"/>
      <point x="312.0" y="1390.9166666666667"/>
    </contour>
  </outline>
</glyph>
<glyph name="ordfeminine" format="2">
  <advance width="1200.0"/>
  <unicode hex="00AA"/>
  <outline>
    <contour>
      <point x="580.0625" y="1500.8541666666667" type="curve" smooth="yes"/>
      <point x="490.0" y="1500.8541666666667"/>
      <point x="383.0833333333333" y="1485.0833333333333"/>
      <point x="264.9583333333333" y="1441.1458333333333" type="curve"/>
      <point x="313.8125" y="1313.75" type="line"/>
      <point x="409.75" y="1347.0416666666667"/>
      <point x="499.75" y="1361.0416666666667"/>
      <point x="554.9166666666666" y="1361.0416666666667" type="curve" smooth="yes"/>
      <point x="679.0833333333334" y="1361.0416666666667"/>
      <point x="747.0416666666666" y="1320.9583333333333"/>
      <point x="747.0416666666666" y="1211.75" type="curve" smooth="yes"/>
      <point x="747.0416666666666" y="1157.0416666666667" type="line"/>
      <point x="632.0" y="1157.0416666666667" type="line" smooth="yes"/>
      <point x="359.8125" y="1157.0416666666667"/>
      <point x="198.0" y="1058.9583333333333"/>
      <point x="198.0" y="880.1875" type="curve" smooth="yes"/>
      <point x="198.0" y="720.0625"/>
      <point x="320.0" y="613.8125"/>
      <point x="502.0625" y="613.8125" type="curve" smooth="yes"/>
      <point x="604.1875" y="613.8125"/>
      <point x="704.0625" y="655.8125"/>
      <point x="770.0625" y="731.875" type="curve"/>
      <point x="801.0208333333334" y="657.9375"/>
      <point x="857.0416666666666" y="624.0"/>
      <point x="944.9166666666666" y="613.9375" type="curve"/>
      <point x="986.25" y="733.75" type="line"/>
      <point x="942.9583333333334" y="747.75"/>
      <point x="921.0833333333334" y="773.0416666666666"/>
      <point x="921.0833333333334" y="832.9791666666666" type="curve" smooth="yes"/>
      <point x="921.0833333333334" y="1217.8125" type="line" smooth="yes"/>
      <point x="921.0833333333334" y="1395.1458333333333"/>
      <point x="813.1458333333334" y="1500.8541666666667"/>
    </contour>
    <contour>
      <point x="1001.8125" y="161.75" type="line"/>
      <point x="209.04166666666666" y="161.75" type="line"/>
      <point x="209.04166666666666" y="0.0" type="line"/>
      <point x="1001.8125" y="0.0" type="line"/>
    </contour>
    <contour>
      <point x="747.0416666666666" y="1036.9583333333333" type="line"/>
      <point x="747.0416666666666" y="852.1875" type="line"/>
      <point x="698.0625" y="785.1458333333334"/>
      <point x="622.9166666666666" y="742.9791666666666"/>
      <point x="546.1875" y="742.9791666666666" type="curve" smooth="yes"/>
      <point x="445.0208333333333" y="742.9791666666666"/>
      <point x="386.125" y="792.1875"/>
      <point x="386.125" y="888.25" type="curve" smooth="yes"/>
      <point x="386.125" y="983.75"/>
      <point x="461.0833333333333" y="1036.9583333333333"/>
      <point x="640.125" y="1036.9583333333333" type="curve" smooth="yes"/>
    </contour>
  </outline>
</glyph>
<glyph name="guillemetleft" format="2">
  <advance width="1200.0"/>
  <unicode hex="00AB"/>
  <outline>
    <contour>
      <point x="618.25" y="170.95833333333334" type="line"/>
      <point x="354.9583333333333" y="584.9791666666666" type="line"/>
      <point x="618.25" y="999.9375" type="line"/>
      <point x="504.0625" y="1072.9583333333333" type="line"/>
      <point x="155.02083333333334" y="651.0416666666666" type="line"/>
      <point x="155.02083333333334" y="516.9166666666666" type="line"/>
      <point x="504.0625" y="97.9375" type="line"/>
    </contour>
    <contour>
      <point x="1043.0416666666667" y="170.95833333333334" type="line"/>
      <point x="779.75" y="584.9791666666666" type="line"/>
      <point x="1043.0416666666667" y="999.9375" type="line"/>
      <point x="928.8541666666666" y="1072.9583333333333" type="line"/>
      <point x="577.8125" y="651.0416666666666" type="line"/>
      <point x="577.8125" y="516.9166666666666" type="line"/>
      <point x="928.8541666666666" y="97.9375" type="line"/>
    </contour>
  </outline>
</glyph>
<glyph name="logicalnot" format="2">
  <advance width="1200.0"/>
  <unicode hex="00AC"/>
  <outline>
    <contour>
      <point x="979.75" y="705.0416666666666" type="line"/>
      <point x="220.25" y="705.0416666666666" type="line"/>
      <point x="220.25" y="546.0" type="line"/>
      <point x="807.875" y="546.0" type="line"/>
      <point x="807.875" y="259.0208333333333" type="line"/>
      <point x="979.75" y="259.0208333333333" type="line"/>
    </contour>
  </outline>
</glyph>
<glyph name="softhyphen" format="2">
  <advance width="1200.0"/>
  <unicode hex="00AD"/>
  <outline>
    <contour>
      <point x="284.8541666666667" y="544.9791666666666" type="line"/>
      <point x="915.1458333333334" y="544.9791666666666" type="line"/>
      <point x="915.1458333333334" y="707.0208333333334" type="line"/>
      <point x="284.8541666666667" y="707.0208333333334" type="line"/>
    </contour>
  </outline>
</glyph>
<glyph name="registered" format="2">
  <advance width="1200.0"/>
  <unicode hex="00AE"/>
  <outline>
    <contour>
      <point x="600.0625" y="1496.9791666666667" type="curve" smooth="yes"/>
      <point x="314.125" y="1496.9791666666667"/>
      <point x="85.8125" y="1267.0833333333333"/>
      <point x="85.8125" y="980.9166666666666" type="curve" smooth="yes"/>
      <point x="85.8125" y="695.8125"/>
      <point x="314.125" y="468.8541666666667"/>
      <point x="600.0625" y="468.8541666666667" type="curve" smooth="yes"/>
      <point x="885.875" y="468.8541666666667"/>
      <point x="1112.1875" y="695.8125"/>
      <point x="1112.1875" y="980.9166666666666" type="curve" smooth="yes"/>
      <point x="1112.1875" y="1267.0833333333333"/>
      <point x="885.875" y="1496.9791666666667"/>
    </contour>
    <contour>
      <point x="600.0625" y="1396.9166666666667" type="curve" smooth="yes"/>
      <point x="830.0" y="1396.9166666666667"/>
      <point x="999.8125" y="1211.75"/>
      <point x="999.8125" y="980.9166666666666" type="curve" smooth="yes"/>
      <point x="999.8125" y="751.1458333333334"/>
      <point x="830.0" y="568.9791666666666"/>
      <point x="600.0625" y="568.9791666666666" type="curve" smooth="yes"/>
      <point x="370.0625" y="568.9791666666666"/>
      <point x="198.1875" y="751.1458333333334"/>
      <point x="198.1875" y="980.9166666666666" type="curve" smooth="yes"/>
      <point x="198.1875" y="1211.75"/>
      <point x="370.0625" y="1396.9166666666667"/>
    </contour>
    <contour>
      <point x="569.0416666666666" y="1271.9375" type="curve" smooth="yes"/>
      <point x="398.9166666666667" y="1271.9375" type="line"/>
      <point x="398.9166666666667" y="707.8125" type="line"/>
      <point x="517.0833333333334" y="707.8125" type="line"/>
      <point x="517.0833333333334" y="922.8541666666666" type="line"/>
      <point x="572.125" y="922.8541666666666" type="line"/>
      <point x="719.0833333333334" y="707.8125" type="line"/>
      <point x="856.9583333333334" y="707.8125" type="line"/>
      <point x="687.75" y="943.8125" type="line"/>
      <point x="762.8541666666666" y="965.9375"/>
      <point x="818.9583333333334" y="1018.0"/>
      <point x="818.9583333333334" y="1101.75" type="curve" smooth="yes"/>
      <point x="818.9583333333334" y="1214.0"/>
      <point x="736.0625" y="1271.9375"/>
    </contour>
    <contour>
      <point x="574.0" y="1181.0833333333333" type="line" smooth="yes"/>
      <point x="658.9791666666666" y="1181.0833333333333"/>
      <point x="697.1458333333334" y="1152.9166666666667"/>
      <point x="697.1458333333334" y="1101.875" type="curve" smooth="yes"/>
      <point x="697.1458333333334" y="1038.25"/>
      <point x="652.9791666666666" y="1014.9583333333334"/>
      <point x="577.9375" y="1014.9583333333334" type="curve" smooth="yes"/>
      <point x="517.0833333333334" y="1014.9583333333334" type="line"/>
      <point x="517.0833333333334" y="1181.0833333333333" type="line"/>
    </contour>
  </outline>
</glyph>
<glyph name="macron" format="2">
  <advance width="1200.0"/>
  <unicode hex="00AF"/>
  <anchor x="600.0" y="1054.25" name="_top"/>
  <outline>
    <contour>
      <point x="874.0" y="1346.0" type="line"/>
      <point x="874.0" y="1489.1458333333333" type="line"/>
      <point x="324.0625" y="1489.1458333333333" type="line"/>
      <point x="324.0625" y="1346.0" type="line"/>
    </contour>
  </outline>
</glyph>
<glyph name="degree" format="2">
  <advance width="1200.0"/>
  <unicode hex="00B0"/>
  <outline>
    <contour>
      <point x="462.1875" y="1500.8541666666667" type="curve" smooth="yes"/>
      <point x="295.875" y="1500.8541666666667"/>
      <point x="132.95833333333334" y="1386.25"/>
      <point x="132.95833333333334" y="1185.8125" type="curve" smooth="yes"/>
      <point x="132.95833333333334" y="980.8541666666666"/>
      <point x="295.875" y="866.125"/>
      <point x="462.1875" y="866.125" type="curve" smooth="yes"/>
      <point x="631.0833333333334" y="866.125"/>
      <point x="792.0625" y="980.8541666666666"/>
      <point x="792.0625" y="1183.875" type="curve" smooth="yes"/>
      <point x="792.0625" y="1386.25"/>
      <point x="631.0833333333334" y="1500.8541666666667"/>
    </contour>
    <contour>
      <point x="462.1875" y="1371.8125" type="curve" smooth="yes"/>
      <point x="553.9375" y="1371.8125"/>
      <point x="634.125" y="1309.875"/>
      <point x="634.125" y="1183.875" type="curve" smooth="yes"/>
      <point x="634.125" y="1057.875"/>
      <point x="553.9375" y="995.875"/>
      <point x="462.1875" y="995.875" type="curve" smooth="yes"/>
      <point x="373.0208333333333" y="995.875"/>
      <point x="290.25" y="1057.875"/>
      <point x="290.25" y="1185.8125" type="curve" smooth="yes"/>
      <point x="290.25" y="1311.8125"/>
      <point x="373.0208333333333" y="1371.8125"/>
    </contour>
  </outline>
</glyph>
<glyph name="plusminus" format="2">
  <advance width="1200.0"/>
  <unicode hex="00B1"/>
  <outline>
    <contour>
      <point x="689.0833333333334" y="1082.125" type="line"/>
      <point x="510.9166666666667" y="1082.125" type="line"/>
      <point x="510.9166666666667" y="781.0416666666666" type="line"/>
      <point x="220.25" y="781.0416666666666" type="line"/>
      <point x="220.25" y="624.0625" type="line"/>
      <point x="510.9166666666667" y="624.0625" type="line"/>
      <point x="510.9166666666667" y="328.9791666666667" type="line"/>
      <point x="689.0833333333334" y="328.9791666666667" type="line"/>
      <point x="689.0833333333334" y="624.0625" type="line"/>
      <point x="979.75" y="624.0625" type="line"/>
      <point x="979.75" y="781.0416666666666" type="line"/>
      <point x="689.0833333333334" y="781.0416666666666" type="line"/>
    </contour>
    <contour>
      <point x="979.75" y="160.85416666666669" type="line"/>
      <point x="220.25" y="160.85416666666669" type="line"/>
      <point x="220.25" y="0.0" type="line"/>
      <point x="979.75" y="0.0" type="line"/>
    </contour>
  </outline>
</glyph>
<glyph name="acute" format="2">
  <advance width="1200.0"/>
  <unicode hex="00B4"/>
  <anchor x="600.0" y="1054.25" name="_top"/>
  <outline>
    <contour>
      <point x="764.9166666666666" y="1606.0625" type="line"/>
      <point x="365.0833333333333" y="1375.9375" type="line"/>
      <point x="423.0208333333333" y="1274.0625" type="line"/>
      <point x="849.8125" y="1446.8541666666667" type="line"/>
    </contour>
  </outline>
</glyph>
<glyph name="micro" format="2">
  <advance width="1200.0"/>
  <unicode hex="00B5"/>
  <outline>
    <contour>
      <point x="980.1875" y="1054.25" type="line"/>
      <point x="788.1875" y="1054.25" type="line"/>
      <point x="788.1875" y="289.875" type="line"/>
      <point x="730.9166666666666" y="208.95833333333334"/>
      <point x="645.0833333333334" y="138.125"/>
      <point x="527.9375" y="138.125" type="curve" smooth="yes"/>
      <point x="377.1458333333333" y="138.125"/>
      <point x="361.75" y="258.0"/>
      <point x="361.75" y="461.875" type="curve" smooth="yes"/>
      <point x="361.75" y="1054.25" type="line"/>
      <point x="169.8125" y="1054.25" type="line"/>
      <point x="169.8125" y="-427.1458333333333" type="line"/>
      <point x="359.0208333333333" y="-404.1875" type="line"/>
      <point x="359.0208333333333" y="-118.91666666666667" type="line" smooth="yes"/>
      <point x="359.0208333333333" y="-62.25"/>
      <point x="347.875" y="0.0625"/>
      <point x="331.875" y="75.04166666666667" type="curve"/>
      <point x="384.0625" y="1.041666666666666"/>
      <point x="431.8125" y="-24.1875"/>
      <point x="533.9375" y="-24.1875" type="curve" smooth="yes"/>
      <point x="636.9791666666666" y="-24.1875"/>
      <point x="744.9791666666666" y="41.041666666666664"/>
      <point x="806.8541666666666" y="143.14583333333334" type="curve"/>
      <point x="812.8541666666666" y="90.1875"/>
      <point x="832.25" y="11.9375"/>
      <point x="851.9375" y="-24.125" type="curve"/>
      <point x="1031.0208333333333" y="0.0" type="line"/>
      <point x="1006.9791666666666" y="85.9375"/>
      <point x="980.1875" y="204.1875"/>
      <point x="980.1875" y="342.125" type="curve" smooth="yes"/>
    </contour>
  </outline>
</glyph>
<glyph name="paragraph" format="2">
  <advance width="1200.0"/>
  <unicode hex="00B6"/>
  <outline>
    <contour>
      <point x="1121.0208333333333" y="1378.25" type="line"/>
      <point x="584.9166666666666" y="1378.25" type="line" smooth="yes"/>
      <point x="250.91666666666666" y="1378.25"/>
      <point x="77.04166666666666" y="1200.1875"/>
      <point x="77.04166666666666" y="970.8541666666666" type="curve" smooth="yes"/>
      <point x="77.04166666666666" y="747.8125"/>
      <point x="240.125" y="575.0208333333334"/>
      <point x="561.9375" y="569.0416666666666" type="curve"/>
      <point x="561.9375" y="-427.1458333333333" type="line"/>
      <point x="733.9375" y="-405.1458333333333" type="line"/>
      <point x="733.9375" y="1226.25" type="line"/>
      <point x="949.0208333333334" y="1226.25" type="line"/>
      <point x="949.0208333333334" y="-427.1458333333333" type="line"/>
      <point x="1121.0208333333333" y="-405.1458333333333" type="line"/>
    </contour>
  </outline>
</glyph>
<glyph name="cedilla" format="2">
  <advance width="1200.0"/>
  <unicode hex="00B8"/>
  <anchor x="600.0" y="0.0" name="_bottom"/>
  <outline>
    <contour>
      <point x="673.875" y="-282.25" type="curve" smooth="yes"/>
      <point x="673.875" y="-339.875"/>
      <point x="626.125" y="-361.0416666666667"/>
      <point x="556.9583333333334" y="-361.0416666666667" type="curve" smooth="yes"/>
      <point x="512.9583333333334" y="-361.0416666666667"/>
      <point x="460.8541666666667" y="-348.9791666666667"/>
      <point x="423.1458333333333" y="-328.9791666666667" type="curve"/>
      <point x="365.9375" y="-433.9375" type="line"/>
      <point x="418.0" y="-464.0"/>
      <point x="496.25" y="-484.9583333333333"/>
      <point x="578.9791666666666" y="-484.9583333333333" type="curve" smooth="yes"/>
      <point x="716.0625" y="-484.9583333333333"/>
      <point x="832.125" y="-415.1458333333333"/>
      <point x="832.125" y="-283.0208333333333" type="curve" smooth="yes"/>
      <point x="832.125" y="-198.91666666666666"/>
      <point x="775.75" y="-122.97916666666667"/>
      <point x="642.8541666666666" y="-110.85416666666667" type="curve"/>
      <point x="642.8541666666666" y="32.0" type="line"/>
      <point x="517.875" y="32.0" type="line"/>
      <point x="498.9166666666667" y="-199.75" type="line"/>
      <point x="608.0" y="-199.75"/>
      <point x="673.875" y="-213.75"/>
    </contour>
  </outline>
</glyph>
<glyph name="ordmasculine" format="2">
  <advance width="1200.0"/>
  <unicode hex="00BA"/>
  <outline>
    <contour>
      <point x="600.0" y="1500.8541666666667" type="curve" smooth="yes"/>
      <point x="348.25" y="1500.8541666666667"/>
      <point x="186.0625" y="1318.125"/>
      <point x="186.0625" y="1058.1875" type="curve" smooth="yes"/>
      <point x="186.0625" y="790.0625"/>
      <point x="346.25" y="613.8125"/>
      <point x="600.0" y="613.8125" type="curve" smooth="yes"/>
      <point x="851.75" y="613.8125"/>
      <point x="1012.0" y="795.9375"/>
      <point x="1012.0" y="1058.1875" type="curve" smooth="yes"/>
      <point x="1012.0" y="1325.9375"/>
      <point x="853.0416666666666" y="1500.8541666666667"/>
    </contour>
    <contour>
      <point x="996.8541666666666" y="161.75" type="line"/>
      <point x="205.08333333333334" y="161.75" type="line"/>
      <point x="205.08333333333334" y="0.0" type="line"/>
      <point x="996.8541666666666" y="0.0" type="line"/>
    </contour>
    <contour>
      <point x="600.0" y="1361.0416666666667" type="curve" smooth="yes"/>
      <point x="739.8125" y="1361.0416666666667"/>
      <point x="826.0625" y="1267.0833333333333"/>
      <point x="826.0625" y="1058.1875" type="curve" smooth="yes"/>
      <point x="826.0625" y="847.9375"/>
      <point x="739.8125" y="753.0416666666666"/>
      <point x="600.0" y="753.0416666666666" type="curve" smooth="yes"/>
      <point x="460.1875" y="753.0416666666666"/>
      <point x="372.0" y="847.9375"/>
      <point x="372.0" y="1058.1875" type="curve" smooth="yes"/>
      <point x="372.0" y="1267.0833333333333"/>
      <point x="460.1875" y="1361.0416666666667"/>
    </contour>
  </outline>
</glyph>
<glyph name="questiondown" format="2">
  <advance width="1200.0"/>
  <unicode hex="00BF"/>
  <outline>
    <contour>
      <point x="644.9791666666666" y="1001.0416666666666" type="curve" smooth="yes"/>
      <point x="565.9375" y="1001.0416666666666"/>
      <point x="505.0208333333333" y="938.0625"/>
      <point x="505.0208333333333" y="859.0833333333334" type="curve" smooth="yes"/>
      <point x="505.0208333333333" y="781.75"/>
      <point x="565.9375" y="718.1875"/>
      <point x="644.9791666666666" y="718.1875" type="curve" smooth="yes"/>
      <point x="724.9583333333334" y="718.1875"/>
      <point x="787.875" y="781.75"/>
      <point x="787.875" y="859.0833333333334" type="curve" smooth="yes"/>
      <point x="787.875" y="938.0625"/>
      <point x="724.9583333333334" y="1001.0416666666666"/>
    </contour>
    <contour>
      <point x="746.125" y="513.875" type="line"/>
      <point x="557.9375" y="513.875" type="line"/>
      <point x="557.9375" y="448.9791666666667" type="line" smooth="yes"/>
      <point x="557.9375" y="174.20833333333334"/>
      <point x="195.625" y="203.08333333333334"/>
      <point x="195.625" y="-117.04166666666667" type="curve" smooth="yes"/>
      <point x="195.625" y="-278.25"/>
      <point x="345.8125" y="-430.0833333333333"/>
      <point x="600.375" y="-430.0833333333333" type="curve" smooth="yes"/>
      <point x="769.6875" y="-430.0833333333333"/>
      <point x="914.7708333333334" y="-365.2291666666667"/>
      <point x="1030.7083333333333" y="-229.29166666666666" type="curve"/>
      <point x="897.1666666666666" y="-130.83333333333334" type="line"/>
      <point x="816.125" y="-228.91666666666666"/>
      <point x="713.625" y="-272.1458333333333"/>
      <point x="619.75" y="-272.1458333333333" type="curve" smooth="yes"/>
      <point x="491.1666666666667" y="-272.1458333333333"/>
      <point x="395.8125" y="-212.125"/>
      <point x="395.8125" y="-104.25" type="curve" smooth="yes"/>
      <point x="395.8125" y="105.66666666666667"/>
      <point x="746.125" y="107.875"/>
      <point x="746.125" y="434.375" type="curve" smooth="yes"/>
    </contour>
  </outline>
</glyph>
<glyph name="AE" format="2">
  <advance width="1200.0"/>
  <unicode hex="00C6"/>
  <anchor x="600.0" y="0.0" name="bottom"/>
  <anchor x="719.0833333333334" y="1378.25" name="top"/>
  <outline>
    <contour>
      <point x="654.125" y="343.75" type="line"/>
      <point x="723.1458333333334" y="0.0" type="line"/>
      <point x="1213.75" y="0.0" type="line"/>
      <point x="1213.75" y="154.1875" type="line"/>
      <point x="878.0" y="154.1875" type="line"/>
      <point x="779.875" y="622.0" type="line"/>
      <point x="1113.9375" y="622.0" type="line"/>
      <point x="1113.9375" y="776.1875" type="line"/>
      <point x="750.8541666666666" y="776.1875" type="line"/>
      <point x="655.1458333333334" y="1224.0625" type="line"/>
      <point x="1108.9166666666667" y="1224.0625" type="line"/>
      <point x="1131.9375" y="1378.25" type="line"/>
      <point x="370.8541666666667" y="1378.25" type="line"/>
      <point x="-24.0" y="0.0" type="line"/>
      <point x="175.04166666666669" y="0.0" type="line"/>
      <point x="266.8541666666667" y="343.75" type="line"/>
    </contour>
    <contour>
      <point x="310.9583333333333" y="501.875" type="line"/>
      <point x="482.25" y="1228.0" type="line"/>
      <point x="622.0625" y="501.875" type="line"/>
    </contour>
  </outline>
</glyph>
<glyph name="Eth" format="2">
  <advance width="1200.0"/>
  <unicode hex="00D0"/>
  <anchor x="620.1875" y="0.0" name="bottom"/>
  <anchor x="620.1875" y="690.125" name="center"/>
  <anchor x="588.375" y="1378.25" name="top"/>
  <outline>
    <contour>
      <point x="678.9166666666666" y="777.875" type="line"/>
      <point x="37.08333333333333" y="777.875" type="line"/>
      <point x="37.08333333333333" y="634.125" type="line"/>
      <point x="678.9166666666666" y="634.125" type="line"/>
    </contour>
    <component base="D" xOffset="20.1875"/>
  </outline>
</glyph>
<glyph name="multiply" format="2">
  <advance width="1200.0"/>
  <unicode hex="00D7"/>
  <outline>
    <contour>
      <point x="842.9166666666666" y="975.0833333333334" type="line"/>
      <point x="600.0" y="729.75" type="line"/>
      <point x="357.0833333333333" y="975.0833333333334" type="line"/>
      <point x="240.85416666666666" y="856.9166666666666" type="line"/>
      <point x="484.25" y="614.0" type="line"/>
      <point x="240.85416666666666" y="371.0833333333333" type="line"/>
      <point x="357.0833333333333" y="254.85416666666666" type="line"/>
      <point x="600.0" y="498.25" type="line"/>
      <point x="842.9166666666666" y="254.85416666666666" type="line"/>
      <point x="959.1458333333334" y="371.0833333333333" type="line"/>
      <point x="715.75" y="614.0" type="line"/>
      <point x="959.1458333333334" y="856.9166666666666" type="line"/>
    </contour>
  </outline>
</glyph>
<glyph name="Oslash" format="2">
  <advance width="1200.0"/>
  <unicode hex="00D8"/>
  <anchor x="600.0" y="0.0" name="bottom"/>
  <anchor x="600.0" y="1378.25" name="top"/>
  <outline>
    <contour>
      <point x="600.0" y="1402.9166666666667" type="curve" smooth="yes"/>
      <point x="260.25" y="1402.9166666666667"/>
      <point x="85.04166666666666" y="1107.8125"/>
      <point x="85.04166666666666" y="686.25" type="curve" smooth="yes"/>
      <point x="85.04166666666666" y="256.9166666666667"/>
      <point x="265.0416666666667" y="-24.958333333333336"/>
      <point x="600.0" y="-24.958333333333336" type="curve" smooth="yes"/>
      <point x="939.75" y="-24.958333333333336"/>
      <point x="1114.9583333333333" y="266.9166666666667"/>
      <point x="1114.9583333333333" y="688.1875" type="curve" smooth="yes"/>
      <point x="1114.9583333333333" y="1117.8125"/>
      <point x="934.9583333333334" y="1402.9166666666667"/>
    </contour>
    <contour>
      <point x="788.125" y="1606.0" type="line"/>
      <point x="722.125" y="1378.25" type="line"/>
      <point x="701.0208333333334" y="1262.125" type="line"/>
      <point x="391.0416666666667" y="192.25" type="line"/>
      <point x="332.0625" y="79.14583333333334" type="line"/>
      <point x="251.875" y="-176.25" type="line"/>
      <point x="413.8125" y="-219.9375" type="line"/>
      <point x="483.0416666666667" y="9.9375" type="line"/>
      <point x="500.25" y="119.04166666666667" type="line"/>
      <point x="813.1458333333334" y="1201.0208333333333" type="line"/>
      <point x="872.125" y="1310.9791666666667" type="line"/>
      <point x="950.0625" y="1562.9583333333333" type="line"/>
    </contour>
    <contour>
      <point x="600.0" y="1242.25" type="curve" smooth="yes"/>
      <point x="820.9583333333334" y="1242.25"/>
      <point x="909.1458333333334" y="1089.1458333333333"/>
      <point x="909.1458333333334" y="688.1875" type="curve" smooth="yes"/>
      <point x="909.1458333333334" y="325.8125"/>
      <point x="820.9583333333334" y="136.0625"/>
      <point x="600.0" y="136.0625" type="curve" smooth="yes"/>
      <point x="384.9166666666667" y="136.0625"/>
      <point x="290.8541666666667" y="285.9375"/>
      <point x="290.8541666666667" y="686.25" type="curve" smooth="yes"/>
      <point x="290.8541666666667" y="1049.0416666666667"/>
      <point x="379.8125" y="1242.25"/>
    </contour>
  </outline>
</glyph>
<glyph name="Thorn" format="2">
  <advance width="1200.0"/>
  <unicode hex="00DE"/>
  <anchor x="600.0" y="0.0" name="bottom"/>
  <anchor x="600.0" y="1378.25" name="top"/>
  <outline>
    <contour>
      <point x="396.9791666666667" y="1378.25" type="line"/>
      <point x="199.08333333333331" y="1378.25" type="line"/>
      <point x="199.08333333333331" y="0.0" type="line"/>
      <point x="396.9791666666667" y="0.0" type="line"/>
      <point x="396.9791666666667" y="253.02083333333334" type="line"/>
      <point x="587.1458333333334" y="253.02083333333334" type="line" smooth="yes"/>
      <point x="901.0833333333334" y="253.02083333333334"/>
      <point x="1118.125" y="387.8125"/>
      <point x="1118.125" y="709.9375" type="curve" smooth="yes"/>
      <point x="1118.125" y="1008.1875"/>
      <point x="919.1458333333334" y="1147.1458333333333"/>
      <point x="580.9583333333334" y="1147.1458333333333" type="curve" smooth="yes"/>
      <point x="396.9791666666667" y="1147.1458333333333" type="line"/>
    </contour>
    <contour>
      <point x="599.9375" y="993.875" type="line" smooth="yes"/>
      <point x="786.0625" y="993.875"/>
      <point x="909.8125" y="911.0833333333334"/>
      <point x="909.8125" y="706.0" type="curve" smooth="yes"/>
      <point x="909.8125" y="475.8125"/>
      <point x="784.0625" y="408.0"/>
      <point x="602.9583333333334" y="408.0" type="curve" smooth="yes"/>
      <point x="396.9791666666667" y="408.0" type="line"/>
      <point x="396.9791666666667" y="993.875" type="line"/>
    </contour>
  </outline>
</glyph>
<glyph name="germandbls" format="2">
  <advance width="1200.0"/>
  <unicode hex="00DF"/>
  <outline>
    <contour>
      <point x="591.0416666666666" y="1500.8541666666667" type="curve" smooth="yes"/>
      <point x="332.25" y="1500.8541666666667"/>
      <point x="180.0625" y="1349.9375"/>
      <point x="180.0625" y="1065.875" type="curve" smooth="yes"/>
      <point x="180.0625" y="0.0" type="line"/>
      <point x="372.0625" y="0.0" type="line"/>
      <point x="372.0625" y="1077.9375" type="line" smooth="yes"/>
      <point x="372.0625" y="1275.0208333333333"/>
      <point x="447.875" y="1352.1875"/>
      <point x="588.8541666666666" y="1352.1875" type="curve" smooth="yes"/>
      <point x="721.0833333333334" y="1352.1875"/>
      <point x="764.9583333333334" y="1265.75"/>
      <point x="764.9583333333334" y="1193.9375" type="curve" smooth="yes"/>
      <point x="764.9583333333334" y="1046.0625"/>
      <point x="544.8541666666666" y="1021.9375"/>
      <point x="544.8541666666666" y="832.25" type="curve" smooth="yes"/>
      <point x="544.8541666666666" y="570.25"/>
      <point x="925.875" y="576.25"/>
      <point x="925.875" y="326.25" type="curve" smooth="yes"/>
      <point x="925.875" y="193.9375"/>
      <point x="850.0625" y="128.91666666666669"/>
      <point x="724.9166666666666" y="128.91666666666669" type="curve" smooth="yes"/>
      <point x="670.1875" y="128.91666666666669"/>
      <point x="608.0" y="147.02083333333334"/>
      <point x="560.25" y="174.125" type="curve"/>
      <point x="487.0208333333333" y="42.854166666666664" type="line"/>
      <point x="557.0208333333334" y="-0.9583333333333339"/>
      <point x="639.0208333333334" y="-24.958333333333336"/>
      <point x="744.25" y="-24.958333333333336" type="curve" smooth="yes"/>
      <point x="950.0625" y="-24.958333333333336"/>
      <point x="1122.0625" y="101.9375"/>
      <point x="1122.0625" y="334.0625" type="curve" smooth="yes"/>
      <point x="1122.0625" y="673.0208333333334"/>
      <point x="729.1458333333334" y="687.75"/>
      <point x="729.1458333333334" y="858.1875" type="curve" smooth="yes"/>
      <point x="729.1458333333334" y="982.125"/>
      <point x="948.25" y="1016.25"/>
      <point x="948.25" y="1209.875" type="curve" smooth="yes"/>
      <point x="948.25" y="1380.0"/>
      <point x="806.125" y="1500.8541666666667"/>
    </contour>
  </outline>
</glyph>
<glyph name="ae" format="2">
  <advance width="1200.0"/>
  <unicode hex="00E6"/>
  <anchor x="614.9791666666666" y="1054.25" name="top"/>
  <outline>
    <contour>
      <point x="866.9791666666666" y="1078.9166666666667" type="curve" smooth="yes"/>
      <point x="737.2916666666666" y="1078.9166666666667"/>
      <point x="648.7708333333334" y="1013.875"/>
      <point x="606.5833333333334" y="908.8541666666666" type="curve"/>
      <point x="565.9791666666666" y="1011.9375"/>
      <point x="491.7916666666667" y="1078.9166666666667"/>
      <point x="338.9791666666667" y="1078.9166666666667" type="curve" smooth="yes"/>
      <point x="250.125" y="1078.9166666666667"/>
      <point x="156.85416666666666" y="1052.9166666666667"/>
      <point x="66.125" y="1011.1458333333334" type="curve"/>
      <point x="115.8125" y="876.25" type="line"/>
      <point x="200.97916666666666" y="914.25"/>
      <point x="251.08333333333334" y="930.125"/>
      <point x="320.25" y="930.125" type="curve" smooth="yes"/>
      <point x="436.1875" y="930.125"/>
      <point x="502.125" y="868.0"/>
      <point x="502.125" y="722.9583333333334" type="curve" smooth="yes"/>
      <point x="502.125" y="643.0208333333334" type="line"/>
      <point x="413.0208333333333" y="643.0208333333334" type="line" smooth="yes"/>
      <point x="132.85416666666666" y="643.0208333333334"/>
      <point x="-12.0" y="522.25"/>
      <point x="-12.0" y="302.0625" type="curve" smooth="yes"/>
      <point x="-12.0" y="106.0"/>
      <point x="105.8125" y="-24.958333333333336"/>
      <point x="291.8125" y="-24.958333333333336" type="curve" smooth="yes"/>
      <point x="425.875" y="-24.958333333333336"/>
      <point x="501.6875" y="27.75"/>
      <point x="583.8541666666666" y="163.41666666666666" type="curve"/>
      <point x="657.0208333333334" y="37.041666666666664"/>
      <point x="750.9791666666666" y="-24.958333333333336"/>
      <point x="893.8125" y="-24.958333333333336" type="curve" smooth="yes"/>
      <point x="1011.0208333333334" y="-24.958333333333336"/>
      <point x="1097.75" y="17.875"/>
      <point x="1177.0416666666667" y="81.9375" type="curve"/>
      <point x="1092.9166666666667" y="204.125" type="line"/>
      <point x="1027.8125" y="155.02083333333334"/>
      <point x="973.875" y="126.85416666666667"/>
      <point x="898.25" y="126.85416666666667" type="curve" smooth="yes"/>
      <point x="762.0" y="126.85416666666667"/>
      <point x="696.125" y="232.0"/>
      <point x="678.125" y="462.9791666666667" type="curve"/>
      <point x="1206.9166666666667" y="462.9791666666667" type="line"/>
      <point x="1209.625" y="489.8125"/>
      <point x="1210.9791666666667" y="521.8125"/>
      <point x="1210.9791666666667" y="557.8125" type="curve" smooth="yes"/>
      <point x="1210.9791666666667" y="882.9791666666666"/>
      <point x="1107.9375" y="1078.9166666666667"/>
    </contour>
    <contour>
      <point x="502.125" y="517.875" type="line"/>
      <point x="502.125" y="439.1458333333333"/>
      <point x="509.9375" y="363.75"/>
      <point x="523.6875" y="294.0625" type="curve"/>
      <point x="463.0208333333333" y="178.1875"/>
      <point x="405.8125" y="117.75"/>
      <point x="321.0416666666667" y="117.75" type="curve" smooth="yes"/>
      <point x="236.85416666666666" y="117.75"/>
      <point x="182.25" y="185.02083333333334"/>
      <point x="182.25" y="312.1875" type="curve" smooth="yes"/>
      <point x="182.25" y="436.8541666666667"/>
      <point x="241.875" y="517.875"/>
      <point x="424.25" y="517.875" type="curve" smooth="yes"/>
    </contour>
    <contour>
      <point x="861.1458333333334" y="930.0" type="curve" smooth="yes"/>
      <point x="990.9583333333334" y="930.0"/>
      <point x="1031.0416666666667" y="817.8125"/>
      <point x="1034.9791666666667" y="601.0416666666666" type="curve"/>
      <point x="678.125" y="601.0416666666666" type="line"/>
      <point x="693.875" y="844.9166666666666"/>
      <point x="747.1458333333334" y="930.0"/>
    </contour>
  </outline>
</glyph>
<glyph name="eth" format="2">
  <advance width="1200.0"/>
  <unicode hex="00F0"/>
  <outline>
    <contour>
      <point x="324.9791666666667" y="1127.1458333333333" type="line"/>
      <point x="457.8125" y="1060.9791666666667" type="line"/>
      <point x="606.9166666666666" y="1215.0208333333333" type="line"/>
      <point x="729.0416666666666" y="1126.0"/>
      <point x="820.125" y="994.1875"/>
      <point x="859.0208333333334" y="830.0625" type="curve"/>
      <point x="783.1458333333334" y="915.1458333333334"/>
      <point x="684.1875" y="962.0625"/>
      <point x="550.9791666666666" y="962.0625" type="curve" smooth="yes"/>
      <point x="322.9166666666667" y="962.0625"/>
      <point x="124.85416666666666" y="765.9375"/>
      <point x="124.85416666666666" y="469.9375" type="curve" smooth="yes"/>
      <point x="124.85416666666666" y="153.875"/>
      <point x="332.0" y="-24.958333333333336"/>
      <point x="589.9375" y="-24.958333333333336" type="curve" smooth="yes"/>
      <point x="885.0208333333334" y="-24.958333333333336"/>
      <point x="1072.9583333333333" y="195.9375"/>
      <point x="1072.9583333333333" y="531.0416666666666" type="curve" smooth="yes"/>
      <point x="1072.9583333333333" y="910.0625"/>
      <point x="964.1875" y="1169.0208333333333"/>
      <point x="722.9166666666666" y="1333.0833333333333" type="curve"/>
      <point x="844.125" y="1457.875" type="line"/>
      <point x="733.1458333333334" y="1554.9583333333333" type="line"/>
      <point x="592.9583333333334" y="1406.1875" type="line"/>
      <point x="510.25" y="1447.875"/>
      <point x="410.9583333333333" y="1477.0416666666667"/>
      <point x="295.1458333333333" y="1501.1458333333333" type="curve"/>
      <point x="253.8125" y="1357.1458333333333" type="line"/>
      <point x="342.125" y="1338.9791666666667"/>
      <point x="415.0416666666667" y="1317.8125"/>
      <point x="479.0833333333333" y="1288.1875" type="curve"/>
    </contour>
    <contour>
      <point x="878.25" y="531.0833333333334" type="curve" smooth="yes"/>
      <point x="878.25" y="264.125"/>
      <point x="767.8125" y="126.25"/>
      <point x="588.1875" y="126.25" type="curve" smooth="yes"/>
      <point x="431.1458333333333" y="126.25"/>
      <point x="320.9166666666667" y="246.0"/>
      <point x="320.9166666666667" y="477.8125" type="curve" smooth="yes"/>
      <point x="320.9166666666667" y="710.25"/>
      <point x="442.125" y="813.0416666666666"/>
      <point x="582.9583333333334" y="813.0416666666666" type="curve" smooth="yes"/>
      <point x="703.9375" y="813.0416666666666"/>
      <point x="807.8125" y="761.0833333333334"/>
      <point x="873.0208333333334" y="663.75" type="curve"/>
      <point x="876.9583333333334" y="620.9791666666666"/>
      <point x="878.25" y="579.1458333333334"/>
    </contour>
  </outline>
</glyph>
<glyph name="divide" format="2">
  <advance width="1200.0"/>
  <unicode hex="00F7"/>
  <outline>
    <contour>
      <point x="979.75" y="705.0416666666666" type="line"/>
      <point x="220.25" y="705.0416666666666" type="line"/>
      <point x="220.25" y="546.0" type="line"/>
      <point x="979.75" y="546.0" type="line"/>
    </contour>
    <contour>
      <point x="600.0" y="368.9791666666667" type="curve" smooth="yes"/>
      <point x="520.9583333333334" y="368.9791666666667"/>
      <point x="457.75" y="306.0625"/>
      <point x="457.75" y="229.02083333333334" type="curve" smooth="yes"/>
      <point x="457.75" y="149.04166666666666"/>
      <point x="520.9583333333334" y="86.125"/>
      <point x="600.0" y="86.125" type="curve" smooth="yes"/>
      <point x="679.0416666666666" y="86.125"/>
      <point x="742.25" y="149.04166666666666"/>
      <point x="742.25" y="229.02083333333334" type="curve" smooth="yes"/>
      <point x="742.25" y="306.0625"/>
      <point x="679.0416666666666" y="368.9791666666667"/>
    </contour>
    <contour>
      <point x="600.0" y="1164.9166666666667" type="curve" smooth="yes"/>
      <point x="520.9583333333334" y="1164.9166666666667"/>
      <point x="457.75" y="1102.0"/>
      <point x="457.75" y="1024.9583333333333" type="curve" smooth="yes"/>
      <point x="457.75" y="945.0416666666666"/>
      <point x="520.9583333333334" y="884.0625"/>
      <point x="600.0" y="884.0625" type="curve" smooth="yes"/>
      <point x="679.0416666666666" y="884.0625"/>
      <point x="742.25" y="945.0416666666666"/>
      <point x="742.25" y="1024.9583333333333" type="curve" smooth="yes"/>
      <point x="742.25" y="1102.0"/>
      <point x="679.0416666666666" y="1164.9166666666667"/>
    </contour>
  </outline>
</glyph>
<glyph name="oslash" format="2">
  <advance width="1200.0"/>
  <unicode hex="00F8"/>
  <anchor x="600.0" y="1054.25" name="top"/>
  <outline>
    <contour>
      <point x="601.9375" y="1078.9166666666667" type="curve" smooth="yes"/>
      <point x="300.1875" y="1078.9166666666667"/>
      <point x="136.95833333333334" y="852.8541666666666"/>
      <point x="136.95833333333334" y="526.1875" type="curve" smooth="yes"/>
      <point x="136.95833333333334" y="191.14583333333334"/>
      <point x="307.9375" y="-24.958333333333336"/>
      <point x="600.0" y="-24.958333333333336" type="curve" smooth="yes"/>
      <point x="899.8125" y="-24.958333333333336"/>
      <point x="1063.0416666666667" y="200.95833333333334"/>
      <point x="1063.0416666666667" y="528.1875" type="curve" smooth="yes"/>
      <point x="1063.0416666666667" y="863.0208333333334"/>
      <point x="894.0625" y="1078.9166666666667"/>
    </contour>
    <contour>
      <point x="770.0" y="1311.1458333333333" type="line"/>
      <point x="689.9375" y="1058.9166666666667" type="line"/>
      <point x="674.0" y="960.1875" type="line"/>
      <point x="428.125" y="169.08333333333334" type="line"/>
      <point x="369.1458333333333" y="62.125" type="line"/>
      <point x="276.8541666666667" y="-216.97916666666666" type="line"/>
      <point x="432.0" y="-263.0208333333333" type="line"/>
      <point x="510.0625" y="-1.083333333333334" type="line"/>
      <point x="535.8125" y="118.25" type="line"/>
      <point x="780.9166666666666" y="907.0416666666666" type="line"/>
      <point x="837.1458333333334" y="999.9375" type="line"/>
      <point x="925.0833333333334" y="1265.75" type="line"/>
    </contour>
    <contour>
      <point x="601.9375" y="926.1875" type="curve" smooth="yes"/>
      <point x="775.0208333333334" y="926.1875"/>
      <point x="859.9375" y="820.0"/>
      <point x="859.9375" y="528.1875" type="curve" smooth="yes"/>
      <point x="859.9375" y="254.1875"/>
      <point x="773.75" y="128.0625"/>
      <point x="600.0" y="128.0625" type="curve" smooth="yes"/>
      <point x="424.9791666666667" y="128.0625"/>
      <point x="340.0625" y="234.1875"/>
      <point x="340.0625" y="526.1875" type="curve" smooth="yes"/>
      <point x="340.0625" y="800.0"/>
      <point x="428.1875" y="926.1875"/>
    </contour>
  </outline>
</glyph>
<glyph name="dcroat" format="2">
  <advance width="1200.0"/>
  <unicode hex="0111"/>
  <anchor x="597.875" y="0.0" name="bottom"/>
  <anchor x="597.875" y="528.125" name="center"/>
  <anchor x="597.875" y="1478.1875" name="top"/>
  <anchor x="1065.9375" y="1478.1875" name="topright"/>
  <outline>
    <contour>
      <point x="1006.8541666666666" y="1336.125" type="line"/>
      <point x="488.1875" y="1336.125" type="line"/>
      <point x="488.1875" y="1193.75" type="line"/>
      <point x="814.8541666666666" y="1193.75" type="line"/>
      <point x="1164.9166666666667" y="1193.75" type="line"/>
      <point x="1164.9166666666667" y="1336.125" type="line"/>
    </contour>
    <component base="d" xOffset="-2.125"/>
  </outline>
</glyph>
<glyph name="Hbar" format="2">
  <advance width="1200.0"/>
  <unicode hex="0126"/>
  <outline>
    <contour>
      <point x="1043.0833333333333" y="1378.25" type="line"/>
      <point x="844.25" y="1378.25" type="line"/>
      <point x="844.25" y="805.0833333333334" type="line"/>
      <point x="355.75" y="805.0833333333334" type="line"/>
      <point x="355.75" y="1378.25" type="line"/>
      <point x="156.91666666666666" y="1378.25" type="line"/>
      <point x="156.91666666666666" y="0.0" type="line"/>
      <point x="355.75" y="0.0" type="line"/>
      <point x="355.75" y="643.0833333333334" type="line"/>
      <point x="844.25" y="643.0833333333334" type="line"/>
      <point x="844.25" y="0.0" type="line"/>
      <point x="1043.0833333333333" y="0.0" type="line"/>
    </contour>
    <contour>
      <point x="1196.0" y="1155.875" type="line"/>
      <point x="4.0" y="1155.875" type="line"/>
      <point x="4.0" y="1014.8541666666666" type="line"/>
      <point x="1196.0" y="1014.8541666666666" type="line"/>
    </contour>
  </outline>
</glyph>
<glyph name="hbar" format="2">
  <advance width="1200.0"/>
  <unicode hex="0127"/>
  <anchor x="600.0" y="0.0" name="bottom"/>
  <anchor x="600.0" y="528.125" name="center"/>
  <anchor x="600.0" y="1478.1875" name="top"/>
  <outline>
    <contour>
      <point x="711.8125" y="1336.125" type="line"/>
      <point x="191.02083333333334" y="1336.125" type="line"/>
      <point x="35.08333333333333" y="1336.125" type="line"/>
      <point x="35.08333333333333" y="1193.75" type="line"/>
      <point x="383.0208333333333" y="1193.75" type="line"/>
      <point x="711.8125" y="1193.75" type="line"/>
    </contour>
    <component base="h"/>
  </outline>
</glyph>
<glyph name="IJ" format="2">
  <advance width="1200.0"/>
  <unicode hex="0132"/>
  <outline>
    <contour>
      <point x="384.9583333333333" y="-142.0625" type="curve"/>
      <point x="407.75" y="-286.8541666666667" type="line"/>
      <point x="938.9166666666666" y="-232.85416666666666"/>
      <point x="1072.9583333333333" y="48.95833333333333"/>
      <point x="1072.9583333333333" y="370.0625" type="curve" smooth="yes"/>
      <point x="1072.9583333333333" y="1378.25" type="line"/>
      <point x="21.8125" y="1378.25" type="line"/>
      <point x="21.8125" y="1224.9791666666667" type="line"/>
      <point x="213.02083333333334" y="1224.9791666666667" type="line"/>
      <point x="213.02083333333334" y="152.97916666666666" type="line"/>
      <point x="21.8125" y="152.97916666666666" type="line"/>
      <point x="21.8125" y="0.0" type="line"/>
      <point x="562.25" y="0.0" type="line"/>
      <point x="562.25" y="152.97916666666666" type="line"/>
      <point x="411.0416666666667" y="152.97916666666666" type="line"/>
      <point x="411.0416666666667" y="1224.9791666666667" type="line"/>
      <point x="875.1458333333334" y="1224.9791666666667" type="line"/>
      <point x="875.1458333333334" y="377.0833333333333" type="line" smooth="yes"/>
      <point x="875.1458333333334" y="84.1875"/>
      <point x="784.25" y="-99.08333333333333"/>
    </contour>
  </outline>
</glyph>
<glyph name="ij" format="2">
  <advance width="1200.0"/>
  <unicode hex="0133"/>
  <outline>
    <contour>
      <point x="1015.0833333333334" y="1054.25" type="line"/>
      <point x="102.95833333333333" y="1054.25" type="line"/>
      <point x="102.95833333333333" y="911.9375" type="line"/>
      <point x="271.9375" y="911.9375" type="line"/>
      <point x="271.9375" y="146.25" type="line"/>
      <point x="92.95833333333333" y="146.25" type="line"/>
      <point x="92.95833333333333" y="0.0" type="line"/>
      <point x="634.9791666666666" y="0.0" type="line"/>
      <point x="634.9791666666666" y="146.25" type="line"/>
      <point x="458.0" y="146.25" type="line"/>
      <point x="458.0" y="911.9375" type="line"/>
      <point x="827.0208333333334" y="911.9375" type="line"/>
      <point x="827.0208333333334" y="118.1875" type="line" smooth="yes"/>
      <point x="827.0208333333334" y="-110.0"/>
      <point x="633.0833333333334" y="-204.91666666666666"/>
      <point x="430.8541666666667" y="-279.75" type="curve"/>
      <point x="490.0" y="-426.8541666666667" type="line"/>
      <point x="787.0416666666666" y="-331.875"/>
      <point x="1015.0833333333334" y="-179.75"/>
      <point x="1015.0833333333334" y="130.97916666666669" type="curve" smooth="yes"/>
    </contour>
    <contour>
      <point x="367.875" y="1557.9375" type="curve" smooth="yes"/>
      <point x="289.875" y="1557.9375"/>
      <point x="236.125" y="1502.25"/>
      <point x="236.125" y="1430.9583333333333" type="curve" smooth="yes"/>
      <point x="236.125" y="1357.0833333333333"/>
      <point x="289.875" y="1301.0416666666667"/>
      <point x="367.875" y="1301.0416666666667" type="curve" smooth="yes"/>
      <point x="445.9375" y="1301.0416666666667"/>
      <point x="501.0416666666667" y="1357.0833333333333"/>
      <point x="501.0416666666667" y="1430.9583333333333" type="curve" smooth="yes"/>
      <point x="501.0416666666667" y="1502.25"/>
      <point x="445.9375" y="1557.9375"/>
    </contour>
    <contour>
      <point x="899.0833333333334" y="1557.9375" type="curve" smooth="yes"/>
      <point x="821.0833333333334" y="1557.9375"/>
      <point x="766.9166666666666" y="1502.25"/>
      <point x="766.9166666666666" y="1430.9583333333333" type="curve" smooth="yes"/>
      <point x="766.9166666666666" y="1357.0833333333333"/>
      <point x="821.0833333333334" y="1301.0416666666667"/>
      <point x="899.0833333333334" y="1301.0416666666667" type="curve" smooth="yes"/>
      <point x="977.0833333333334" y="1301.0416666666667"/>
      <point x="1032.1875" y="1357.0833333333333"/>
      <point x="1032.1875" y="1430.9583333333333" type="curve" smooth="yes"/>
      <point x="1032.1875" y="1502.25"/>
      <point x="977.0833333333334" y="1557.9375"/>
    </contour>
  </outline>
</glyph>
<glyph name="kgreenlandic" format="2">
  <advance width="1200.0"/>
  <unicode hex="0138"/>
  <anchor x="600.0" y="0.0" name="bottom"/>
  <anchor x="600.0" y="1054.25" name="top"/>
  <outline>
    <contour>
      <point x="1084.0625" y="1054.25" type="line"/>
      <point x="848.0" y="1054.25" type="line"/>
      <point x="400.1875" y="562.9791666666666" type="line"/>
      <point x="890.9166666666666" y="0.0" type="line"/>
      <point x="1135.0208333333333" y="0.0" type="line"/>
      <point x="627.1458333333334" y="575.9375" type="line"/>
    </contour>
    <contour>
      <point x="383.0208333333333" y="1054.25" type="line"/>
      <point x="191.02083333333334" y="1054.25" type="line"/>
      <point x="191.02083333333334" y="0.0" type="line"/>
      <point x="383.0208333333333" y="0.0" type="line"/>
    </contour>
  </outline>
</glyph>
<glyph name="Lslash" format="2">
  <advance width="1200.0"/>
  <unicode hex="0141"/>
  <anchor x="660.125" y="0.0" name="bottom"/>
  <anchor x="942.9166666666666" y="760.9583333333334" name="center"/>
  <anchor x="359.625" y="1378.25" name="top"/>
  <anchor x="557.75" y="1378.25" name="topright"/>
  <outline>
    <contour>
      <point x="148.25" y="454.9583333333333" type="line"/>
      <point x="852.8541666666666" y="891.75" type="line"/>
      <point x="772.9166666666666" y="1013.0208333333334" type="line"/>
      <point x="70.95833333333333" y="577.9375" type="line"/>
    </contour>
    <component base="L" xOffset="1.875"/>
  </outline>
</glyph>
<glyph name="lslash" format="2">
  <advance width="1200.0"/>
  <unicode hex="0142"/>
  <anchor x="719.0416666666666" y="0.0" name="bottom"/>
  <anchor x="1123.0833333333333" y="766.0" name="center"/>
  <anchor x="526.8541666666666" y="1478.1875" name="top"/>
  <anchor x="702.9791666666666" y="1478.1875" name="topright"/>
  <outline>
    <contour>
      <point x="432.25" y="761.9375" type="line"/>
      <point x="227.08333333333334" y="638.0" type="line"/>
      <point x="305.1458333333333" y="518.1875" type="line"/>
      <point x="624.25" y="713.8125" type="line"/>
      <point x="874.0" y="866.9791666666666" type="line"/>
      <point x="795.875" y="986.8541666666666" type="line"/>
    </contour>
    <component base="l"/>
  </outline>
</glyph>
